STARTFONT 2.3
FONT -FontForge-Roboto Condensed-Book-R-Condensed---18-180-72-72-P-89-ISO10646-1
SIZE 18 72 72  4
FONTBOUNDINGBOX 32 24 -14 -5
COMMENT "Generated by fontforge, http://fontforge.sourceforge.net"
COMMENT "Copyright 2011 Google Inc. All Rights Reserved."
STARTPROPERTIES 42
FOUNDRY "FontForge"
FAMILY_NAME "Roboto Condensed"
WEIGHT_NAME "Book"
SLANT "R"
SETWIDTH_NAME "Condensed"
ADD_STYLE_NAME ""
PIXEL_SIZE 18
POINT_SIZE 180
RESOLUTION_X 72
RESOLUTION_Y 72
SPACING "P"
AVERAGE_WIDTH 89
CHARSET_REGISTRY "ISO10646"
CHARSET_ENCODING "1"
FONTNAME_REGISTRY ""
CHARSET_COLLECTIONS "ISO8859-2 ISO8859-5 ISO8859-7 ISO8859-9 ISO8859-4 ISO10646-1"
BITS_PER_PIXEL 4
FONT_NAME "RobotoCondensed-Regular"
FACE_NAME "Roboto Condensed"
COPYRIGHT "Copyright 2011 Google Inc. All Rights Reserved."
FONT_VERSION "2.137; 2017"
FONT_ASCENT 14
FONT_DESCENT 4
UNDERLINE_POSITION -2
UNDERLINE_THICKNESS 1
X_HEIGHT 9
CAP_HEIGHT 12
DEFAULT_CHAR 1
RAW_ASCENT 750
RAW_DESCENT 250
NORM_SPACE 4
RELATIVE_WEIGHT 40
RELATIVE_SETWIDTH 50
SUPERSCRIPT_X 0
SUPERSCRIPT_Y 8
SUPERSCRIPT_SIZE 11
SUBSCRIPT_X 0
SUBSCRIPT_Y 2
SUBSCRIPT_SIZE 11
FIGURE_WIDTH 9
AVG_LOWERCASE_WIDTH 87
AVG_UPPERCASE_WIDTH 103
ENDPROPERTIES
CHARS 1296
STARTCHAR uni0000
ENCODING 0
SWIDTH 0 0
DWIDTH 0 0
BBX 1 1 0 0
BITMAP
00
ENDCHAR
STARTCHAR uni0002
ENCODING 2
SWIDTH 0 0
DWIDTH 0 0
BBX 1 1 0 0
BITMAP
00
ENDCHAR
STARTCHAR uni000D
ENCODING 13
SWIDTH 229 0
DWIDTH 4 0
BBX 1 1 0 0
BITMAP
00
ENDCHAR
STARTCHAR space
ENCODING 32
SWIDTH 229 0
DWIDTH 4 0
BBX 1 1 0 0
BITMAP
00
ENDCHAR
STARTCHAR exclam
ENCODING 33
SWIDTH 245 0
DWIDTH 4 0
BBX 3 13 1 0
BITMAP
9F10
9F00
8F00
8F00
8F00
8F00
8E00
8E00
7E00
2400
0000
5B00
6D10
ENDCHAR
STARTCHAR quotedbl
ENCODING 34
SWIDTH 319 0
DWIDTH 6 0
BBX 4 4 1 10
BITMAP
C76C
C66C
C56A
C379
ENDCHAR
STARTCHAR numbersign
ENCODING 35
SWIDTH 547 0
DWIDTH 10 0
BBX 9 13 1 0
BITMAP
000A80A700
000D50D500
000F30F300
002F12F100
4FFFFFFF60
139B39B310
00A80A8000
00D50D5000
DFFFFFFC00
35F35F3300
05D05D0000
08A08A0000
0A80A80000
ENDCHAR
STARTCHAR dollar
ENCODING 36
SWIDTH 493 0
DWIDTH 9 0
BBX 7 17 1 -2
BITMAP
000E3000
000F4000
04CFD500
2FC6CF30
7F201E90
9F000CB0
7F400110
1EE71000
03CFE600
0004DF50
00001EB0
D8000AD0
DC000DC0
6FA6BF60
07DFD600
002F1000
002A1000
ENDCHAR
STARTCHAR percent
ENCODING 37
SWIDTH 632 0
DWIDTH 11 0
BBX 10 13 1 0
BITMAP
3DE7000000
C73E305700
F20B60D500
F20B65C000
C73E3D4000
3DE76C0000
0000D40000
0006C2BE90
000D4A92D5
006B0D4098
00D40D4098
02A00A92D5
000002CE90
ENDCHAR
STARTCHAR ampersand
ENCODING 38
SWIDTH 543 0
DWIDTH 10 0
BBX 10 13 0 0
BITMAP
003CEC3000
00DD6CD000
03F605F200
03F607F100
00DC4E9000
005FF90000
008FF30000
06F6DD17E0
0EA04F99C0
1F7008FE80
0EA000DF30
07F96AFFA0
007DFC58F5
ENDCHAR
STARTCHAR quotesingle
ENCODING 39
SWIDTH 174 0
DWIDTH 3 0
BBX 3 4 0 10
BITMAP
1F30
1F30
1F20
1F10
ENDCHAR
STARTCHAR parenleft
ENCODING 40
SWIDTH 313 0
DWIDTH 6 0
BBX 5 18 1 -4
BITMAP
000A10
009B00
03F200
0B9000
2F5000
6F1000
AD0000
BC0000
CB0000
CB0000
CC0000
AD0000
6F1000
2F5000
0BA000
03F200
009B00
000A10
ENDCHAR
STARTCHAR parenright
ENCODING 41
SWIDTH 318 0
DWIDTH 6 0
BBX 5 18 0 -4
BITMAP
560000
2E4000
07D000
01E600
00AC00
006F10
004F40
002F60
001F70
001F70
002F60
003F40
006F10
00AC00
00E600
06D000
2E3000
550000
ENDCHAR
STARTCHAR asterisk
ENCODING 42
SWIDTH 430 0
DWIDTH 8 0
BBX 8 8 0 5
BITMAP
000C8000
000B8000
571B8282
8FFEEFE5
018FF400
00CAE800
09E15F40
02400710
ENDCHAR
STARTCHAR plus
ENCODING 43
SWIDTH 496 0
DWIDTH 9 0
BBX 9 10 0 1
BITMAP
0004B30000
0005F40000
0005F40000
0005F40000
4FFFFFFF20
288AFA8810
0005F40000
0005F40000
0005F40000
0003920000
ENDCHAR
STARTCHAR comma
ENCODING 44
SWIDTH 196 0
DWIDTH 4 0
BBX 3 5 0 -3
BITMAP
0CA0
0EA0
1F80
5F30
6900
ENDCHAR
STARTCHAR hyphen
ENCODING 45
SWIDTH 248 0
DWIDTH 4 0
BBX 5 2 0 4
BITMAP
9FFF10
355500
ENDCHAR
STARTCHAR period
ENCODING 46
SWIDTH 263 0
DWIDTH 5 0
BBX 3 2 1 0
BITMAP
7D20
8E20
ENDCHAR
STARTCHAR slash
ENCODING 47
SWIDTH 370 0
DWIDTH 7 0
BBX 6 14 0 -1
BITMAP
00006E
0000B9
0001F4
0005E0
000AA0
001E50
005E10
00AA00
00E500
04F100
09B000
0E6000
4F1000
9B0000
ENDCHAR
STARTCHAR zero
ENCODING 48
SWIDTH 493 0
DWIDTH 9 0
BBX 7 13 1 0
BITMAP
05DFC400
3FB6CE20
9E102F70
DA000CB0
E9000BC0
F8000AD0
F8000AD0
F8000AD0
E9000BC0
DB000DB0
9E102F70
3FB6CE20
05DFC400
ENDCHAR
STARTCHAR one
ENCODING 49
SWIDTH 493 0
DWIDTH 9 0
BBX 5 13 1 0
BITMAP
001890
18EFA0
9E7EA0
310EA0
000EA0
000EA0
000EA0
000EA0
000EA0
000EA0
000EA0
000EA0
000EA0
ENDCHAR
STARTCHAR two
ENCODING 50
SWIDTH 493 0
DWIDTH 9 0
BBX 9 13 0 0
BITMAP
007DEC4000
07F96CF300
0EA002F800
1E6000DA00
000000E800
000006F300
00001EA000
0000BE2000
0007F50000
004F800000
01DB000000
0BF6555510
0FFFFFFF30
ENDCHAR
STARTCHAR three
ENCODING 51
SWIDTH 493 0
DWIDTH 9 0
BBX 8 13 0 0
BITMAP
007DEB20
07F96CE1
0DB003F5
084000F8
000002F6
00001AE1
000FFF40
00056CE2
000001F8
184000DA
0EA001F8
08F86CE2
008DEB30
ENDCHAR
STARTCHAR four
ENCODING 52
SWIDTH 493 0
DWIDTH 9 0
BBX 9 13 0 0
BITMAP
00001EE000
00007FE000
0001EEE000
0008DAE000
001E6AE000
008D0AE000
01E70AE000
08E10AE000
1E700AE000
7FFFFFFF50
25555BE520
00000AE000
00000AE000
ENDCHAR
STARTCHAR five
ENCODING 53
SWIDTH 493 0
DWIDTH 9 0
BBX 8 13 1 0
BITMAP
0CFFFFC0
0EB88860
0F600000
2F500000
3FBEE700
4FB8CF60
03001DC0
000008F0
000007F1
570008F0
7E100CC0
2EC6AF50
03BED700
ENDCHAR
STARTCHAR six
ENCODING 54
SWIDTH 493 0
DWIDTH 9 0
BBX 7 13 1 0
BITMAP
003AE700
05FD8200
1EB10000
6F200000
9D6EE700
BED6BF40
CE101EB0
DB000AD0
CC0008F0
AE000AD0
6F400EA0
0DD6BF30
02BFD500
ENDCHAR
STARTCHAR seven
ENCODING 55
SWIDTH 493 0
DWIDTH 9 0
BBX 9 13 0 0
BITMAP
4FFFFFFF10
155555CD00
000001E800
000005F200
00000BC000
00002F6000
00007F1000
0000DA0000
0004F50000
0009E00000
001E900000
006F300000
00BD000000
ENDCHAR
STARTCHAR eight
ENCODING 56
SWIDTH 493 0
DWIDTH 9 0
BBX 7 13 1 0
BITMAP
04CEC300
3FB6CE10
9F103F70
BD000F90
AE001F70
4F718F20
08FFF600
4FA6BE20
CC000EA0
E9000BC0
DB000DB0
6F96AF40
06DEC500
ENDCHAR
STARTCHAR nine
ENCODING 57
SWIDTH 493 0
DWIDTH 9 0
BBX 8 13 0 0
BITMAP
007DEB20
05FA7EC0
0CC005F4
0F8000F8
1F7000DA
0EA000EB
09F41AFA
02DFFDE9
001441E7
000003F4
00001BD0
0038DF40
008EA300
ENDCHAR
STARTCHAR colon
ENCODING 58
SWIDTH 233 0
DWIDTH 4 0
BBX 3 10 1 0
BITMAP
8D10
8E20
0000
0000
0000
0000
0000
0000
8D10
8E20
ENDCHAR
STARTCHAR semicolon
ENCODING 59
SWIDTH 202 0
DWIDTH 4 0
BBX 3 13 0 -3
BITMAP
0AB0
0CC0
0000
0000
0000
0000
0000
0000
0BB0
0CC0
0EA0
4F50
5A00
ENDCHAR
STARTCHAR less
ENCODING 60
SWIDTH 445 0
DWIDTH 8 0
BBX 7 8 0 2
BITMAP
00000580
0003CFA0
02AFD500
3FD50000
3FD50000
02AFC500
0003CF90
00000580
ENDCHAR
STARTCHAR equal
ENCODING 61
SWIDTH 479 0
DWIDTH 9 0
BBX 7 6 1 3
BITMAP
BFFFFF70
46666630
00000000
00000000
BFFFFF70
46666630
ENDCHAR
STARTCHAR greater
ENCODING 62
SWIDTH 459 0
DWIDTH 8 0
BBX 7 8 1 2
BITMAP
95000000
AFC40000
05CFB300
0004BF60
0005CF60
05CFB300
BFC40000
95000000
ENDCHAR
STARTCHAR question
ENCODING 63
SWIDTH 421 0
DWIDTH 8 0
BBX 7 13 0 0
BITMAP
02AED700
0CE7AF60
3F600DB0
12100BC0
00001E90
00009F30
0006F700
000EB000
003F6000
00152000
00000000
001C3000
002E5000
ENDCHAR
STARTCHAR at
ENCODING 64
SWIDTH 769 0
DWIDTH 14 0
BBX 12 17 1 -4
BITMAP
0003AEFD8100
004E9435BC10
03E4000009A0
0B80000000D3
3E101BEB3088
7A00BB3C804B
B703F20B702D
D508C00D602E
E40B900E502E
E30C800F303C
E40B903F3079
C608E5BE73E2
8A01CE55ED60
3E1000000000
0AB000000000
01CC52374000
0017CEDA3000
ENDCHAR
STARTCHAR A
ENCODING 65
SWIDTH 576 0
DWIDTH 10 0
BBX 10 13 0 0
BITMAP
0000AF1000
0000EF5000
0004FDA000
0009C7E000
000E82F500
004F30C900
008E008E00
00D9003F40
03FFFFFF90
08F6666BD0
0DB00005F3
2F700001F8
7F300000CD
ENDCHAR
STARTCHAR B
ENCODING 66
SWIDTH 545 0
DWIDTH 10 0
BBX 8 13 1 0
BITMAP
9FFFEB30
9F667EE1
9F0004F6
9F0002F8
9F0003F6
9F002BE1
9FFFFF40
9F556CE3
9F0001FA
9F0000DB
9F0001F9
9F666CF3
9FFFEC40
ENDCHAR
STARTCHAR C
ENCODING 67
SWIDTH 566 0
DWIDTH 10 0
BBX 9 13 1 0
BITMAP
018DFD7000
0BF96AF800
5F6000AF10
AE00005F40
DC00001420
EB00000000
EB00000000
EB00000000
DC00001410
AE00005F40
6F5000AF10
0CE86AF800
019EFD7000
ENDCHAR
STARTCHAR D
ENCODING 68
SWIDTH 570 0
DWIDTH 10 0
BBX 9 13 1 0
BITMAP
9FFFD91000
9F669FD100
9F0003F900
9F0000AE00
9F00007F10
9F00007F20
9F00007F20
9F00007F20
9F00008F10
9F0000BE00
9F0003F900
9F669FD100
9FFFD81000
ENDCHAR
STARTCHAR E
ENCODING 69
SWIDTH 496 0
DWIDTH 9 0
BBX 8 13 1 0
BITMAP
9FFFFFF3
9F666661
9F000000
9F000000
9F000000
9F000000
9FFFFF80
9F666630
9F000000
9F000000
9F000000
9F666661
9FFFFFF4
ENDCHAR
STARTCHAR F
ENCODING 70
SWIDTH 480 0
DWIDTH 9 0
BBX 8 13 1 0
BITMAP
9FFFFFF1
9F666660
9F000000
9F000000
9F000000
9F000000
9FFFFF50
9F666620
9F000000
9F000000
9F000000
9F000000
9F000000
ENDCHAR
STARTCHAR G
ENCODING 71
SWIDTH 590 0
DWIDTH 11 0
BBX 9 13 1 0
BITMAP
029EFD7000
1DF97AF800
7F4000AF10
BD00004E40
DB00000000
EB00000000
EB00000000
EB008FFF60
DC00368F60
BE00003F60
6F60003F60
0BF968DF30
018DFEA300
ENDCHAR
STARTCHAR H
ENCODING 72
SWIDTH 620 0
DWIDTH 11 0
BBX 9 13 1 0
BITMAP
9F00000DB0
9F00000DB0
9F00000DB0
9F00000DB0
9F00000DB0
9F00000DB0
9FFFFFFFB0
9F66666EB0
9F00000DB0
9F00000DB0
9F00000DB0
9F00000DB0
9F00000DB0
ENDCHAR
STARTCHAR I
ENCODING 73
SWIDTH 250 0
DWIDTH 5 0
BBX 3 13 1 0
BITMAP
8F10
8F10
8F10
8F10
8F10
8F10
8F10
8F10
8F10
8F10
8F10
8F10
8F10
ENDCHAR
STARTCHAR J
ENCODING 74
SWIDTH 483 0
DWIDTH 9 0
BBX 8 13 0 0
BITMAP
000003F6
000003F6
000003F6
000003F6
000003F6
000003F6
000003F6
000003F6
000003F6
5B2004F5
5F6007F3
0DE78FB0
02AEEA10
ENDCHAR
STARTCHAR K
ENCODING 75
SWIDTH 544 0
DWIDTH 10 0
BBX 9 13 1 0
BITMAP
9F0001DE20
9F0009F500
9F004F9000
9F01ED1000
9F0AF30000
9F7F700000
9FFFB00000
9FC8F50000
9F20DE1000
9F004F9000
9F000AF300
9F0002EC00
9F00007F70
ENDCHAR
STARTCHAR L
ENCODING 76
SWIDTH 475 0
DWIDTH 9 0
BBX 7 13 1 0
BITMAP
9F000000
9F000000
9F000000
9F000000
9F000000
9F000000
9F000000
9F000000
9F000000
9F000000
9F000000
9F666660
9FFFFFF0
ENDCHAR
STARTCHAR M
ENCODING 77
SWIDTH 755 0
DWIDTH 14 0
BBX 12 13 1 0
BITMAP
9F9000001FF3
9FE000005FF3
9FF40000AFF3
9DE80000ECF3
9DAD0004F8F3
9E5F3009D5F3
9E0E800E85F3
9F0AC03F36F3
9F05F28D06F3
9F00E7D806F3
9F00ADF306F3
9F005FD006F3
9F001E9006F3
ENDCHAR
STARTCHAR N
ENCODING 78
SWIDTH 619 0
DWIDTH 11 0
BBX 9 13 1 0
BITMAP
9F40000DB0
9FB0000DB0
9FF4000DB0
9FBC000DB0
9F3F400DB0
9F0BC00DB0
9F03F50DB0
9F00AC0DB0
9F003F5DB0
9F000ADDB0
9F0002FFB0
9F0000AFB0
9F00002FB0
ENDCHAR
STARTCHAR O
ENCODING 79
SWIDTH 600 0
DWIDTH 11 0
BBX 9 13 1 0
BITMAP
018DFD7000
0CFA8BF900
6F60009F30
AE00002F70
DC00000EA0
EB00000EB0
EB00000EB0
EB00000EA0
DC00000FA0
BE00002F70
6F60009F30
0CF97BF900
018DFD7000
ENDCHAR
STARTCHAR P
ENCODING 80
SWIDTH 554 0
DWIDTH 10 0
BBX 9 13 1 0
BITMAP
9FFFFD7000
9F666BF700
9F0000BE10
9F00006F30
9F00006F40
9F00008F10
9F0005EB00
9FFFFFD200
9F66540000
9F00000000
9F00000000
9F00000000
9F00000000
ENDCHAR
STARTCHAR Q
ENCODING 81
SWIDTH 600 0
DWIDTH 11 0
BBX 9 15 1 -2
BITMAP
019EFD6000
1CFA8BF800
7F5000AF20
CD00003F60
EB00000F90
F900000FA0
F900000FA0
FA00000FA0
EB00001F90
CD00003F60
7F5000AF20
1CF97BF800
019EFEF400
000002CF50
0000001B40
ENDCHAR
STARTCHAR R
ENCODING 82
SWIDTH 530 0
DWIDTH 10 0
BBX 9 13 1 0
BITMAP
9FFFEB4000
9F667DF300
9F0002F900
9F0000DB00
9F0000EA00
9F001AF500
9FFFFF8000
9F66CE1000
9F004F6000
9F000DC000
9F0007F400
9F0001FA00
9F0000AF20
ENDCHAR
STARTCHAR S
ENCODING 83
SWIDTH 518 0
DWIDTH 9 0
BBX 9 13 0 0
BITMAP
004CEE9100
05FC78EC00
0CD0005F50
0DB0001D70
0BE2000000
03EE820000
003BFFA200
000039FD10
0000005F60
3D60001F80
1EB0004F70
06FB67EE20
005CEEA200
ENDCHAR
STARTCHAR T
ENCODING 84
SWIDTH 520 0
DWIDTH 9 0
BBX 9 13 0 0
BITMAP
7FFFFFFFD0
3667FA6650
0002F80000
0002F80000
0002F80000
0002F80000
0002F80000
0002F80000
0002F80000
0002F80000
0002F80000
0002F80000
0002F80000
ENDCHAR
STARTCHAR U
ENCODING 85
SWIDTH 561 0
DWIDTH 10 0
BBX 8 13 1 0
BITMAP
DB00009F
DB00009F
DB00009F
DB00009F
DB00009F
DB00009F
DB00009F
DB00009F
DB00009F
CC0000AE
9F1000DB
3FD77CF4
03BEFC50
ENDCHAR
STARTCHAR V
ENCODING 86
SWIDTH 560 0
DWIDTH 10 0
BBX 10 13 0 0
BITMAP
7F400003F9
3F800007F4
0DC0000BE0
08F1001FA0
04F6004F50
00EA009F10
00AE00DB00
005F32F700
001F76F200
000BBAC000
0006FE8000
0002FF3000
0000CD0000
ENDCHAR
STARTCHAR W
ENCODING 87
SWIDTH 761 0
DWIDTH 14 0
BBX 14 13 0 0
BITMAP
4F5000CB0007F2
1F8001FE000AE0
0DA004FF300CB0
0AD007DD600F80
07F10B9A902F50
05F30E67D05F20
02F63F23F18E00
00E96E00F4AB00
00BB9A00C8D900
008DD7008BF600
005FF3005FF300
002FE0002FF000
000EB0000DC000
ENDCHAR
STARTCHAR X
ENCODING 88
SWIDTH 550 0
DWIDTH 10 0
BBX 10 13 0 0
BITMAP
2FC0000DE1
08F4005F70
01EB00CE10
008F33F700
001E9AE100
0007FF6000
0002FF1000
0008FF7000
001E9AE100
009F23F800
02FA00BE10
09F3004F80
2FB0000CF2
ENDCHAR
STARTCHAR Y
ENCODING 89
SWIDTH 524 0
DWIDTH 9 0
BBX 9 13 0 0
BITMAP
8F40000DE0
1FA0004F70
09F200AE10
03F701F900
00BD07F200
004F5DB000
000DDF4000
0006FC0000
0001F80000
0001F80000
0001F80000
0001F80000
0001F80000
ENDCHAR
STARTCHAR Z
ENCODING 90
SWIDTH 522 0
DWIDTH 9 0
BBX 9 13 0 0
BITMAP
2FFFFFFF60
166666BF40
000001EB00
000009F200
00002F9000
0000AE1000
0004F70000
000CD00000
006F500000
01EC000000
08F3000000
1ED6666640
3FFFFFFFA0
ENDCHAR
STARTCHAR bracketleft
ENCODING 91
SWIDTH 250 0
DWIDTH 5 0
BBX 4 18 1 -3
BITMAP
CFF2
CD51
CC00
CC00
CC00
CC00
CC00
CC00
CC00
CC00
CC00
CC00
CC00
CC00
CC00
CC00
CD51
CFF2
ENDCHAR
STARTCHAR backslash
ENCODING 92
SWIDTH 369 0
DWIDTH 7 0
BBX 7 14 0 -1
BITMAP
6F100000
1F600000
0BB00000
06F10000
02F50000
00CA0000
007E1000
002F5000
000CA000
0008E000
0003F400
0000D900
00008E00
00003F40
ENDCHAR
STARTCHAR bracketright
ENCODING 93
SWIDTH 250 0
DWIDTH 5 0
BBX 4 18 0 -3
BITMAP
BFF3
49F3
05F3
05F3
05F3
05F3
05F3
05F3
05F3
05F3
05F3
05F3
05F3
05F3
05F3
05F3
49F3
BFF3
ENDCHAR
STARTCHAR asciicircum
ENCODING 94
SWIDTH 371 0
DWIDTH 7 0
BBX 6 6 0 7
BITMAP
005F10
00BF60
02FBC0
07D3F2
0D80D8
3F308D
ENDCHAR
STARTCHAR underscore
ENCODING 95
SWIDTH 404 0
DWIDTH 7 0
BBX 8 2 0 -2
BITMAP
CFFFFFF1
45555550
ENDCHAR
STARTCHAR grave
ENCODING 96
SWIDTH 309 0
DWIDTH 6 0
BBX 4 3 0 11
BITMAP
2EC0
06F7
009B
ENDCHAR
STARTCHAR a
ENCODING 97
SWIDTH 479 0
DWIDTH 9 0
BBX 7 10 1 0
BITMAP
06DEC400
6F96CE10
AB004F50
00003F60
06CFFF60
7F835F60
DA003F60
E9004F60
BE88EF60
2BED4F90
ENDCHAR
STARTCHAR b
ENCODING 98
SWIDTH 493 0
DWIDTH 9 0
BBX 8 14 1 0
BITMAP
CB000000
CB000000
CB000000
CB000000
CB8EE800
CFB6AF70
CD000CC0
CB0009F0
CB0008F1
CB0008F1
CB0009F0
CD000DC0
CEB6AF70
C98EE800
ENDCHAR
STARTCHAR c
ENCODING 99
SWIDTH 461 0
DWIDTH 8 0
BBX 8 10 0 0
BITMAP
007DEC40
07F96BF2
0DB001E8
1F700065
2F600000
2F600000
1F700032
0DA000E8
07F96AE2
007DFC40
ENDCHAR
STARTCHAR d
ENCODING 100
SWIDTH 496 0
DWIDTH 9 0
BBX 8 14 0 0
BITMAP
000000DB
000000DB
000000DB
000000DB
009EE7DB
08FA6BFB
0EB001EB
2F7000DB
2F6000DB
2F6000DB
1F7000DB
0DB000EB
07FA6BFB
008EE7BB
ENDCHAR
STARTCHAR e
ENCODING 101
SWIDTH 468 0
DWIDTH 8 0
BBX 8 10 0 0
BITMAP
006DFC40
05F96BF2
0CB001F8
0F7000DA
2FFFFFFB
2F955554
0F800000
0DC00020
06FA67E6
007DFD80
ENDCHAR
STARTCHAR f
ENCODING 102
SWIDTH 316 0
DWIDTH 6 0
BBX 6 14 0 0
BITMAP
002CE7
00CE73
01F800
02F600
6FFFF0
16F840
02F600
02F600
02F600
02F600
02F600
02F600
02F600
02F600
ENDCHAR
STARTCHAR g
ENCODING 103
SWIDTH 492 0
DWIDTH 9 0
BBX 8 14 0 -4
BITMAP
009EE8BB
08FA6BFB
0EB000EB
1F7000DB
2F6000DB
2F6000DB
1F7000DB
0DB000EB
07FA6BFB
008EE8DB
000000DA
012002F8
06E76CF2
007DEC30
ENDCHAR
STARTCHAR h
ENCODING 104
SWIDTH 482 0
DWIDTH 9 0
BBX 7 14 1 0
BITMAP
DB000000
DB000000
DB000000
DB000000
DB8ED700
DFC6CF20
DD102F60
DB000F80
DB000F80
DB000F80
DB000F80
DB000F80
DB000F80
DB000F80
ENDCHAR
STARTCHAR i
ENCODING 105
SWIDTH 229 0
DWIDTH 4 0
BBX 2 14 1 0
BITMAP
79
9C
00
00
BD
BD
BD
BD
BD
BD
BD
BD
BD
BD
ENDCHAR
STARTCHAR j
ENCODING 106
SWIDTH 223 0
DWIDTH 4 0
BBX 4 18 -1 -4
BITMAP
0098
00B9
0000
0000
00CB
00CB
00CB
00CB
00CB
00CB
00CB
00CB
00CB
00CB
00CB
00CB
17F8
2EC2
ENDCHAR
STARTCHAR k
ENCODING 107
SWIDTH 450 0
DWIDTH 8 0
BBX 7 14 1 0
BITMAP
CB000000
CB000000
CB000000
CB000000
CB00AF30
CB05F700
CB1EB000
CBAE1000
CEFB0000
CFCF5000
CC0DD000
CB04F700
CB00BE20
CB002FA0
ENDCHAR
STARTCHAR l
ENCODING 108
SWIDTH 229 0
DWIDTH 4 0
BBX 2 14 1 0
BITMAP
BD
BD
BD
BD
BD
BD
BD
BD
BD
BD
BD
BD
BD
BD
ENDCHAR
STARTCHAR m
ENCODING 109
SWIDTH 752 0
DWIDTH 14 0
BBX 12 10 1 0
BITMAP
CA9EE72BED40
CFA6CFD97DE1
CC003FC005F4
CB000F8003F5
CB000F8003F5
CB000F8003F5
CB000F8003F5
CB000F8003F5
CB000F8003F5
CB000F8003F5
ENDCHAR
STARTCHAR n
ENCODING 110
SWIDTH 483 0
DWIDTH 9 0
BBX 7 10 1 0
BITMAP
DA8ED700
DFC6CF20
DD102F60
DB000F80
DB000F80
DB000F80
DB000F80
DB000F80
DB000F80
DB000F80
ENDCHAR
STARTCHAR o
ENCODING 111
SWIDTH 501 0
DWIDTH 9 0
BBX 9 10 0 0
BITMAP
005DFD5000
04FB6BF500
0CD000CC00
1F80007F10
2F60006F30
2F60005F20
1F80007F10
0CC000BD00
05FB6AF500
005DFD6000
ENDCHAR
STARTCHAR p
ENCODING 112
SWIDTH 493 0
DWIDTH 9 0
BBX 7 14 1 -4
BITMAP
C99EE800
CFA6BF60
CC000DC0
CB0009F0
CB0008F0
CB0008F0
CB0009F0
CC000DC0
CF96AF60
CB9EE800
CB000000
CB000000
CB000000
CB000000
ENDCHAR
STARTCHAR q
ENCODING 113
SWIDTH 500 0
DWIDTH 9 0
BBX 8 14 0 -4
BITMAP
009EE8CA
08FA6BFA
0EB000EA
2F7000DA
2F6000DA
2F6000DA
2F7000DA
0EB000EA
08F96AFA
009EE8DA
000000DA
000000DA
000000DA
000000DA
ENDCHAR
STARTCHAR r
ENCODING 114
SWIDTH 304 0
DWIDTH 5 0
BBX 5 10 1 0
BITMAP
DBAE10
DFD910
DD1000
DB0000
DB0000
DB0000
DB0000
DB0000
DB0000
DB0000
ENDCHAR
STARTCHAR s
ENCODING 115
SWIDTH 455 0
DWIDTH 8 0
BBX 7 10 1 0
BITMAP
08DEB200
7F86EC00
CB006E20
AE300000
2DFA3000
016DF800
1000AF30
F9004F40
AF76CE10
18DEB300
ENDCHAR
STARTCHAR t
ENCODING 116
SWIDTH 295 0
DWIDTH 5 0
BBX 5 12 0 0
BITMAP
05F300
05F300
CFFF90
38F620
05F300
05F300
05F300
05F300
05F300
05F300
03FA40
009E80
ENDCHAR
STARTCHAR u
ENCODING 117
SWIDTH 483 0
DWIDTH 9 0
BBX 7 10 1 0
BITMAP
DA000F80
DA000F80
DA000F80
DA000F80
DA000F80
DA000F80
DB000F80
BD002F80
7F97DF80
09ED6F80
ENDCHAR
STARTCHAR v
ENCODING 118
SWIDTH 427 0
DWIDTH 8 0
BBX 8 10 0 0
BITMAP
7F2007F2
2F500BC0
0D900E80
09D03F40
05F26E00
01F5AA00
00B9E600
007EF200
002FD000
000D8000
ENDCHAR
STARTCHAR w
ENCODING 119
SWIDTH 649 0
DWIDTH 12 0
BBX 12 10 0 0
BITMAP
7F100E8006F2
3F402FC009D0
0E806FF10CA0
0BB0AAF51F60
08E0E6B93F30
04F5F28D6E00
01FCD04FBB00
00CF900EF700
009F600BF400
006F2007F100
ENDCHAR
STARTCHAR x
ENCODING 120
SWIDTH 438 0
DWIDTH 8 0
BBX 8 10 0 0
BITMAP
3F800AF2
0AE12F80
03F69E10
00ADE800
002FE100
003FE100
00BCE900
04F68F20
0BE01F90
4F7009F2
ENDCHAR
STARTCHAR y
ENCODING 121
SWIDTH 416 0
DWIDTH 8 0
BBX 8 14 0 -4
BITMAP
8F2009F1
4F500DB0
0E901F70
0BD05F30
06F19E00
02F5CA00
00DAF500
009FF100
005FC000
001F8000
001F4000
006E0000
17E90000
3EA10000
ENDCHAR
STARTCHAR z
ENCODING 122
SWIDTH 438 0
DWIDTH 8 0
BBX 8 10 0 0
BITMAP
2FFFFFF0
15556FC0
00007F30
0002EA00
000AE200
004F7000
00CD0000
06F40000
1ED55551
3FFFFFF3
ENDCHAR
STARTCHAR braceleft
ENCODING 123
SWIDTH 306 0
DWIDTH 6 0
BBX 5 17 0 -3
BITMAP
0004C0
003F80
009E00
00CB00
00DB00
00DB00
00EA00
06F500
5FB000
29F300
00E900
00DA00
00DB00
00CB00
00AD00
003F70
0004C0
ENDCHAR
STARTCHAR bar
ENCODING 124
SWIDTH 243 0
DWIDTH 4 0
BBX 2 15 1 -2
BITMAP
7D
7D
7D
7D
7D
7D
7D
7D
7D
7D
7D
7D
7D
7D
7D
ENDCHAR
STARTCHAR braceright
ENCODING 125
SWIDTH 306 0
DWIDTH 6 0
BBX 5 17 0 -3
BITMAP
790000
2DA000
06F200
04F400
03F500
03F500
02F600
00DC10
003FD0
00BE50
02F700
03F500
03F500
04F400
06F200
2DA000
791000
ENDCHAR
STARTCHAR asciitilde
ENCODING 126
SWIDTH 589 0
DWIDTH 11 0
BBX 9 4 1 4
BITMAP
0263000220
2EFF800D60
AC18FA9F20
D7006DD500
ENDCHAR
STARTCHAR uni00A0
ENCODING 160
SWIDTH 229 0
DWIDTH 4 0
BBX 1 1 0 0
BITMAP
00
ENDCHAR
STARTCHAR exclamdown
ENCODING 161
SWIDTH 231 0
DWIDTH 4 0
BBX 2 13 1 -3
BITMAP
9C
7A
00
34
9D
9D
9D
9D
AD
AD
AE
AE
AE
ENDCHAR
STARTCHAR cent
ENCODING 162
SWIDTH 479 0
DWIDTH 9 0
BBX 8 15 0 -3
BITMAP
0005F300
0005F300
005DFD50
03FA5AF3
0AD000E9
0E900044
1F800000
1F700000
0E900011
0AD000D9
04F949F3
005DFD50
0005F300
0005F300
00001000
ENDCHAR
STARTCHAR sterling
ENCODING 163
SWIDTH 510 0
DWIDTH 9 0
BBX 9 13 0 0
BITMAP
0007DEB200
007FA7ED00
00EB006F40
01F8002620
01F8000000
01F8000000
2FFFFD0000
16FB650000
00FA000000
00FA000000
01F8000000
19F8666630
2FFFFFFF90
ENDCHAR
STARTCHAR currency
ENCODING 164
SWIDTH 712 0
DWIDTH 13 0
BBX 11 12 1 0
BITMAP
010000000100
AC29DFD82C90
8FFFA8BFFF70
0ED30004ED00
6F4000006F40
9D0000000E80
BB0000000DA0
9D0000000E80
6F4000006F40
1FD30003EE00
AFFFA8AFFFA0
7929DFD81A70
ENDCHAR
STARTCHAR yen
ENCODING 165
SWIDTH 463 0
DWIDTH 8 0
BBX 8 13 0 0
BITMAP
8F4000DD
1FA004F6
09E10AE1
03F61F80
00BC6F10
004FD900
0EFFFFF4
011BE110
000AE000
0EFFFFF4
011BE110
000AE000
000AE000
ENDCHAR
STARTCHAR brokenbar
ENCODING 166
SWIDTH 239 0
DWIDTH 4 0
BBX 2 15 1 -2
BITMAP
BE
BE
BE
BE
BE
BE
BE
00
00
BE
BE
BE
BE
BE
BE
ENDCHAR
STARTCHAR section
ENCODING 167
SWIDTH 537 0
DWIDTH 10 0
BBX 9 17 0 -4
BITMAP
004CEDA200
04FB67ED00
0BD0005F50
0CC0001B50
09F6000000
02EFD82000
0AE7BFF800
1F7002BF60
1F80001EA0
0CE5000EA0
03DFE9AF40
0005BFF800
000003CF20
2B50004F50
1FA0006F40
08FA67EC00
006CED9200
ENDCHAR
STARTCHAR dieresis
ENCODING 168
SWIDTH 417 0
DWIDTH 8 0
BBX 6 2 1 11
BITMAP
B702C4
D903E6
ENDCHAR
STARTCHAR copyright
ENCODING 169
SWIDTH 785 0
DWIDTH 14 0
BBX 14 13 0 0
BITMAP
00006CEEC61000
002CC5225BC200
00C80000007D10
07A01AEEA10A80
0D30BC33C902E0
1E00F4003600D2
3D02F2000000C4
1E00F4003600D2
0D30AC33C902E0
07B01AEEA10980
00C80000007D10
002CB5224BC200
00006CEEC61000
ENDCHAR
STARTCHAR ordfeminine
ENCODING 170
SWIDTH 395 0
DWIDTH 7 0
BBX 5 7 1 6
BITMAP
1AEC20
8E4CA0
2208C0
2CFFC0
AB18C0
AC4CD0
3DEBE0
ENDCHAR
STARTCHAR guillemotleft
ENCODING 171
SWIDTH 417 0
DWIDTH 8 0
BBX 7 7 0 1
BITMAP
004D1C60
01D66D00
08D2E500
1F78E000
08D2E500
01D66D00
004D1C60
ENDCHAR
STARTCHAR logicalnot
ENCODING 172
SWIDTH 487 0
DWIDTH 9 0
BBX 7 4 1 3
BITMAP
DFFFFF50
66669F50
00004F50
00004F50
ENDCHAR
STARTCHAR uni00AD
ENCODING 173
SWIDTH 248 0
DWIDTH 4 0
BBX 5 2 0 4
BITMAP
9FFF10
355500
ENDCHAR
STARTCHAR registered
ENCODING 174
SWIDTH 786 0
DWIDTH 14 0
BBX 14 13 0 0
BITMAP
00006CEEC61000
002CB5225BC200
00C80000007D10
07A08FFEA10A80
0D308B22B902E0
1E008B01B900D2
3C008FFFE200C4
1E008C23C800D2
0D308B008B02E0
07A08B007C0A80
00C80000007D10
002CB5224BC200
00006CEEC61000
ENDCHAR
STARTCHAR macron
ENCODING 175
SWIDTH 414 0
DWIDTH 7 0
BBX 6 2 1 11
BITMAP
CFFFF5
344441
ENDCHAR
STARTCHAR degree
ENCODING 176
SWIDTH 373 0
DWIDTH 7 0
BBX 5 5 1 8
BITMAP
2CEA00
B92B70
B71A70
3EFC10
001000
ENDCHAR
STARTCHAR plusminus
ENCODING 177
SWIDTH 469 0
DWIDTH 8 0
BBX 8 12 0 0
BITMAP
0003A100
0005F100
0005F100
0005F100
1FFFFFFA
0558F653
0005F100
0005F100
0005F100
00025000
04555552
0CFFFFF5
ENDCHAR
STARTCHAR uni00B2
ENCODING 178
SWIDTH 329 0
DWIDTH 6 0
BBX 6 7 0 6
BITMAP
07ED50
3F58E0
1406E0
001D80
01CA00
0BC220
3FFFF4
ENDCHAR
STARTCHAR uni00B3
ENCODING 179
SWIDTH 329 0
DWIDTH 6 0
BBX 6 7 0 6
BITMAP
08ED50
3E58E0
0007E0
00DF60
0006F1
4F48F1
09ED60
ENDCHAR
STARTCHAR acute
ENCODING 180
SWIDTH 313 0
DWIDTH 6 0
BBX 4 3 1 11
BITMAP
08F5
4F90
8B00
ENDCHAR
STARTCHAR mu
ENCODING 181
SWIDTH 498 0
DWIDTH 9 0
BBX 7 14 1 -4
BITMAP
BD000DA0
BD000DA0
BD000DA0
BD000DA0
BD000DA0
BD000DA0
BD000DA0
BF100EA0
BFA5BFA0
BECF9BA0
BD000000
BD000000
BD000000
BD000000
ENDCHAR
STARTCHAR paragraph
ENCODING 182
SWIDTH 434 0
DWIDTH 8 0
BBX 7 13 0 0
BITMAP
005BCC50
07FFFF60
1EFFFF60
4FFFFF60
5FFFFF60
3FFFFF60
0DFFFF60
03EFFF60
00158F60
00002F60
00002F60
00002F60
00002F60
ENDCHAR
STARTCHAR periodcentered
ENCODING 183
SWIDTH 243 0
DWIDTH 4 0
BBX 2 2 1 5
BITMAP
9D
8C
ENDCHAR
STARTCHAR cedilla
ENCODING 184
SWIDTH 229 0
DWIDTH 4 0
BBX 3 4 1 -4
BITMAP
C500
5C20
1E50
DA10
ENDCHAR
STARTCHAR uni00B9
ENCODING 185
SWIDTH 329 0
DWIDTH 6 0
BBX 3 7 1 6
BITMAP
28C0
DDE0
06E0
06E0
06E0
06E0
06E0
ENDCHAR
STARTCHAR ordmasculine
ENCODING 186
SWIDTH 402 0
DWIDTH 7 0
BBX 6 7 1 6
BITMAP
1AEC20
9D5BC0
D704F2
F602F3
D704F2
9D4BC0
1AEC20
ENDCHAR
STARTCHAR guillemotright
ENCODING 187
SWIDTH 417 0
DWIDTH 8 0
BBX 6 7 1 1
BITMAP
D53E10
5E1AA0
0C92F4
06F2BC
0C92F4
5E1AA0
D53E10
ENDCHAR
STARTCHAR onequarter
ENCODING 188
SWIDTH 637 0
DWIDTH 11 0
BBX 11 13 0 0
BITMAP
04A800000000
4DE900057000
00B9000C5000
00B9005C0000
00B900C50000
00B905C00000
00B90D509F00
00005C04FF00
0000D41D9F00
0005C0894F00
000D40FFFFC0
002A00226F20
000000004F00
ENDCHAR
STARTCHAR onehalf
ENCODING 189
SWIDTH 677 0
DWIDTH 12 0
BBX 12 13 0 0
BITMAP
04A800000000
4DE800093000
00B8002E1000
00B800A70000
00B803E10000
00B80A700000
00B83E18ED50
0000A73F59E0
0003E12406E0
000A70002E70
003E1001CA00
0057000BC220
0000004FFFF4
ENDCHAR
STARTCHAR threequarters
ENCODING 190
SWIDTH 673 0
DWIDTH 12 0
BBX 11 13 1 0
BITMAP
5DEA10000000
973F50066000
037E300D3000
05BD207B0000
000D71E30000
E93F67B00000
5DE91E31EA00
00007A0AFA00
0001E34DBA00
0007A1D3AA00
001E36FFFF60
00390122BA10
00000000AA00
ENDCHAR
STARTCHAR questiondown
ENCODING 191
SWIDTH 421 0
DWIDTH 8 0
BBX 7 13 0 -3
BITMAP
000D7000
000B6000
00000000
00043000
001F8000
006F4000
02EB0000
0BE10000
3F600000
5F300000
4F500DB0
1DD7AF60
03BED700
ENDCHAR
STARTCHAR Agrave
ENCODING 192
SWIDTH 576 0
DWIDTH 10 0
BBX 10 17 0 0
BITMAP
003EC00000
0006F70000
00009B0000
0000000000
0000AF1000
0000EF5000
0004FDA000
0009C7E000
000E82F500
004F30C900
008E008E00
00D9003F40
03FFFFFF90
08F6666BD0
0DB00005F3
2F700001F8
7F300000CD
ENDCHAR
STARTCHAR Aacute
ENCODING 193
SWIDTH 576 0
DWIDTH 10 0
BBX 10 17 0 0
BITMAP
000005F900
00001EC000
00005D2000
0000000000
0000AF1000
0000EF5000
0004FDA000
0009C7E000
000E82F500
004F30C900
008E008E00
00D9003F40
03FFFFFF90
08F6666BD0
0DB00005F3
2F700001F8
7F300000CD
ENDCHAR
STARTCHAR Acircumflex
ENCODING 194
SWIDTH 576 0
DWIDTH 10 0
BBX 10 17 0 0
BITMAP
00009E2000
0006EAC000
000B71C400
0000000000
0000AF1000
0000EF5000
0004FDA000
0009C7E000
000E82F500
004F30C900
008E008E00
00D9003F40
03FFFFFF90
08F6666BD0
0DB00005F3
2F700001F8
7F300000CD
ENDCHAR
STARTCHAR Atilde
ENCODING 195
SWIDTH 576 0
DWIDTH 10 0
BBX 10 17 0 0
BITMAP
0001201400
001EF88B00
005B1BE400
0000000000
0000AF1000
0000EF5000
0004FDA000
0009C7E000
000E82F500
004F30C900
008E008E00
00D9003F40
03FFFFFF90
08F6666BD0
0DB00005F3
2F700001F8
7F300000CD
ENDCHAR
STARTCHAR Adieresis
ENCODING 196
SWIDTH 576 0
DWIDTH 10 0
BBX 10 16 0 0
BITMAP
005C207A00
006E209D00
0000000000
0000AF1000
0000EF5000
0004FDA000
0009C7E000
000E82F500
004F30C900
008E008E00
00D9003F40
03FFFFFF90
08F6666BD0
0DB00005F3
2F700001F8
7F300000CD
ENDCHAR
STARTCHAR Aring
ENCODING 197
SWIDTH 576 0
DWIDTH 10 0
BBX 10 18 0 0
BITMAP
0002CC6000
000950D000
000950D100
0002CC6000
0000000000
0000AF1000
0000EF5000
0004FDA000
0009C7E000
000E82F500
004F30C900
008E008E00
00D9003F40
03FFFFFF90
08F6666BD0
0DB00005F3
2F700001F8
7F300000CD
ENDCHAR
STARTCHAR AE
ENCODING 198
SWIDTH 812 0
DWIDTH 15 0
BBX 15 13 0 0
BITMAP
000000BFFFFFFB00
000004FFC5555400
00000BCDA0000000
00004F4DB0000000
0000BC0CB0000000
0004F50BC0000000
000BC00BFFFFF200
004F500AE5555100
00BFFFFFD0000000
04FA888CE0000000
0BE00009F0000000
4F800008F5555510
BF200008FFFFFF30
ENDCHAR
STARTCHAR Ccedilla
ENCODING 199
SWIDTH 566 0
DWIDTH 10 0
BBX 9 17 1 -4
BITMAP
018DFD7000
0BF96AF800
5F6000AF10
AE00005F40
DC00001420
EB00000000
EB00000000
EB00000000
DC00001410
AE00005F40
6F5000AF10
0CE86AF800
019EFD7000
0006B00000
0002B60000
00009B0000
0007D40000
ENDCHAR
STARTCHAR Egrave
ENCODING 200
SWIDTH 496 0
DWIDTH 9 0
BBX 8 17 1 0
BITMAP
09F50000
01CE1000
002D5000
00000000
9FFFFFF3
9F666661
9F000000
9F000000
9F000000
9F000000
9FFFFF80
9F666630
9F000000
9F000000
9F000000
9F666661
9FFFFFF4
ENDCHAR
STARTCHAR Eacute
ENCODING 201
SWIDTH 496 0
DWIDTH 9 0
BBX 8 17 1 0
BITMAP
0000CE30
0007F500
000B8000
00000000
9FFFFFF3
9F666661
9F000000
9F000000
9F000000
9F000000
9FFFFF80
9F666630
9F000000
9F000000
9F000000
9F666661
9FFFFFF4
ENDCHAR
STARTCHAR Ecircumflex
ENCODING 202
SWIDTH 496 0
DWIDTH 9 0
BBX 8 17 1 0
BITMAP
002E9000
01CAE500
04C17A00
00000000
9FFFFFF3
9F666661
9F000000
9F000000
9F000000
9F000000
9FFFFF80
9F666630
9F000000
9F000000
9F000000
9F666661
9FFFFFF4
ENDCHAR
STARTCHAR Edieresis
ENCODING 203
SWIDTH 496 0
DWIDTH 9 0
BBX 8 16 1 0
BITMAP
0B801C50
0D902E60
00000000
9FFFFFF3
9F666661
9F000000
9F000000
9F000000
9F000000
9FFFFF80
9F666630
9F000000
9F000000
9F000000
9F666661
9FFFFFF4
ENDCHAR
STARTCHAR Igrave
ENCODING 204
SWIDTH 250 0
DWIDTH 5 0
BBX 5 17 -1 0
BITMAP
2EC000
05F800
009B00
000000
008F10
008F10
008F10
008F10
008F10
008F10
008F10
008F10
008F10
008F10
008F10
008F10
008F10
ENDCHAR
STARTCHAR Iacute
ENCODING 205
SWIDTH 250 0
DWIDTH 5 0
BBX 4 17 1 0
BITMAP
04F9
1EC0
5D20
0000
8F10
8F10
8F10
8F10
8F10
8F10
8F10
8F10
8F10
8F10
8F10
8F10
8F10
ENDCHAR
STARTCHAR Icircumflex
ENCODING 206
SWIDTH 250 0
DWIDTH 5 0
BBX 5 17 0 0
BITMAP
09E200
5EAC10
A71C40
000000
08F100
08F100
08F100
08F100
08F100
08F100
08F100
08F100
08F100
08F100
08F100
08F100
08F100
ENDCHAR
STARTCHAR Idieresis
ENCODING 207
SWIDTH 250 0
DWIDTH 5 0
BBX 6 16 -1 0
BITMAP
5C207B
6E309D
000000
008F10
008F10
008F10
008F10
008F10
008F10
008F10
008F10
008F10
008F10
008F10
008F10
008F10
ENDCHAR
STARTCHAR Eth
ENCODING 208
SWIDTH 585 0
DWIDTH 11 0
BBX 10 13 0 0
BITMAP
05FFFEA300
05F868DE30
05F4001DC0
05F40006F3
05F40003F5
05F40003F6
DFFFE003F6
49F75003F6
05F40004F5
05F40007F3
05F4001DC0
05F868EE30
05FFFEA300
ENDCHAR
STARTCHAR Ntilde
ENCODING 209
SWIDTH 619 0
DWIDTH 11 0
BBX 9 17 1 0
BITMAP
0003005100
00AFB5F100
01E27E8000
0000000000
9F40000DB0
9FB0000DB0
9FF4000DB0
9FBC000DB0
9F3F400DB0
9F0BC00DB0
9F03F50DB0
9F00AC0DB0
9F003F5DB0
9F000ADDB0
9F0002FFB0
9F0000AFB0
9F00002FB0
ENDCHAR
STARTCHAR Ograve
ENCODING 210
SWIDTH 600 0
DWIDTH 11 0
BBX 9 17 1 0
BITMAP
01DE100000
003FA00000
0006C20000
0000000000
018DFD7000
0CFA8BF900
6F60009F30
AE00002F70
DC00000EA0
EB00000EB0
EB00000EB0
EB00000EA0
DC00000FA0
BE00002F70
6F60009F30
0CF97BF900
018DFD7000
ENDCHAR
STARTCHAR Oacute
ENCODING 211
SWIDTH 600 0
DWIDTH 11 0
BBX 9 17 1 0
BITMAP
00002EC000
0000CE2000
0003D40000
0000000000
018DFD7000
0CFA8BF900
6F60009F30
AE00002F70
DC00000EA0
EB00000EB0
EB00000EB0
EB00000EA0
DC00000FA0
BE00002F70
6F60009F30
0CF97BF900
018DFD7000
ENDCHAR
STARTCHAR Ocircumflex
ENCODING 212
SWIDTH 600 0
DWIDTH 11 0
BBX 9 17 1 0
BITMAP
0006F40000
003F9E2000
008A0B6000
0000000000
018DFD7000
0CFA8BF900
6F60009F30
AE00002F70
DC00000EA0
EB00000EB0
EB00000EB0
EB00000EA0
DC00000FA0
BE00002F70
6F60009F30
0CF97BF900
018DFD7000
ENDCHAR
STARTCHAR Otilde
ENCODING 213
SWIDTH 600 0
DWIDTH 11 0
BBX 9 17 1 0
BITMAP
0013005000
00CFA6E000
02E19E6000
0000000000
018DFD7000
0CFA8BF900
6F60009F30
AE00002F70
DC00000EA0
EB00000EB0
EB00000EB0
EB00000EA0
DC00000FA0
BE00002F70
6F60009F30
0CF97BF900
018DFD7000
ENDCHAR
STARTCHAR Odieresis
ENCODING 214
SWIDTH 600 0
DWIDTH 11 0
BBX 9 16 1 0
BITMAP
02C405C100
03E506E200
0000000000
018DFD7000
0CFA8BF900
6F60009F30
AE00002F70
DC00000EA0
EB00000EB0
EB00000EB0
EB00000EA0
DC00000FA0
BE00002F70
6F60009F30
0CF97BF900
018DFD7000
ENDCHAR
STARTCHAR multiply
ENCODING 215
SWIDTH 470 0
DWIDTH 8 0
BBX 8 8 0 2
BITMAP
094001B2
1CE20AF3
02EC8F50
003FF800
003EF800
02DC8F50
0CE20AF3
094001B2
ENDCHAR
STARTCHAR Oslash
ENCODING 216
SWIDTH 600 0
DWIDTH 11 0
BBX 9 15 1 -1
BITMAP
0000000250
007DFC5A70
09FA8CFE10
3F8000DE10
9F1004EF60
CC000C6E90
EA005C0DB0
F900C50CC0
EA06C00DB0
DC0D400EA0
9F7B003F70
4FF300AF20
0BFA7BF700
1E8DFD6000
4700000000
ENDCHAR
STARTCHAR Ugrave
ENCODING 217
SWIDTH 561 0
DWIDTH 10 0
BBX 8 17 1 0
BITMAP
05F90000
008F5000
000B9000
00000000
DB00009F
DB00009F
DB00009F
DB00009F
DB00009F
DB00009F
DB00009F
DB00009F
DB00009F
CC0000AE
9F1000DB
3FD77CF4
03BEFC50
ENDCHAR
STARTCHAR Uacute
ENCODING 218
SWIDTH 561 0
DWIDTH 10 0
BBX 8 17 1 0
BITMAP
00007F70
0003FA00
0007C100
00000000
DB00009F
DB00009F
DB00009F
DB00009F
DB00009F
DB00009F
DB00009F
DB00009F
DB00009F
CC0000AE
9F1000DB
3FD77CF4
03BEFC50
ENDCHAR
STARTCHAR Ucircumflex
ENCODING 219
SWIDTH 561 0
DWIDTH 10 0
BBX 8 17 1 0
BITMAP
000CD100
009DCA00
01C43C20
00000000
DB00009F
DB00009F
DB00009F
DB00009F
DB00009F
DB00009F
DB00009F
DB00009F
DB00009F
CC0000AE
9F1000DB
3FD77CF4
03BEFC50
ENDCHAR
STARTCHAR Udieresis
ENCODING 220
SWIDTH 561 0
DWIDTH 10 0
BBX 8 16 1 0
BITMAP
07B00990
08D10BB0
00000000
DB00009F
DB00009F
DB00009F
DB00009F
DB00009F
DB00009F
DB00009F
DB00009F
DB00009F
CC0000AE
9F1000DB
3FD77CF4
03BEFC50
ENDCHAR
STARTCHAR Yacute
ENCODING 221
SWIDTH 524 0
DWIDTH 9 0
BBX 9 17 0 0
BITMAP
00000CE300
00007F5000
0000B80000
0000000000
8F40000DE0
1FA0004F70
09F200AE10
03F701F900
00BD07F200
004F5DB000
000DDF4000
0006FC0000
0001F80000
0001F80000
0001F80000
0001F80000
0001F80000
ENDCHAR
STARTCHAR Thorn
ENCODING 222
SWIDTH 515 0
DWIDTH 9 0
BBX 8 13 1 0
BITMAP
AE000000
AE000000
AE000000
AFFFD910
AE557EC0
AE0006F4
AE0002F7
AE0003F5
AE002CE1
AFFFFE40
AE553100
AE000000
AE000000
ENDCHAR
STARTCHAR germandbls
ENCODING 223
SWIDTH 521 0
DWIDTH 9 0
BBX 8 14 1 0
BITMAP
06EEA100
4FA6EA00
AE008E00
CB007F00
CB00CB00
CB04F500
CB07F200
CB04F700
CB00BF50
CB001BF2
CB0002F8
CB0000F8
CB3A6AF4
CB3CED70
ENDCHAR
STARTCHAR agrave
ENCODING 224
SWIDTH 479 0
DWIDTH 9 0
BBX 7 14 1 0
BITMAP
1DE20000
03EB0000
006C2000
00000000
06DEC400
6F96CE10
AB004F50
00003F60
06CFFF60
7F835F60
DA003F60
E9004F60
BE88EF60
2BED4F90
ENDCHAR
STARTCHAR aacute
ENCODING 225
SWIDTH 479 0
DWIDTH 9 0
BBX 7 14 1 0
BITMAP
0002EC10
000BE200
002D4000
00000000
06DEC400
6F96CE10
AB004F50
00003F60
06CFFF60
7F835F60
DA003F60
E9004F60
BE88EF60
2BED4F90
ENDCHAR
STARTCHAR acircumflex
ENCODING 226
SWIDTH 479 0
DWIDTH 9 0
BBX 7 14 1 0
BITMAP
006F5000
03E9E200
07A0B700
00000000
06DEC400
6F96CE10
AB004F50
00003F60
06CFFF60
7F835F60
DA003F60
E9004F60
BE88EF60
2BED4F90
ENDCHAR
STARTCHAR atilde
ENCODING 227
SWIDTH 479 0
DWIDTH 9 0
BBX 7 14 1 0
BITMAP
00300500
0BFA5F00
2E18E700
00000000
06DEC400
6F96CE10
AB004F50
00003F60
06CFFF60
7F835F60
DA003F60
E9004F60
BE88EF60
2BED4F90
ENDCHAR
STARTCHAR adieresis
ENCODING 228
SWIDTH 479 0
DWIDTH 9 0
BBX 7 13 1 0
BITMAP
2C404C20
3E506E30
00000000
06DEC400
6F96CE10
AB004F50
00003F60
06CFFF60
7F835F60
DA003F60
E9004F60
BE88EF60
2BED4F90
ENDCHAR
STARTCHAR aring
ENCODING 229
SWIDTH 479 0
DWIDTH 9 0
BBX 7 15 1 0
BITMAP
00AC9000
0590A400
0590A400
00AC9000
00000000
06DEC400
6F96CE10
AB004F50
00003F60
06CFFF60
7F835F60
DA003F60
E9004F60
BE88EF60
2BED4F90
ENDCHAR
STARTCHAR ae
ENCODING 230
SWIDTH 728 0
DWIDTH 13 0
BBX 13 10 0 0
BITMAP
019DEA17EEA100
0AF87EDF86EB00
0D9008F9005F30
000006F4002F50
02ADEFFFFFFF60
0CE648F6444420
3F6006F5000000
3F5007FA000100
1ED59FBFA58E20
04DFC606DFD700
ENDCHAR
STARTCHAR ccedilla
ENCODING 231
SWIDTH 461 0
DWIDTH 8 0
BBX 8 14 0 -4
BITMAP
007DEC40
07F96BF2
0DB001E8
1F700065
2F600000
2F600000
1F700032
0DA000E8
07F96AE2
007DFC40
00089000
0003B500
0000A900
0009C300
ENDCHAR
STARTCHAR egrave
ENCODING 232
SWIDTH 468 0
DWIDTH 8 0
BBX 8 14 0 0
BITMAP
01ED1000
004F9000
0008C100
00000000
006DFC40
05F96BF2
0CB001F8
0F7000DA
2FFFFFFB
2F955554
0F800000
0DC00020
06FA67E6
007DFD80
ENDCHAR
STARTCHAR eacute
ENCODING 233
SWIDTH 468 0
DWIDTH 8 0
BBX 8 14 0 0
BITMAP
00003FB0
0001DD10
0004D300
00000000
006DFC40
05F96BF2
0CB001F8
0F7000DA
2FFFFFFB
2F955554
0F800000
0DC00020
06FA67E6
007DFD80
ENDCHAR
STARTCHAR ecircumflex
ENCODING 234
SWIDTH 468 0
DWIDTH 8 0
BBX 8 14 0 0
BITMAP
0008F300
004FAD10
00990C50
00000000
006DFC40
05F96BF2
0CB001F8
0F7000DA
2FFFFFFB
2F955554
0F800000
0DC00020
06FA67E6
007DFD80
ENDCHAR
STARTCHAR edieresis
ENCODING 235
SWIDTH 468 0
DWIDTH 8 0
BBX 8 13 0 0
BITMAP
03C306B1
04E407D1
00000000
006DFC40
05F96BF2
0CB001F8
0F7000DA
2FFFFFFB
2F955554
0F800000
0DC00020
06FA67E6
007DFD80
ENDCHAR
STARTCHAR igrave
ENCODING 236
SWIDTH 234 0
DWIDTH 4 0
BBX 4 14 -1 0
BITMAP
4FA0
07F5
00BA
0000
00BD
00BD
00BD
00BD
00BD
00BD
00BD
00BD
00BD
00BD
ENDCHAR
STARTCHAR iacute
ENCODING 237
SWIDTH 234 0
DWIDTH 4 0
BBX 4 14 1 0
BITMAP
07F7
2EA0
7C10
0000
BD00
BD00
BD00
BD00
BD00
BD00
BD00
BD00
BD00
BD00
ENDCHAR
STARTCHAR icircumflex
ENCODING 238
SWIDTH 234 0
DWIDTH 4 0
BBX 6 14 -1 0
BITMAP
00BD10
08DBB0
1C52D3
000000
00BD00
00BD00
00BD00
00BD00
00BD00
00BD00
00BD00
00BD00
00BD00
00BD00
ENDCHAR
STARTCHAR idieresis
ENCODING 239
SWIDTH 234 0
DWIDTH 4 0
BBX 6 13 -1 0
BITMAP
6C1099
8E10BB
000000
00BD00
00BD00
00BD00
00BD00
00BD00
00BD00
00BD00
00BD00
00BD00
00BD00
ENDCHAR
STARTCHAR eth
ENCODING 240
SWIDTH 513 0
DWIDTH 9 0
BBX 8 14 1 0
BITMAP
0A920300
09FE8E30
003EF600
01BBDD00
00604F60
04CE9EB0
2FD68FE0
9F1009F1
DB0007F2
E90007F1
DB0009E0
9E101EA0
2EC6BF30
03CEC400
ENDCHAR
STARTCHAR ntilde
ENCODING 241
SWIDTH 483 0
DWIDTH 9 0
BBX 7 14 1 0
BITMAP
01300500
0CFA6E00
3D19E600
00000000
DA8ED700
DFC6CF20
DD102F60
DB000F80
DB000F80
DB000F80
DB000F80
DB000F80
DB000F80
DB000F80
ENDCHAR
STARTCHAR ograve
ENCODING 242
SWIDTH 501 0
DWIDTH 9 0
BBX 9 14 0 0
BITMAP
01DE100000
003FA00000
0006C20000
0000000000
005DFD5000
04FB6BF500
0CD000CC00
1F80007F10
2F60006F30
2F60005F20
1F80007F10
0CC000BD00
05FB6AF500
005DFD6000
ENDCHAR
STARTCHAR oacute
ENCODING 243
SWIDTH 501 0
DWIDTH 9 0
BBX 9 14 0 0
BITMAP
00002EC000
0000CE2000
0003D40000
0000000000
005DFD5000
04FB6BF500
0CD000CC00
1F80007F10
2F60006F30
2F60005F20
1F80007F10
0CC000BD00
05FB6AF500
005DFD6000
ENDCHAR
STARTCHAR ocircumflex
ENCODING 244
SWIDTH 501 0
DWIDTH 9 0
BBX 9 14 0 0
BITMAP
0006F40000
003F9E2000
008A0B6000
0000000000
005DFD5000
04FB6BF500
0CD000CC00
1F80007F10
2F60006F30
2F60005F20
1F80007F10
0CC000BD00
05FB6AF500
005DFD6000
ENDCHAR
STARTCHAR otilde
ENCODING 245
SWIDTH 501 0
DWIDTH 9 0
BBX 9 14 0 0
BITMAP
0013005000
00CFA6E000
02E19E6000
0000000000
005DFD5000
04FB6BF500
0CD000CC00
1F80007F10
2F60006F30
2F60005F20
1F80007F10
0CC000BD00
05FB6AF500
005DFD6000
ENDCHAR
STARTCHAR odieresis
ENCODING 246
SWIDTH 501 0
DWIDTH 9 0
BBX 9 13 0 0
BITMAP
02C405C100
03E506E200
0000000000
005DFD5000
04FB6BF500
0CD000CC00
1F80007F10
2F60006F30
2F60005F20
1F80007F10
0CC000BD00
05FB6AF500
005DFD6000
ENDCHAR
STARTCHAR divide
ENCODING 247
SWIDTH 500 0
DWIDTH 9 0
BBX 9 10 0 1
BITMAP
0003A10000
0006F40000
0000200000
0000000000
5FFFFFFF10
3999999910
0000000000
0002810000
0006F40000
0001500000
ENDCHAR
STARTCHAR oslash
ENCODING 248
SWIDTH 498 0
DWIDTH 9 0
BBX 9 12 0 -1
BITMAP
000000A400
004CFCD000
03FB6CF400
0AD10DEB00
0E905A8F10
1F70B46F20
2F72D06F20
0F98708F10
0BDD10DC00
03FD6BF400
00CDFC5000
03C0000000
ENDCHAR
STARTCHAR ugrave
ENCODING 249
SWIDTH 483 0
DWIDTH 9 0
BBX 7 14 1 0
BITMAP
1ED10000
04F90000
008C1000
00000000
DA000F80
DA000F80
DA000F80
DA000F80
DA000F80
DA000F80
DB000F80
BD002F80
7F97DF80
09ED6F80
ENDCHAR
STARTCHAR uacute
ENCODING 250
SWIDTH 483 0
DWIDTH 9 0
BBX 7 14 1 0
BITMAP
0003FB00
001DD100
004D3000
00000000
DA000F80
DA000F80
DA000F80
DA000F80
DA000F80
DA000F80
DB000F80
BD002F80
7F97DF80
09ED6F80
ENDCHAR
STARTCHAR ucircumflex
ENCODING 251
SWIDTH 483 0
DWIDTH 9 0
BBX 7 14 1 0
BITMAP
008F3000
04FAD100
0990C500
00000000
DA000F80
DA000F80
DA000F80
DA000F80
DA000F80
DA000F80
DB000F80
BD002F80
7F97DF80
09ED6F80
ENDCHAR
STARTCHAR udieresis
ENCODING 252
SWIDTH 483 0
DWIDTH 9 0
BBX 7 13 1 0
BITMAP
3C306B10
4E407D10
00000000
DA000F80
DA000F80
DA000F80
DA000F80
DA000F80
DA000F80
DB000F80
BD002F80
7F97DF80
09ED6F80
ENDCHAR
STARTCHAR yacute
ENCODING 253
SWIDTH 416 0
DWIDTH 8 0
BBX 8 18 0 -4
BITMAP
00009F50
0005F800
0009A000
00000000
8F2009F1
4F500DB0
0E901F70
0BD05F30
06F19E00
02F5CA00
00DAF500
009FF100
005FC000
001F8000
001F4000
006E0000
17E90000
3EA10000
ENDCHAR
STARTCHAR thorn
ENCODING 254
SWIDTH 508 0
DWIDTH 9 0
BBX 8 18 1 -4
BITMAP
BC000000
BC000000
BC000000
BC000000
BC8EE700
BFB6CF50
BD001EC0
BC0009F0
BC0007F1
BC0007F1
BC0009E0
BD000EB0
BFA6BF50
BC8EE700
BC000000
BC000000
BC000000
BC000000
ENDCHAR
STARTCHAR ydieresis
ENCODING 255
SWIDTH 416 0
DWIDTH 8 0
BBX 8 17 0 -4
BITMAP
09A00B70
0BC01D80
00000000
8F2009F1
4F500DB0
0E901F70
0BD05F30
06F19E00
02F5CA00
00DAF500
009FF100
005FC000
001F8000
001F4000
006E0000
17E90000
3EA10000
ENDCHAR
STARTCHAR Amacron
ENCODING 256
SWIDTH 576 0
DWIDTH 10 0
BBX 10 17 0 0
BITMAP
0014444300
004FFFFC00
0000000000
0000000000
0000AF1000
0000EF5000
0004FDA000
0009C7E000
000E82F500
004F30C900
008E008E00
00D9003F40
03FFFFFF90
08F6666BD0
0DB00005F3
2F700001F8
7F300000CD
ENDCHAR
STARTCHAR amacron
ENCODING 257
SWIDTH 479 0
DWIDTH 9 0
BBX 7 14 1 0
BITMAP
04444400
1FFFFF10
00000000
00000000
06DEC400
6F96CE10
AB004F50
00003F60
06CFFF60
7F835F60
DA003F60
E9004F60
BE88EF60
2BED4F90
ENDCHAR
STARTCHAR Abreve
ENCODING 258
SWIDTH 576 0
DWIDTH 10 0
BBX 10 17 0 0
BITMAP
0001000100
004F41BB00
0007EEB200
0000000000
0000AF1000
0000EF5000
0004FDA000
0009C7E000
000E82F500
004F30C900
008E008E00
00D9003F40
03FFFFFF90
08F6666BD0
0DB00005F3
2F700001F8
7F300000CD
ENDCHAR
STARTCHAR abreve
ENCODING 259
SWIDTH 479 0
DWIDTH 9 0
BBX 7 14 1 0
BITMAP
01000100
1F717E00
05DFC400
00000000
06DEC400
6F96CE10
AB004F50
00003F60
06CFFF60
7F835F60
DA003F60
E9004F60
BE88EF60
2BED4F90
ENDCHAR
STARTCHAR Aogonek
ENCODING 260
SWIDTH 576 0
DWIDTH 10 0
BBX 10 17 0 -4
BITMAP
0000AF1000
0000EF5000
0004FDA000
0009C7E000
000E82F500
004F30C900
008E008E00
00D9003F40
03FFFFFF90
08F6666BD0
0DB00005F3
2F700001F8
7F300000CD
00000003E4
0000000B90
0000000DA4
00000007EA
ENDCHAR
STARTCHAR aogonek
ENCODING 261
SWIDTH 479 0
DWIDTH 9 0
BBX 7 14 1 -4
BITMAP
06DEC400
6F96CE10
AB004F50
00003F60
06CFFF60
7F835F60
DA003F60
E9004F60
BE88EF60
2BED4F90
00007D10
0001F400
0002F720
0000BE50
ENDCHAR
STARTCHAR Cacute
ENCODING 262
SWIDTH 566 0
DWIDTH 10 0
BBX 9 17 1 0
BITMAP
00005F9000
0001EC0000
0005D10000
0000000000
018DFD7000
0BF96AF800
5F6000AF10
AE00005F40
DC00001420
EB00000000
EB00000000
EB00000000
DC00001410
AE00005F40
6F5000AF10
0CE86AF800
019EFD7000
ENDCHAR
STARTCHAR cacute
ENCODING 263
SWIDTH 461 0
DWIDTH 8 0
BBX 8 14 0 0
BITMAP
00007F70
0003FA00
0007C100
00000000
007DEC40
07F96BF2
0DB001E8
1F700065
2F600000
2F600000
1F700032
0DA000E8
07F96AE2
007DFC40
ENDCHAR
STARTCHAR Ccircumflex
ENCODING 264
SWIDTH 566 0
DWIDTH 10 0
BBX 9 17 1 0
BITMAP
000AE20000
006EAC0000
00B61D4000
0000000000
018DFD7000
0BF96AF800
5F6000AF10
AE00005F40
DC00001420
EB00000000
EB00000000
EB00000000
DC00001410
AE00005F40
6F5000AF10
0CE86AF800
019EFD7000
ENDCHAR
STARTCHAR ccircumflex
ENCODING 265
SWIDTH 461 0
DWIDTH 8 0
BBX 8 14 0 0
BITMAP
000BD100
008DBA00
01C53D20
00000000
007DEC40
07F96BF2
0DB001E8
1F700065
2F600000
2F600000
1F700032
0DA000E8
07F96AE2
007DFC40
ENDCHAR
STARTCHAR Cdotaccent
ENCODING 266
SWIDTH 566 0
DWIDTH 10 0
BBX 9 16 1 0
BITMAP
0007B00000
0008E10000
0000000000
018DFD7000
0BF96AF800
5F6000AF10
AE00005F40
DC00001420
EB00000000
EB00000000
EB00000000
DC00001410
AE00005F40
6F5000AF10
0CE86AF800
019EFD7000
ENDCHAR
STARTCHAR cdotaccent
ENCODING 267
SWIDTH 461 0
DWIDTH 8 0
BBX 8 13 0 0
BITMAP
0008A000
000AC000
00000000
007DEC40
07F96BF2
0DB001E8
1F700065
2F600000
2F600000
1F700032
0DA000E8
07F96AE2
007DFC40
ENDCHAR
STARTCHAR Ccaron
ENCODING 268
SWIDTH 566 0
DWIDTH 10 0
BBX 9 17 1 0
BITMAP
01D62E4000
004EAA0000
0009E10000
0000000000
018DFD7000
0BF96AF800
5F6000AF10
AE00005F40
DC00001420
EB00000000
EB00000000
EB00000000
DC00001410
AE00005F40
6F5000AF10
0CE86AF800
019EFD7000
ENDCHAR
STARTCHAR ccaron
ENCODING 269
SWIDTH 461 0
DWIDTH 8 0
BBX 8 14 0 0
BITMAP
01E53F30
005DB800
000BD000
00000000
007DEC40
07F96BF2
0DB001E8
1F700065
2F600000
2F600000
1F700032
0DA000E8
07F96AE2
007DFC40
ENDCHAR
STARTCHAR Dcaron
ENCODING 270
SWIDTH 570 0
DWIDTH 10 0
BBX 9 17 1 0
BITMAP
06D18C0000
00BAE20000
002E700000
0000000000
9FFFD91000
9F669FD100
9F0003F900
9F0000AE00
9F00007F10
9F00007F20
9F00007F20
9F00007F20
9F00008F10
9F0000BE00
9F0003F900
9F669FD100
9FFFD81000
ENDCHAR
STARTCHAR dcaron
ENCODING 271
SWIDTH 569 0
DWIDTH 10 0
BBX 11 14 0 0
BITMAP
000000DB5F20
000000DB6F10
000000DB9C00
000000DB9500
009EE7DB0000
08FA6BFB0000
0EB001EB0000
2F7000DB0000
2F6000DB0000
2F6000DB0000
1F7000DB0000
0DB000EB0000
07FA6BFB0000
008EE7BB0000
ENDCHAR
STARTCHAR Dcroat
ENCODING 272
SWIDTH 585 0
DWIDTH 11 0
BBX 10 13 0 0
BITMAP
05FFFEA300
05F868DE30
05F4001DC0
05F40006F3
05F40003F5
05F40003F6
DFFFE003F6
49F75003F6
05F40004F5
05F40007F3
05F4001DC0
05F868EE30
05FFFEA300
ENDCHAR
STARTCHAR dcroat
ENCODING 273
SWIDTH 529 0
DWIDTH 10 0
BBX 10 14 0 0
BITMAP
000000DB00
0000AFFFF2
000035EC51
000000DB00
007ED7DB00
05FB6CFB00
0CD001EB00
0F8000DB00
2F7000DB00
2F6000DB00
1F8000DB00
0CD001EB00
05FB6CFB00
006EE9CB00
ENDCHAR
STARTCHAR Emacron
ENCODING 274
SWIDTH 496 0
DWIDTH 9 0
BBX 8 17 1 0
BITMAP
03444410
0CFFFF50
00000000
00000000
9FFFFFF3
9F666661
9F000000
9F000000
9F000000
9F000000
9FFFFF80
9F666630
9F000000
9F000000
9F000000
9F666661
9FFFFFF4
ENDCHAR
STARTCHAR emacron
ENCODING 275
SWIDTH 468 0
DWIDTH 8 0
BBX 8 14 0 0
BITMAP
01444440
03FFFFE0
00000000
00000000
006DFC40
05F96BF2
0CB001F8
0F7000DA
2FFFFFFB
2F955554
0F800000
0DC00020
06FA67E6
007DFD80
ENDCHAR
STARTCHAR Ebreve
ENCODING 276
SWIDTH 496 0
DWIDTH 9 0
BBX 8 17 1 0
BITMAP
01000100
0BA14F40
02BED700
00000000
9FFFFFF3
9F666661
9F000000
9F000000
9F000000
9F000000
9FFFFF80
9F666630
9F000000
9F000000
9F000000
9F666661
9FFFFFF4
ENDCHAR
STARTCHAR ebreve
ENCODING 277
SWIDTH 468 0
DWIDTH 8 0
BBX 8 14 0 0
BITMAP
00100010
02F519D0
006DEC30
00000000
006DFC40
05F96BF2
0CB001F8
0F7000DA
2FFFFFFB
2F955554
0F800000
0DC00020
06FA67E6
007DFD80
ENDCHAR
STARTCHAR Edotaccent
ENCODING 278
SWIDTH 496 0
DWIDTH 9 0
BBX 8 16 1 0
BITMAP
001C6000
001E8000
00000000
9FFFFFF3
9F666661
9F000000
9F000000
9F000000
9F000000
9FFFFF80
9F666630
9F000000
9F000000
9F000000
9F666661
9FFFFFF4
ENDCHAR
STARTCHAR edotaccent
ENCODING 279
SWIDTH 468 0
DWIDTH 8 0
BBX 8 13 0 0
BITMAP
0005C100
0006E200
00000000
006DFC40
05F96BF2
0CB001F8
0F7000DA
2FFFFFFB
2F955554
0F800000
0DC00020
06FA67E6
007DFD80
ENDCHAR
STARTCHAR Eogonek
ENCODING 280
SWIDTH 496 0
DWIDTH 9 0
BBX 8 17 1 -4
BITMAP
9FFFFFF3
9F666661
9F000000
9F000000
9F000000
9F000000
9FFFFF80
9F666630
9F000000
9F000000
9F000000
9F666661
9FFFFFF4
00003E40
0000B900
0000CA40
00006EA0
ENDCHAR
STARTCHAR eogonek
ENCODING 281
SWIDTH 468 0
DWIDTH 8 0
BBX 8 14 0 -4
BITMAP
006DFC40
05F96BF2
0CB001F8
0F7000DA
2FFFFFFB
2F955554
1F800000
0DC00020
06FA57E6
006CFF80
0001E700
0005F000
0006F510
0001CE30
ENDCHAR
STARTCHAR Ecaron
ENCODING 282
SWIDTH 496 0
DWIDTH 9 0
BBX 8 17 1 0
BITMAP
05E18C00
00BAE300
002E8000
00000000
9FFFFFF3
9F666661
9F000000
9F000000
9F000000
9F000000
9FFFFF80
9F666630
9F000000
9F000000
9F000000
9F666661
9FFFFFF4
ENDCHAR
STARTCHAR ecaron
ENCODING 283
SWIDTH 468 0
DWIDTH 8 0
BBX 8 14 0 0
BITMAP
00B90D70
002EAC00
0007F200
00000000
006DFC40
05F96BF2
0CB001F8
0F7000DA
2FFFFFFB
2F955554
0F800000
0DC00020
06FA67E6
007DFD80
ENDCHAR
STARTCHAR Gcircumflex
ENCODING 284
SWIDTH 590 0
DWIDTH 11 0
BBX 9 17 1 0
BITMAP
000BD10000
008DBA0000
01C52D3000
0000000000
029EFD7000
1DF97AF800
7F4000AF10
BD00004E40
DB00000000
EB00000000
EB00000000
EB008FFF60
DC00368F60
BE00003F60
6F60003F60
0BF968DF30
018DFEA300
ENDCHAR
STARTCHAR gcircumflex
ENCODING 285
SWIDTH 492 0
DWIDTH 9 0
BBX 8 18 0 -4
BITMAP
0009E200
005FAC10
00A81C40
00000000
009EE8BB
08FA6BFB
0EB000EB
1F7000DB
2F6000DB
2F6000DB
1F7000DB
0DB000EB
07FA6BFB
008EE8DB
000000DA
012002F8
06E76CF2
007DEC30
ENDCHAR
STARTCHAR Gbreve
ENCODING 286
SWIDTH 590 0
DWIDTH 11 0
BBX 9 17 1 0
BITMAP
0010000000
06E32C9000
009EEA1000
0000000000
029EFD7000
1DF97AF800
7F4000AF10
BD00004E40
DB00000000
EB00000000
EB00000000
EB008FFF60
DC00368F60
BE00003F60
6F60003F60
0BF968DF30
018DFEA300
ENDCHAR
STARTCHAR gbreve
ENCODING 287
SWIDTH 492 0
DWIDTH 9 0
BBX 8 18 0 -4
BITMAP
00100010
03F41AC0
007DEB20
00000000
009EE8BB
08FA6BFB
0EB000EB
1F7000DB
2F6000DB
2F6000DB
1F7000DB
0DB000EB
07FA6BFB
008EE8DB
000000DA
012002F8
06E76CF2
007DEC30
ENDCHAR
STARTCHAR Gdotaccent
ENCODING 288
SWIDTH 590 0
DWIDTH 11 0
BBX 9 16 1 0
BITMAP
0008A00000
000AD00000
0000000000
029EFD7000
1DF97AF800
7F4000AF10
BD00004E40
DB00000000
EB00000000
EB00000000
EB008FFF60
DC00368F60
BE00003F60
6F60003F60
0BF968DF30
018DFEA300
ENDCHAR
STARTCHAR gdotaccent
ENCODING 289
SWIDTH 492 0
DWIDTH 9 0
BBX 8 17 0 -4
BITMAP
0006C100
0008E100
00000000
009EE8BB
08FA6BFB
0EB000EB
1F7000DB
2F6000DB
2F6000DB
1F7000DB
0DB000EB
07FA6BFB
008EE8DB
000000DA
012002F8
06E76CF2
007DEC30
ENDCHAR
STARTCHAR uni0122
ENCODING 290
SWIDTH 590 0
DWIDTH 11 0
BBX 9 18 1 -5
BITMAP
029EFD7000
1DF97AF800
7F4000AF10
BD00004E40
DB00000000
EB00000000
EB00000000
EB008FFF60
DC00368F60
BE00003F60
6F60003F60
0BF968DF30
018DFEA300
0000000000
0003F40000
0004F30000
0007E00000
0006700000
ENDCHAR
STARTCHAR uni0123
ENCODING 291
SWIDTH 492 0
DWIDTH 9 0
BBX 8 19 0 -4
BITMAP
0000A300
0004F300
0008F000
0008F000
00000000
009EE8BB
08FA6BFB
0EB000EB
1F7000DB
2F6000DB
2F6000DB
1F7000DB
0DB000EB
07FA6BFB
008EE8DB
000000DA
012002F8
06E76CF2
007DEC30
ENDCHAR
STARTCHAR Hcircumflex
ENCODING 292
SWIDTH 620 0
DWIDTH 11 0
BBX 9 17 1 0
BITMAP
0006F40000
003F9E2000
008A0B6000
0000000000
9F00000DB0
9F00000DB0
9F00000DB0
9F00000DB0
9F00000DB0
9F00000DB0
9FFFFFFFB0
9F66666EB0
9F00000DB0
9F00000DB0
9F00000DB0
9F00000DB0
9F00000DB0
ENDCHAR
STARTCHAR hcircumflex
ENCODING 293
SWIDTH 482 0
DWIDTH 9 0
BBX 7 18 1 0
BITMAP
01DB0000
0BBD8000
2D35C100
00000000
DB000000
DB000000
DB000000
DB000000
DB8ED700
DFC6CF20
DD102F60
DB000F80
DB000F80
DB000F80
DB000F80
DB000F80
DB000F80
DB000F80
ENDCHAR
STARTCHAR Hbar
ENCODING 294
SWIDTH 611 0
DWIDTH 11 0
BBX 11 13 0 0
BITMAP
09F00000DB00
09F00000DB00
09F00000DB00
9FFFFFFFFFB0
2BF44444DC30
09F00000DB00
09FFFFFFFB00
09F66666EB00
09F00000DB00
09F00000DB00
09F00000DB00
09F00000DB00
09F00000DB00
ENDCHAR
STARTCHAR hbar
ENCODING 295
SWIDTH 497 0
DWIDTH 9 0
BBX 9 14 -1 0
BITMAP
009F000000
2FFFF90000
15BF530000
009F000000
009F5DE900
009FD79F60
009F300DA0
009F000BC0
009F000BC0
009F000BC0
009F000BC0
009F000BC0
009F000BC0
009F000BC0
ENDCHAR
STARTCHAR Itilde
ENCODING 296
SWIDTH 250 0
DWIDTH 5 0
BBX 6 17 -1 0
BITMAP
012015
1EF88C
5C1AE4
000000
008F10
008F10
008F10
008F10
008F10
008F10
008F10
008F10
008F10
008F10
008F10
008F10
008F10
ENDCHAR
STARTCHAR itilde
ENCODING 297
SWIDTH 234 0
DWIDTH 4 0
BBX 6 14 -1 0
BITMAP
012024
2EF79A
7A2CD3
000000
00BD00
00BD00
00BD00
00BD00
00BD00
00BD00
00BD00
00BD00
00BD00
00BD00
ENDCHAR
STARTCHAR Imacron
ENCODING 298
SWIDTH 250 0
DWIDTH 5 0
BBX 6 17 -1 0
BITMAP
144443
4FFFFD
000000
000000
008F10
008F10
008F10
008F10
008F10
008F10
008F10
008F10
008F10
008F10
008F10
008F10
008F10
ENDCHAR
STARTCHAR imacron
ENCODING 299
SWIDTH 234 0
DWIDTH 4 0
BBX 6 14 -1 0
BITMAP
244443
6FFFFB
000000
000000
00BD00
00BD00
00BD00
00BD00
00BD00
00BD00
00BD00
00BD00
00BD00
00BD00
ENDCHAR
STARTCHAR Ibreve
ENCODING 300
SWIDTH 250 0
DWIDTH 5 0
BBX 6 17 -1 0
BITMAP
010001
4F41AB
07DEB2
000000
008F10
008F10
008F10
008F10
008F10
008F10
008F10
008F10
008F10
008F10
008F10
008F10
008F10
ENDCHAR
STARTCHAR ibreve
ENCODING 301
SWIDTH 234 0
DWIDTH 4 0
BBX 6 14 -1 0
BITMAP
010000
6E32C9
09EEA1
000000
00BD00
00BD00
00BD00
00BD00
00BD00
00BD00
00BD00
00BD00
00BD00
00BD00
ENDCHAR
STARTCHAR Iogonek
ENCODING 302
SWIDTH 250 0
DWIDTH 5 0
BBX 4 17 0 -4
BITMAP
08F1
08F1
08F1
08F1
08F1
08F1
08F1
08F1
08F1
08F1
08F1
08F1
09F1
1D70
8C00
AC40
4ED0
ENDCHAR
STARTCHAR iogonek
ENCODING 303
SWIDTH 229 0
DWIDTH 4 0
BBX 3 18 0 -4
BITMAP
0790
09C0
0000
0000
0BD0
0BD0
0BD0
0BD0
0BD0
0BD0
0BD0
0BD0
0BD0
0DF0
3E40
B900
CA40
6EA0
ENDCHAR
STARTCHAR Idotaccent
ENCODING 304
SWIDTH 250 0
DWIDTH 5 0
BBX 3 16 1 0
BITMAP
6C10
8E10
0000
8F10
8F10
8F10
8F10
8F10
8F10
8F10
8F10
8F10
8F10
8F10
8F10
8F10
ENDCHAR
STARTCHAR dotlessi
ENCODING 305
SWIDTH 234 0
DWIDTH 4 0
BBX 2 10 1 0
BITMAP
BD
BD
BD
BD
BD
BD
BD
BD
BD
BD
ENDCHAR
STARTCHAR IJ
ENCODING 306
SWIDTH 733 0
DWIDTH 13 0
BBX 11 13 1 0
BITMAP
8F1000000BE0
8F1000000BE0
8F1000000BE0
8F1000000BE0
8F1000000BE0
8F1000000BE0
8F1000000BE0
8F1000000BE0
8F1000000BE0
8F10A7000BD0
8F10CD001EA0
8F106FB6CF30
8F1006DFD500
ENDCHAR
STARTCHAR ij
ENCODING 307
SWIDTH 452 0
DWIDTH 8 0
BBX 6 18 1 -4
BITMAP
790089
9C009B
000000
000000
BD00AD
BD00AD
BD00AD
BD00AD
BD00AD
BD00AD
BD00AD
BD00AD
BD00AD
BD00AD
0000AD
0000AD
0017EA
001ED3
ENDCHAR
STARTCHAR Jcircumflex
ENCODING 308
SWIDTH 483 0
DWIDTH 9 0
BBX 9 17 0 0
BITMAP
000007F400
00004FAE10
0000890C60
0000000000
000003F600
000003F600
000003F600
000003F600
000003F600
000003F600
000003F600
000003F600
000003F600
5B2004F500
5F6007F300
0DE78FB000
02AEEA1000
ENDCHAR
STARTCHAR jcircumflex
ENCODING 309
SWIDTH 237 0
DWIDTH 4 0
BBX 6 18 -1 -4
BITMAP
009E20
06EAC0
0B71C4
000000
009F00
009F00
009F00
009F00
009F00
009F00
009F00
009F00
009F00
009F00
009F00
00AE00
16EA00
3EB200
ENDCHAR
STARTCHAR uni0136
ENCODING 310
SWIDTH 544 0
DWIDTH 10 0
BBX 9 17 1 -4
BITMAP
9F0001DE20
9F0009F500
9F004F9000
9F01ED1000
9F0AF30000
9F7F700000
9FFFB00000
9FC8F50000
9F20DE1000
9F004F9000
9F000AF300
9F0002EC00
9F00007F70
000AC00000
000BB00000
000E700000
001B100000
ENDCHAR
STARTCHAR uni0137
ENCODING 311
SWIDTH 450 0
DWIDTH 8 0
BBX 7 18 1 -4
BITMAP
CB000000
CB000000
CB000000
CB000000
CB00AF30
CB05F700
CB1EB000
CBAE1000
CEFB0000
CFCF5000
CC0DD000
CB04F700
CB00BE20
CB002FA0
00AC0000
00BB0000
00E70000
01B10000
ENDCHAR
STARTCHAR kgreenlandic
ENCODING 312
SWIDTH 491 0
DWIDTH 9 0
BBX 8 10 1 0
BITMAP
BD003FA0
BD00CD10
BD08F400
BD4F8000
BFFD0000
BE9F5000
BD0CE100
BD03FA00
BD009F50
BD001ED1
ENDCHAR
STARTCHAR Lacute
ENCODING 313
SWIDTH 475 0
DWIDTH 9 0
BBX 7 17 1 0
BITMAP
06F80000
2EB00000
6C100000
00000000
9F000000
9F000000
9F000000
9F000000
9F000000
9F000000
9F000000
9F000000
9F000000
9F000000
9F000000
9F666660
9FFFFFF0
ENDCHAR
STARTCHAR lacute
ENCODING 314
SWIDTH 229 0
DWIDTH 4 0
BBX 4 18 1 0
BITMAP
07F7
3FA0
7C10
0000
BD00
BD00
BD00
BD00
BD00
BD00
BD00
BD00
BD00
BD00
BD00
BD00
BD00
BD00
ENDCHAR
STARTCHAR uni013B
ENCODING 315
SWIDTH 475 0
DWIDTH 9 0
BBX 7 18 1 -5
BITMAP
9F000000
9F000000
9F000000
9F000000
9F000000
9F000000
9F000000
9F000000
9F000000
9F000000
9F000000
9F666660
9FFFFFF0
00000000
000F7000
001F6000
004F2000
00490000
ENDCHAR
STARTCHAR uni013C
ENCODING 316
SWIDTH 229 0
DWIDTH 4 0
BBX 3 19 0 -5
BITMAP
0BD0
0BD0
0BD0
0BD0
0BD0
0BD0
0BD0
0BD0
0BD0
0BD0
0BD0
0BD0
0BD0
0BD0
0000
0AC0
0BB0
0E70
1B10
ENDCHAR
STARTCHAR Lcaron
ENCODING 317
SWIDTH 475 0
DWIDTH 9 0
BBX 7 13 1 0
BITMAP
9F01F600
9F02F400
9F05F100
9F058000
9F000000
9F000000
9F000000
9F000000
9F000000
9F000000
9F000000
9F666660
9FFFFFF0
ENDCHAR
STARTCHAR lcaron
ENCODING 318
SWIDTH 302 0
DWIDTH 5 0
BBX 5 14 1 0
BITMAP
BD0F70
BD1F60
BD4F20
BD4900
BD0000
BD0000
BD0000
BD0000
BD0000
BD0000
BD0000
BD0000
BD0000
BD0000
ENDCHAR
STARTCHAR Ldot
ENCODING 319
SWIDTH 475 0
DWIDTH 9 0
BBX 7 13 1 0
BITMAP
9F000000
9F000000
9F000000
9F000000
9F000000
9F04C200
9F05E300
9F000000
9F000000
9F000000
9F000000
9F666660
9FFFFFF0
ENDCHAR
STARTCHAR ldot
ENCODING 320
SWIDTH 336 0
DWIDTH 6 0
BBX 5 14 1 0
BITMAP
BD0000
BD0000
BD0000
BD0000
BD0000
BD0000
BD3C40
BD3E50
BD0000
BD0000
BD0000
BD0000
BD0000
BD0000
ENDCHAR
STARTCHAR Lslash
ENCODING 321
SWIDTH 475 0
DWIDTH 9 0
BBX 8 13 0 0
BITMAP
09F00000
09F00000
09F00000
09F00000
09F00000
09F8A000
4DF93000
5CF00000
09F00000
09F00000
09F00000
09F66666
09FFFFFF
ENDCHAR
STARTCHAR lslash
ENCODING 322
SWIDTH 250 0
DWIDTH 5 0
BBX 5 14 0 0
BITMAP
09F000
09F000
09F000
09F000
09F000
09F000
09FB10
4DF500
5BF000
09F000
09F000
09F000
09F000
09F000
ENDCHAR
STARTCHAR Nacute
ENCODING 323
SWIDTH 619 0
DWIDTH 11 0
BBX 9 17 1 0
BITMAP
00001ED100
0000AE3000
0002C50000
0000000000
9F40000DB0
9FB0000DB0
9FF4000DB0
9FBC000DB0
9F3F400DB0
9F0BC00DB0
9F03F50DB0
9F00AC0DB0
9F003F5DB0
9F000ADDB0
9F0002FFB0
9F0000AFB0
9F00002FB0
ENDCHAR
STARTCHAR nacute
ENCODING 324
SWIDTH 483 0
DWIDTH 9 0
BBX 7 14 1 0
BITMAP
0003FB00
000CD100
003D3000
00000000
DA8ED700
DFC6CF20
DD102F60
DB000F80
DB000F80
DB000F80
DB000F80
DB000F80
DB000F80
DB000F80
ENDCHAR
STARTCHAR uni0145
ENCODING 325
SWIDTH 619 0
DWIDTH 11 0
BBX 9 18 1 -5
BITMAP
9F40000DB0
9FB0000DB0
9FF4000DB0
9FBC000DB0
9F3F400DB0
9F0BC00DB0
9F03F50DB0
9F00AC0DB0
9F003F5DB0
9F000ADDB0
9F0002FFB0
9F0000AFB0
9F00002FB0
0000000000
0004F30000
0005F20000
0008D00000
0007600000
ENDCHAR
STARTCHAR uni0146
ENCODING 326
SWIDTH 483 0
DWIDTH 9 0
BBX 7 15 1 -5
BITMAP
DA8ED700
DFC6CF20
DD102F60
DB000F80
DB000F80
DB000F80
DB000F80
DB000F80
DB000F80
DB000F80
00000000
007F0000
008E0000
00BB0000
00A40000
ENDCHAR
STARTCHAR Ncaron
ENCODING 327
SWIDTH 619 0
DWIDTH 11 0
BBX 9 17 1 0
BITMAP
008C0BA000
001D9E1000
0004F50000
0000000000
9F40000DB0
9FB0000DB0
9FF4000DB0
9FBC000DB0
9F3F400DB0
9F0BC00DB0
9F03F50DB0
9F00AC0DB0
9F003F5DB0
9F000ADDB0
9F0002FFB0
9F0000AFB0
9F00002FB0
ENDCHAR
STARTCHAR ncaron
ENCODING 328
SWIDTH 483 0
DWIDTH 9 0
BBX 7 14 1 0
BITMAP
0AA0D800
02EAC000
006F3000
00000000
DA8ED700
DFC6CF20
DD102F60
DB000F80
DB000F80
DB000F80
DB000F80
DB000F80
DB000F80
DB000F80
ENDCHAR
STARTCHAR napostrophe
ENCODING 329
SWIDTH 483 0
DWIDTH 9 0
BBX 9 13 -1 0
BITMAP
0CA0000000
0D80000000
2F50000000
2BDA8ED700
00DFC6CF20
00DD102F60
00DB000F80
00DB000F80
00DB000F80
00DB000F80
00DB000F80
00DB000F80
00DB000F80
ENDCHAR
STARTCHAR Eng
ENCODING 330
SWIDTH 599 0
DWIDTH 11 0
BBX 9 17 1 -4
BITMAP
AF30001F80
AFA0001F80
AFF3001F80
AEEB001F80
AE7F301F80
AE0DB01F80
AE06F41F80
AE00DB1F80
AE006F5F80
AE000DDF80
AE0006FF80
AE0000DF80
AE00006F80
0000001F80
0000002F70
000005AF30
00000AE700
ENDCHAR
STARTCHAR eng
ENCODING 331
SWIDTH 498 0
DWIDTH 9 0
BBX 7 14 1 -4
BITMAP
CA6ED700
CEA6BF30
CD001F80
CC000DA0
CC000DA0
CC000DA0
CC000DA0
CC000DA0
CC000DA0
CC000DA0
00000DA0
00000E90
00049F60
0007E900
ENDCHAR
STARTCHAR Omacron
ENCODING 332
SWIDTH 600 0
DWIDTH 11 0
BBX 9 17 1 0
BITMAP
0044444000
01FFFFF000
0000000000
0000000000
018DFD7000
0CFA8BF900
6F60009F30
AE00002F70
DC00000EA0
EB00000EB0
EB00000EB0
EB00000EA0
DC00000FA0
BE00002F70
6F60009F30
0CF97BF900
018DFD7000
ENDCHAR
STARTCHAR omacron
ENCODING 333
SWIDTH 501 0
DWIDTH 9 0
BBX 9 14 0 0
BITMAP
0044444000
01FFFFF000
0000000000
0000000000
005DFD5000
04FB6BF500
0CD000CC00
1F80007F10
2F60006F30
2F60005F20
1F80007F10
0CC000BD00
05FB6AF500
005DFD6000
ENDCHAR
STARTCHAR Obreve
ENCODING 334
SWIDTH 600 0
DWIDTH 11 0
BBX 9 17 1 0
BITMAP
0010001000
01F618E000
005DFC4000
0000000000
018DFD7000
0CFA8BF900
6F60009F30
AE00002F70
DC00000EA0
EB00000EB0
EB00000EB0
EB00000EA0
DC00000FA0
BE00002F70
6F60009F30
0CF97BF900
018DFD7000
ENDCHAR
STARTCHAR obreve
ENCODING 335
SWIDTH 501 0
DWIDTH 9 0
BBX 9 14 0 0
BITMAP
0010001000
01F618E000
005DFC4000
0000000000
005DFD5000
04FB6BF500
0CD000CC00
1F80007F10
2F60006F30
2F60005F20
1F80007F10
0CC000BD00
05FB6AF500
005DFD6000
ENDCHAR
STARTCHAR Ohungarumlaut
ENCODING 336
SWIDTH 600 0
DWIDTH 11 0
BBX 9 17 1 0
BITMAP
0008E3EA00
001E8BE100
004C3C5000
0000000000
018DFD7000
0CFA8BF900
6F60009F30
AE00002F70
DC00000EA0
EB00000EB0
EB00000EB0
EB00000EA0
DC00000FA0
BE00002F70
6F60009F30
0CF97BF900
018DFD7000
ENDCHAR
STARTCHAR ohungarumlaut
ENCODING 337
SWIDTH 501 0
DWIDTH 9 0
BBX 9 14 0 0
BITMAP
0008E3EA00
001E8BE100
004C3C5000
0000000000
005DFD5000
04FB6BF500
0CD000CC00
1F80007F10
2F60006F30
2F60005F20
1F80007F10
0CC000BD00
05FB6AF500
005DFD6000
ENDCHAR
STARTCHAR OE
ENCODING 338
SWIDTH 826 0
DWIDTH 15 0
BBX 14 13 0 0
BITMAP
0019EFFFFFFFF6
01DE75AF866662
08F2006F300000
0DB0006F300000
0F80006F300000
1F70006F300000
1F70006FFFFFB0
1F70006F866640
0F80006F300000
0DB0006F300000
08F2006F300000
01DD65AF866663
0019EFFFFFFFF7
ENDCHAR
STARTCHAR oe
ENCODING 339
SWIDTH 777 0
DWIDTH 14 0
BBX 14 10 0 0
BITMAP
004CFC407EEA10
03FB6CF9F87EA0
0AE101EF9007F1
0E9000AF4004F3
1F80008FFFFFF5
1F70008F755552
0E9000AF400000
0AD001EFA00010
03FB6BFAF969D0
005DFC407DFC50
ENDCHAR
STARTCHAR Racute
ENCODING 340
SWIDTH 530 0
DWIDTH 10 0
BBX 9 17 1 0
BITMAP
0000CE2000
0008F40000
001B700000
0000000000
9FFFEB4000
9F667DF300
9F0002F900
9F0000DB00
9F0000EA00
9F001AF500
9FFFFF8000
9F66CE1000
9F004F6000
9F000DC000
9F0007F400
9F0001FA00
9F0000AF20
ENDCHAR
STARTCHAR racute
ENCODING 341
SWIDTH 304 0
DWIDTH 5 0
BBX 5 14 1 0
BITMAP
005F80
02EB00
06C100
000000
DBAE10
DFD910
DD1000
DB0000
DB0000
DB0000
DB0000
DB0000
DB0000
DB0000
ENDCHAR
STARTCHAR uni0156
ENCODING 342
SWIDTH 530 0
DWIDTH 10 0
BBX 9 18 1 -5
BITMAP
9FFFEB4000
9F667DF300
9F0002F900
9F0000DB00
9F0000EA00
9F001AF500
9FFFFF8000
9F66CE1000
9F004F6000
9F000DC000
9F0007F400
9F0001FA00
9F0000AF20
0000000000
001F600000
002F500000
005F100000
0059000000
ENDCHAR
STARTCHAR uni0157
ENCODING 343
SWIDTH 304 0
DWIDTH 5 0
BBX 6 15 0 -5
BITMAP
0DBAE1
0DFD91
0DD100
0DB000
0DB000
0DB000
0DB000
0DB000
0DB000
0DB000
000000
0AC000
0BB000
0E7000
1B1000
ENDCHAR
STARTCHAR Rcaron
ENCODING 344
SWIDTH 530 0
DWIDTH 10 0
BBX 9 17 1 0
BITMAP
06D19C0000
00BAE20000
002E700000
0000000000
9FFFEB4000
9F667DF300
9F0002F900
9F0000DB00
9F0000EA00
9F001AF500
9FFFFF8000
9F66CE1000
9F004F6000
9F000DC000
9F0007F400
9F0001FA00
9F0000AF20
ENDCHAR
STARTCHAR rcaron
ENCODING 345
SWIDTH 304 0
DWIDTH 5 0
BBX 6 14 0 0
BITMAP
1D62E4
04EB90
009D10
000000
0DBAE1
0DFD91
0DD100
0DB000
0DB000
0DB000
0DB000
0DB000
0DB000
0DB000
ENDCHAR
STARTCHAR Sacute
ENCODING 346
SWIDTH 518 0
DWIDTH 9 0
BBX 9 17 0 0
BITMAP
00000CE300
00007F5000
0000B80000
0000000000
004CEE9100
05FC78EC00
0CD0005F50
0DB0001D70
0BE2000000
03EE820000
003BFFA200
000039FD10
0000005F60
3D60001F80
1EB0004F70
06FB67EE20
005CEEA200
ENDCHAR
STARTCHAR sacute
ENCODING 347
SWIDTH 455 0
DWIDTH 8 0
BBX 7 14 1 0
BITMAP
0003FB00
000CD100
003D3000
00000000
08DEB200
7F86EC00
CB006E20
AE300000
2DFA3000
016DF800
1000AF30
F9004F40
AF76CE10
18DEB300
ENDCHAR
STARTCHAR Scircumflex
ENCODING 348
SWIDTH 518 0
DWIDTH 9 0
BBX 9 17 0 0
BITMAP
0002E90000
001CAE5000
004C17A000
0000000000
004CEE9100
05FC78EC00
0CD0005F50
0DB0001D70
0BE2000000
03EE820000
003BFFA200
000039FD10
0000005F60
3D60001F80
1EB0004F70
06FB67EE20
005CEEA200
ENDCHAR
STARTCHAR scircumflex
ENCODING 349
SWIDTH 455 0
DWIDTH 8 0
BBX 7 14 1 0
BITMAP
007F4000
04FAE100
0890C600
00000000
08DEB200
7F86EC00
CB006E20
AE300000
2DFA3000
016DF800
1000AF30
F9004F40
AF76CE10
18DEB300
ENDCHAR
STARTCHAR Scedilla
ENCODING 350
SWIDTH 518 0
DWIDTH 9 0
BBX 9 17 0 -4
BITMAP
004CEE9100
05FC78EC00
0CD0005F50
0DB0001D70
0BE2000000
03EE820000
003BFFA200
000039FD10
0000005F60
3D60001F80
1EB0004F70
06FB67EE20
005CEEA200
0000C50000
00005C2000
00001D5000
0000DA1000
ENDCHAR
STARTCHAR scedilla
ENCODING 351
SWIDTH 455 0
DWIDTH 8 0
BBX 7 14 1 -4
BITMAP
08DEB200
7F86EC00
CB006E20
AE300000
2DFA3000
016DF800
1000AF30
F9004F40
AF76CE10
18DEB300
003E0000
00199000
0006E000
004E6000
ENDCHAR
STARTCHAR Scaron
ENCODING 352
SWIDTH 518 0
DWIDTH 9 0
BBX 9 17 0 0
BITMAP
005E17D000
000AAE3000
0001E80000
0000000000
004CEE9100
05FC78EC00
0CD0005F50
0DB0001D70
0BE2000000
03EE820000
003BFFA200
000039FD10
0000005F60
3D60001F80
1EB0004F70
06FB67EE20
005CEEA200
ENDCHAR
STARTCHAR scaron
ENCODING 353
SWIDTH 455 0
DWIDTH 8 0
BBX 7 14 1 0
BITMAP
0AA0D800
02EAC000
006F3000
00000000
08DEB200
7F86EC00
CB006E20
AE300000
2DFA3000
016DF800
1000AF30
F9004F40
AF76CE10
18DEB300
ENDCHAR
STARTCHAR uni0162
ENCODING 354
SWIDTH 520 0
DWIDTH 9 0
BBX 9 17 0 -4
BITMAP
7FFFFFFFD0
3667FA6650
0002F80000
0002F80000
0002F80000
0002F80000
0002F80000
0002F80000
0002F80000
0002F80000
0002F80000
0002F80000
0002F80000
0000E40000
00006C1000
00002E4000
0000E90000
ENDCHAR
STARTCHAR uni0163
ENCODING 355
SWIDTH 295 0
DWIDTH 5 0
BBX 6 16 0 -4
BITMAP
05F300
05F300
CFFF90
38F620
05F300
05F300
05F300
05F300
05F300
05F300
03FA40
009E80
001F20
0017B0
0003F2
002E80
ENDCHAR
STARTCHAR Tcaron
ENCODING 356
SWIDTH 520 0
DWIDTH 9 0
BBX 9 17 0 0
BITMAP
006D18C000
000BAE2000
0002E70000
0000000000
7FFFFFFFD0
3667FA6650
0002F80000
0002F80000
0002F80000
0002F80000
0002F80000
0002F80000
0002F80000
0002F80000
0002F80000
0002F80000
0002F80000
ENDCHAR
STARTCHAR tcaron
ENCODING 357
SWIDTH 314 0
DWIDTH 6 0
BBX 6 14 0 0
BITMAP
00008E
00009D
05F3C9
05F3B3
CFFF90
38F620
05F300
05F300
05F300
05F300
05F300
05F300
03FA40
009E80
ENDCHAR
STARTCHAR Tbar
ENCODING 358
SWIDTH 520 0
DWIDTH 9 0
BBX 9 13 0 0
BITMAP
7FFFFFFFD0
3667FA6650
0002F80000
0002F80000
009FFFF300
0036FA5100
0002F80000
0002F80000
0002F80000
0002F80000
0002F80000
0002F80000
0002F80000
ENDCHAR
STARTCHAR tbar
ENCODING 359
SWIDTH 295 0
DWIDTH 5 0
BBX 5 12 0 0
BITMAP
05F300
05F300
CFFF90
38F620
05F300
FFFFC0
58F740
05F300
05F300
05F300
03FA40
009E80
ENDCHAR
STARTCHAR Utilde
ENCODING 360
SWIDTH 561 0
DWIDTH 10 0
BBX 8 17 1 0
BITMAP
00220230
03FE6A90
0892CD20
00000000
DB00009F
DB00009F
DB00009F
DB00009F
DB00009F
DB00009F
DB00009F
DB00009F
DB00009F
CC0000AE
9F1000DB
3FD77CF4
03BEFC50
ENDCHAR
STARTCHAR utilde
ENCODING 361
SWIDTH 483 0
DWIDTH 9 0
BBX 7 14 1 0
BITMAP
01200500
0DF97D00
4C1AE500
00000000
DA000F80
DA000F80
DA000F80
DA000F80
DA000F80
DA000F80
DB000F80
BD002F80
7F97DF80
09ED6F80
ENDCHAR
STARTCHAR Umacron
ENCODING 362
SWIDTH 561 0
DWIDTH 10 0
BBX 8 17 1 0
BITMAP
02444420
07FFFFA0
00000000
00000000
DB00009F
DB00009F
DB00009F
DB00009F
DB00009F
DB00009F
DB00009F
DB00009F
DB00009F
CC0000AE
9F1000DB
3FD77CF4
03BEFC50
ENDCHAR
STARTCHAR umacron
ENCODING 363
SWIDTH 483 0
DWIDTH 9 0
BBX 7 14 1 0
BITMAP
14444400
3FFFFE00
00000000
00000000
DA000F80
DA000F80
DA000F80
DA000F80
DA000F80
DA000F80
DB000F80
BD002F80
7F97DF80
09ED6F80
ENDCHAR
STARTCHAR Ubreve
ENCODING 364
SWIDTH 561 0
DWIDTH 10 0
BBX 8 17 1 0
BITMAP
00100000
06E22C90
009EEA10
00000000
DB00009F
DB00009F
DB00009F
DB00009F
DB00009F
DB00009F
DB00009F
DB00009F
DB00009F
CC0000AE
9F1000DB
3FD77CF4
03BEFC50
ENDCHAR
STARTCHAR ubreve
ENCODING 365
SWIDTH 483 0
DWIDTH 9 0
BBX 7 14 1 0
BITMAP
01000100
2F519D00
06DEC300
00000000
DA000F80
DA000F80
DA000F80
DA000F80
DA000F80
DA000F80
DB000F80
BD002F80
7F97DF80
09ED6F80
ENDCHAR
STARTCHAR Uring
ENCODING 366
SWIDTH 561 0
DWIDTH 10 0
BBX 8 18 1 0
BITMAP
003CC400
00B31C00
00B21C00
003CC400
00000000
DB00009F
DB00009F
DB00009F
DB00009F
DB00009F
DB00009F
DB00009F
DB00009F
DB00009F
CC0000AE
9F1000DB
3FD77CF4
03BEFC50
ENDCHAR
STARTCHAR uring
ENCODING 367
SWIDTH 483 0
DWIDTH 9 0
BBX 7 15 1 0
BITMAP
01BC8000
0770C200
0770C200
01BC8000
00000000
DA000F80
DA000F80
DA000F80
DA000F80
DA000F80
DA000F80
DB000F80
BD002F80
7F97DF80
09ED6F80
ENDCHAR
STARTCHAR Uhungarumlaut
ENCODING 368
SWIDTH 561 0
DWIDTH 10 0
BBX 8 17 1 0
BITMAP
000EA7F4
006F4E90
00896C10
00000000
DB00009F
DB00009F
DB00009F
DB00009F
DB00009F
DB00009F
DB00009F
DB00009F
DB00009F
CC0000AE
9F1000DB
3FD77CF4
03BEFC50
ENDCHAR
STARTCHAR uhungarumlaut
ENCODING 369
SWIDTH 483 0
DWIDTH 9 0
BBX 7 14 1 0
BITMAP
00AE3F80
02F7CD10
04C3D400
00000000
DA000F80
DA000F80
DA000F80
DA000F80
DA000F80
DA000F80
DB000F80
BD002F80
7F97DF80
09ED6F80
ENDCHAR
STARTCHAR Uogonek
ENCODING 370
SWIDTH 561 0
DWIDTH 10 0
BBX 8 16 1 -3
BITMAP
DB00009F
DB00009F
DB00009F
DB00009F
DB00009F
DB00009F
DB00009F
DB00009F
DB00009F
CC0000AE
9F1000DC
2FD77CF5
03BEFE40
0003F300
0006E510
0002DE20
ENDCHAR
STARTCHAR uogonek
ENCODING 371
SWIDTH 483 0
DWIDTH 9 0
BBX 7 14 1 -4
BITMAP
DA000F80
DA000F80
DA000F80
DA000F80
DA000F80
DA000F80
DB000F80
BD002F80
7F97DF80
09ED6F80
00007D10
0001E500
0001F730
0000AE60
ENDCHAR
STARTCHAR Wcircumflex
ENCODING 372
SWIDTH 761 0
DWIDTH 14 0
BBX 14 17 0 0
BITMAP
000001CC000000
000009CC900000
00002C44C20000
00000000000000
4F5000CB0007F2
1F8001FE000AE0
0DA004FF300CB0
0AD007DD600F80
07F10B9A902F50
05F30E67D05F20
02F63F23F18E00
00E96E00F4AB00
00BB9A00C8D900
008DD7008BF600
005FF3005FF300
002FE0002FF000
000EB0000DC000
ENDCHAR
STARTCHAR wcircumflex
ENCODING 373
SWIDTH 649 0
DWIDTH 12 0
BBX 12 14 0 0
BITMAP
00002EA00000
0000CAE60000
0004D17B0000
000000000000
7F100E8006F2
3F402FC009D0
0E806FF10CA0
0BB0AAF51F60
08E0E6B93F30
04F5F28D6E00
01FCD04FBB00
00CF900EF700
009F600BF400
006F2007F100
ENDCHAR
STARTCHAR Ycircumflex
ENCODING 374
SWIDTH 524 0
DWIDTH 9 0
BBX 9 17 0 0
BITMAP
0002E90000
001CAE5000
004C17A000
0000000000
8F40000DE0
1FA0004F70
09F200AE10
03F701F900
00BD07F200
004F5DB000
000DDF4000
0006FC0000
0001F80000
0001F80000
0001F80000
0001F80000
0001F80000
ENDCHAR
STARTCHAR ycircumflex
ENCODING 375
SWIDTH 416 0
DWIDTH 8 0
BBX 8 18 0 -4
BITMAP
001DB000
00BBD800
02D35C10
00000000
8F2009F1
4F500DB0
0E901F70
0BD05F30
06F19E00
02F5CA00
00DAF500
009FF100
005FC000
001F8000
001F4000
006E0000
17E90000
3EA10000
ENDCHAR
STARTCHAR Ydieresis
ENCODING 376
SWIDTH 524 0
DWIDTH 9 0
BBX 9 16 0 0
BITMAP
00B801C500
00D902E600
0000000000
8F40000DE0
1FA0004F70
09F200AE10
03F701F900
00BD07F200
004F5DB000
000DDF4000
0006FC0000
0001F80000
0001F80000
0001F80000
0001F80000
0001F80000
ENDCHAR
STARTCHAR Zacute
ENCODING 377
SWIDTH 522 0
DWIDTH 9 0
BBX 9 17 0 0
BITMAP
00000CE300
00007F5000
0000B80000
0000000000
2FFFFFFF60
166666BF40
000001EB00
000009F200
00002F9000
0000AE1000
0004F70000
000CD00000
006F500000
01EC000000
08F3000000
1ED6666640
3FFFFFFFA0
ENDCHAR
STARTCHAR zacute
ENCODING 378
SWIDTH 438 0
DWIDTH 8 0
BBX 8 14 0 0
BITMAP
00008F50
0004F900
0008B000
00000000
2FFFFFF0
15556FC0
00007F30
0002EA00
000AE200
004F7000
00CD0000
06F40000
1ED55551
3FFFFFF3
ENDCHAR
STARTCHAR Zdotaccent
ENCODING 379
SWIDTH 522 0
DWIDTH 9 0
BBX 9 16 0 0
BITMAP
0001C60000
0001E80000
0000000000
2FFFFFFF60
166666BF40
000001EB00
000009F200
00002F9000
0000AE1000
0004F70000
000CD00000
006F500000
01EC000000
08F3000000
1ED6666640
3FFFFFFFA0
ENDCHAR
STARTCHAR zdotaccent
ENCODING 380
SWIDTH 438 0
DWIDTH 8 0
BBX 8 13 0 0
BITMAP
000A9000
000CB000
00000000
2FFFFFF0
15556FC0
00007F30
0002EA00
000AE200
004F7000
00CD0000
06F40000
1ED55551
3FFFFFF3
ENDCHAR
STARTCHAR Zcaron
ENCODING 381
SWIDTH 522 0
DWIDTH 9 0
BBX 9 17 0 0
BITMAP
005E18C000
000BAE3000
0002E80000
0000000000
2FFFFFFF60
166666BF40
000001EB00
000009F200
00002F9000
0000AE1000
0004F70000
000CD00000
006F500000
01EC000000
08F3000000
1ED6666640
3FFFFFFFA0
ENDCHAR
STARTCHAR zcaron
ENCODING 382
SWIDTH 438 0
DWIDTH 8 0
BBX 8 14 0 0
BITMAP
02E34E20
007CD600
000CB000
00000000
2FFFFFF0
15556FC0
00007F30
0002EA00
000AE200
004F7000
00CD0000
06F40000
1ED55551
3FFFFFF3
ENDCHAR
STARTCHAR longs
ENCODING 383
SWIDTH 234 0
DWIDTH 4 0
BBX 4 14 1 0
BITMAP
08ED
5FA5
9F00
AD00
AD00
AD00
AD00
AD00
AD00
AD00
AD00
AD00
AD00
AD00
ENDCHAR
STARTCHAR uni018F
ENCODING 399
SWIDTH 597 0
DWIDTH 11 0
BBX 10 13 0 0
BITMAP
008DFEA300
00D978DE40
0000001DD0
00000006F5
00000001F8
00000000EA
3FFFFFFFFB
3F955555FA
2F700002F8
0EA00006F4
09F2001DD0
01DE87CE30
002AEEB300
ENDCHAR
STARTCHAR florin
ENCODING 402
SWIDTH 309 0
DWIDTH 6 0
BBX 6 18 0 -4
BITMAP
004DE4
00ED62
03F600
04F500
7FFFA0
27F730
04F500
04F500
04F500
04F500
04F500
04F500
04F500
04F500
04F500
05F300
5BE100
DD4000
ENDCHAR
STARTCHAR Ohorn
ENCODING 416
SWIDTH 592 0
DWIDTH 11 0
BBX 11 15 0 0
BITMAP
000000000440
000000000BA0
0018DEC53E60
00BF97DFFA00
06F5001DE000
0CD00006F400
1F900002F700
2F700001F800
3F700000F900
2F700001F800
1F900002F600
0CD00006F300
06F5000CC000
00BF97CF4000
0018DEC40000
ENDCHAR
STARTCHAR ohorn
ENCODING 417
SWIDTH 502 0
DWIDTH 9 0
BBX 10 12 0 0
BITMAP
0000000010
00000001F2
004CEC56E0
03FB6BFE60
0AD101DC00
0E90008F10
1F70006F20
1F70006F20
0E80008F10
0AD000DB00
03FB6BF300
004CFC4000
ENDCHAR
STARTCHAR Uhorn
ENCODING 431
SWIDTH 608 0
DWIDTH 11 0
BBX 11 14 1 0
BITMAP
000000000470
DB00009F09B0
DB00009F3E70
DB00009FFA10
DB00009F1000
DB00009F0000
DB00009F0000
DB00009F0000
DB00009F0000
DB00009F0000
CD0000BE0000
8F3001EA0000
2EE77DF30000
02BEEB300000
ENDCHAR
STARTCHAR uhorn
ENCODING 432
SWIDTH 549 0
DWIDTH 10 0
BBX 9 11 1 0
BITMAP
00000004B0
DA000F88A0
DA000FFC30
DA000F8000
DA000F8000
DA000F8000
DA000F8000
DB000F8000
BD002F8000
7F97DF8000
09ED6F8000
ENDCHAR
STARTCHAR uni01F0
ENCODING 496
SWIDTH 237 0
DWIDTH 4 0
BBX 6 18 -1 -4
BITMAP
0D71E5
03EAA0
008E10
000000
009F00
009F00
009F00
009F00
009F00
009F00
009F00
009F00
009F00
009F00
009F00
00AE00
16EA00
3EB200
ENDCHAR
STARTCHAR Aringacute
ENCODING 506
SWIDTH 576 0
DWIDTH 10 0
BBX 10 18 0 0
BITMAP
000006E200
00000B4000
0000AE3000
0000C57000
0000AE3000
0000AF1000
0000EF5000
0004FDA000
0009C7E000
000E82F500
004F30C900
008E008E00
00D9003F40
03FFFFFF90
08F6666BD0
0DB00005F3
2F700001F8
7F300000CD
ENDCHAR
STARTCHAR aringacute
ENCODING 507
SWIDTH 479 0
DWIDTH 9 0
BBX 7 15 1 0
BITMAP
0002E500
00088000
006E6000
00B3B000
006E6000
06DEC400
6F96CE10
AB004F50
00003F60
06CFFF60
7F835F60
DA003F60
E9004F60
BE88EF60
2BED4F90
ENDCHAR
STARTCHAR AEacute
ENCODING 508
SWIDTH 812 0
DWIDTH 15 0
BBX 15 17 0 0
BITMAP
00000007F7000000
0000003FA0000000
0000007C10000000
0000000000000000
000000BFFFFFFB00
000004FFC5555400
00000BCDA0000000
00004F4DB0000000
0000BC0CB0000000
0004F50BC0000000
000BC00BFFFFF200
004F500AE5555100
00BFFFFFD0000000
04FA888CE0000000
0BE00009F0000000
4F800008F5555510
BF200008FFFFFF30
ENDCHAR
STARTCHAR aeacute
ENCODING 509
SWIDTH 728 0
DWIDTH 13 0
BBX 13 14 0 0
BITMAP
0000001ED10000
000000AE200000
000002C5000000
00000000000000
019DEA17EEA100
0AF87EDF86EB00
0D9008F9005F30
000006F4002F50
02ADEFFFFFFF60
0CE648F6444420
3F6006F5000000
3F5007FA000100
1ED59FBFA58E20
04DFC606DFD700
ENDCHAR
STARTCHAR Oslashacute
ENCODING 510
SWIDTH 600 0
DWIDTH 11 0
BBX 9 18 1 -1
BITMAP
00002EC000
0000BE2000
0003D40000
0000000250
007DFC5A70
09FA8CFE10
3F8000DE10
9F1004EF60
CC000C6E90
EA005C0DB0
F900C50CC0
EA06C00DB0
DC0D400EA0
9F7B003F70
4FF300AF20
0BFA7BF700
1E8DFD6000
4700000000
ENDCHAR
STARTCHAR oslashacute
ENCODING 511
SWIDTH 498 0
DWIDTH 9 0
BBX 9 15 0 -1
BITMAP
00006F8000
0002EB0000
0006C10000
000000A400
004CFCD000
03FB6CF400
0AD10DEB00
0E905A8F10
1F70B46F20
2F72D06F20
0F98708F10
0BDD10DC00
03FD6BF400
00CDFC5000
03C0000000
ENDCHAR
STARTCHAR uni0218
ENCODING 536
SWIDTH 518 0
DWIDTH 9 0
BBX 9 18 0 -5
BITMAP
004CEE9100
05FC78EC00
0CD0005F50
0DB0001D70
0BE2000000
03EE820000
003BFFA200
000039FD10
0000005F60
3D60001F80
1EB0004F70
06FB67EE20
005CEEA200
0000000000
0000E80000
0000F70000
0003F30000
0003A00000
ENDCHAR
STARTCHAR uni0219
ENCODING 537
SWIDTH 455 0
DWIDTH 8 0
BBX 7 15 1 -5
BITMAP
08DEB200
7F86EC00
CB006E20
AE300000
2DFA3000
016DF800
1000AF30
F9004F40
AF76CE10
18DEB300
00000000
005F2000
006F1000
009C0000
00950000
ENDCHAR
STARTCHAR uni021A
ENCODING 538
SWIDTH 520 0
DWIDTH 9 0
BBX 9 18 0 -5
BITMAP
7FFFFFFFD0
3667FA6650
0002F80000
0002F80000
0002F80000
0002F80000
0002F80000
0002F80000
0002F80000
0002F80000
0002F80000
0002F80000
0002F80000
0000000000
0001F60000
0002F50000
0005F20000
0005900000
ENDCHAR
STARTCHAR uni021B
ENCODING 539
SWIDTH 295 0
DWIDTH 5 0
BBX 5 17 0 -5
BITMAP
05F300
05F300
CFFF90
38F620
05F300
05F300
05F300
05F300
05F300
05F300
03FA40
009E80
000000
003F40
004F30
007E00
006700
ENDCHAR
STARTCHAR uni0237
ENCODING 567
SWIDTH 237 0
DWIDTH 4 0
BBX 4 14 -1 -4
BITMAP
009F
009F
009F
009F
009F
009F
009F
009F
009F
009F
009F
00AE
16EA
3EB2
ENDCHAR
STARTCHAR uni0259
ENCODING 601
SWIDTH 465 0
DWIDTH 8 0
BBX 8 10 0 0
BITMAP
02BEE910
0AB67FA0
020007F3
000002F7
000000F9
1FFFFFF9
0FA555F7
0DA005F3
07F86EA0
008EE910
ENDCHAR
STARTCHAR uni02BC
ENCODING 700
SWIDTH 194 0
DWIDTH 4 0
BBX 3 4 0 10
BITMAP
0CB0
0DA0
1F60
4B00
ENDCHAR
STARTCHAR circumflex
ENCODING 710
SWIDTH 428 0
DWIDTH 8 0
BBX 5 3 1 11
BITMAP
02E900
1CAE50
4C17A0
ENDCHAR
STARTCHAR caron
ENCODING 711
SWIDTH 403 0
DWIDTH 7 0
BBX 5 3 1 11
BITMAP
8C0AA0
0D9E10
03F500
ENDCHAR
STARTCHAR uni02C9
ENCODING 713
SWIDTH 414 0
DWIDTH 7 0
BBX 6 1 1 12
BITMAP
CFFFF5
ENDCHAR
STARTCHAR breve
ENCODING 728
SWIDTH 426 0
DWIDTH 8 0
BBX 6 2 1 11
BITMAP
BA13F4
3CFE80
ENDCHAR
STARTCHAR dotaccent
ENCODING 729
SWIDTH 242 0
DWIDTH 4 0
BBX 3 2 1 11
BITMAP
7B00
8E10
ENDCHAR
STARTCHAR ring
ENCODING 730
SWIDTH 334 0
DWIDTH 6 0
BBX 4 4 1 11
BITMAP
4CC3
C13B
D12B
4CC3
ENDCHAR
STARTCHAR ogonek
ENCODING 731
SWIDTH 253 0
DWIDTH 5 0
BBX 4 5 0 -4
BITMAP
0050
0BA0
5E10
7E51
2DE2
ENDCHAR
STARTCHAR tilde
ENCODING 732
SWIDTH 427 0
DWIDTH 8 0
BBX 6 3 1 11
BITMAP
031032
6FD5D5
C55EB0
ENDCHAR
STARTCHAR hungarumlaut
ENCODING 733
SWIDTH 331 0
DWIDTH 6 0
BBX 7 3 0 11
BITMAP
04F5BD10
0BC6F400
1C4A9000
ENDCHAR
STARTCHAR uni02F3
ENCODING 755
SWIDTH 263 0
DWIDTH 5 0
BBX 3 3 1 -4
BITMAP
8E40
C490
9E40
ENDCHAR
STARTCHAR gravecomb
ENCODING 768
SWIDTH 0 0
DWIDTH 0 0
BBX 4 3 -7 11
BITMAP
1ED0
05F6
0099
ENDCHAR
STARTCHAR acutecomb
ENCODING 769
SWIDTH 0 0
DWIDTH 0 0
BBX 4 3 -5 11
BITMAP
0AF3
3F70
7B00
ENDCHAR
STARTCHAR tildecomb
ENCODING 771
SWIDTH 0 0
DWIDTH 0 0
BBX 6 3 -7 11
BITMAP
012014
1EF88B
5B1BE4
ENDCHAR
STARTCHAR hookabovecomb
ENCODING 777
SWIDTH 0 0
DWIDTH 0 0
BBX 3 4 -5 11
BITMAP
CB10
1D60
6F40
B700
ENDCHAR
STARTCHAR uni030F
ENCODING 783
SWIDTH 0 0
DWIDTH 0 0
BBX 6 2 -7 11
BITMAP
8F6E80
07E6E3
ENDCHAR
STARTCHAR dotbelowcomb
ENCODING 803
SWIDTH 0 0
DWIDTH 0 0
BBX 3 2 -7 -3
BITMAP
2E70
1C60
ENDCHAR
STARTCHAR tonos
ENCODING 900
SWIDTH 256 0
DWIDTH 5 0
BBX 3 3 1 11
BITMAP
0F70
3F20
3A00
ENDCHAR
STARTCHAR dieresistonos
ENCODING 901
SWIDTH 452 0
DWIDTH 8 0
BBX 6 3 1 11
BITMAP
006F20
B6697A
D7008C
ENDCHAR
STARTCHAR Alphatonos
ENCODING 902
SWIDTH 576 0
DWIDTH 10 0
BBX 10 14 0 0
BITMAP
03F4000000
06E0AF1000
0580EF5000
0004FDA000
0009C7E000
000E82F500
004F30C900
008E008E00
00D9003F40
03FFFFFF90
08F6666BD0
0DB00005F3
2F700001F8
7F300000CD
ENDCHAR
STARTCHAR anoteleia
ENCODING 903
SWIDTH 243 0
DWIDTH 4 0
BBX 2 2 1 5
BITMAP
9D
8C
ENDCHAR
STARTCHAR Epsilontonos
ENCODING 904
SWIDTH 496 0
DWIDTH 9 0
BBX 11 14 -2 0
BITMAP
4F3000000000
6D09FFFFFF30
6809F6666610
0009F0000000
0009F0000000
0009F0000000
0009F0000000
0009FFFFF800
0009F6666300
0009F0000000
0009F0000000
0009F0000000
0009F6666610
0009FFFFFF40
ENDCHAR
STARTCHAR Etatonos
ENCODING 905
SWIDTH 620 0
DWIDTH 11 0
BBX 12 14 -2 0
BITMAP
2F5000000000
5E09F00000DB
5909F00000DB
0009F00000DB
0009F00000DB
0009F00000DB
0009F00000DB
0009FFFFFFFB
0009F66666EB
0009F00000DB
0009F00000DB
0009F00000DB
0009F00000DB
0009F00000DB
ENDCHAR
STARTCHAR Iotatonos
ENCODING 906
SWIDTH 250 0
DWIDTH 5 0
BBX 6 14 -2 0
BITMAP
2F5000
5E18F1
4908F1
0008F1
0008F1
0008F1
0008F1
0008F1
0008F1
0008F1
0008F1
0008F1
0008F1
0008F1
ENDCHAR
STARTCHAR Omicrontonos
ENCODING 908
SWIDTH 610 0
DWIDTH 11 0
BBX 11 14 -1 0
BITMAP
0D9000000000
1F407DFD8100
2B09FB8AFB00
003F90006F50
008F20000EA0
00AE00000CC0
00BD00000BD0
00BD00000BD0
00BD00000BD0
00AE00000CC0
008F20000EA0
003F90006F50
0009FA7AFC00
00007DFE9100
ENDCHAR
STARTCHAR Upsilontonos
ENCODING 910
SWIDTH 573 0
DWIDTH 10 0
BBX 12 14 -2 0
BITMAP
6F1000000000
9A0AF30001EC
8503F90006F5
0000BE100CD0
00004F603F70
00000DC09E10
000006F3E900
000001EDF200
0000008FA000
0000003F6000
0000003F6000
0000003F6000
0000003F6000
0000003F6000
ENDCHAR
STARTCHAR Omegatonos
ENCODING 911
SWIDTH 591 0
DWIDTH 11 0
BBX 11 14 -1 0
BITMAP
0D9000000000
1F407DEB4000
2B09F96CF400
003F7000DD00
009F10007F30
00CD00004F60
00DC00003F70
00DC00002F70
00CC00003F60
009E00005F40
005F20008E00
000D9001E800
0049F92CF620
00CFFE4FFF60
ENDCHAR
STARTCHAR iotadieresistonos
ENCODING 912
SWIDTH 299 0
DWIDTH 5 0
BBX 7 14 -1 0
BITMAP
000D9000
5C1C4C40
6E102D50
00000000
005F3000
005F3000
005F3000
005F3000
005F3000
005F3000
005F3000
005F3000
003FA400
0009E800
ENDCHAR
STARTCHAR Alpha
ENCODING 913
SWIDTH 576 0
DWIDTH 10 0
BBX 10 13 0 0
BITMAP
0000AF1000
0000EF5000
0004FDA000
0009C7E000
000E82F500
004F30C900
008E008E00
00D9003F40
03FFFFFF90
08F6666BD0
0DB00005F3
2F700001F8
7F300000CD
ENDCHAR
STARTCHAR Beta
ENCODING 914
SWIDTH 545 0
DWIDTH 10 0
BBX 8 13 1 0
BITMAP
9FFFEB30
9F667EE1
9F0004F6
9F0002F8
9F0003F6
9F002BE1
9FFFFF40
9F556CE3
9F0001FA
9F0000DB
9F0001F9
9F666CF3
9FFFEC40
ENDCHAR
STARTCHAR Gamma
ENCODING 915
SWIDTH 487 0
DWIDTH 9 0
BBX 8 13 1 0
BITMAP
8FFFFFF2
8F766661
8F100000
8F100000
8F100000
8F100000
8F100000
8F100000
8F100000
8F100000
8F100000
8F100000
8F100000
ENDCHAR
STARTCHAR Delta.dup1
ENCODING 916
SWIDTH 614 0
DWIDTH 11 0
BBX 11 13 0 0
BITMAP
00004F700000
00009FC00000
0000EDF20000
0005F5F70000
000AD0CC0000
001E807F2000
005F302F6000
00BD000DB000
01F80008F100
06F30003F600
0BD00000EB00
2FB66666CF10
7FFFFFFFFF60
ENDCHAR
STARTCHAR Epsilon
ENCODING 917
SWIDTH 496 0
DWIDTH 9 0
BBX 8 13 1 0
BITMAP
9FFFFFF3
9F666661
9F000000
9F000000
9F000000
9F000000
9FFFFF80
9F666630
9F000000
9F000000
9F000000
9F666661
9FFFFFF4
ENDCHAR
STARTCHAR Zeta
ENCODING 918
SWIDTH 522 0
DWIDTH 9 0
BBX 9 13 0 0
BITMAP
2FFFFFFF60
166666BF40
000001EB00
000009F200
00002F9000
0000AE1000
0004F70000
000CD00000
006F500000
01EC000000
08F3000000
1ED6666640
3FFFFFFFA0
ENDCHAR
STARTCHAR Eta
ENCODING 919
SWIDTH 620 0
DWIDTH 11 0
BBX 9 13 1 0
BITMAP
9F00000DB0
9F00000DB0
9F00000DB0
9F00000DB0
9F00000DB0
9F00000DB0
9FFFFFFFB0
9F66666EB0
9F00000DB0
9F00000DB0
9F00000DB0
9F00000DB0
9F00000DB0
ENDCHAR
STARTCHAR Theta
ENCODING 920
SWIDTH 593 0
DWIDTH 11 0
BBX 10 13 0 0
BITMAP
0008DEB400
00BF97CF40
05F6000CD0
0BE00005F4
0FA00001F8
1F800000F9
2F87FFF4EA
1F825551F9
0FA00001F8
0BE00005F4
05F6000CD0
00BF97CF50
0018DEC400
ENDCHAR
STARTCHAR Iota
ENCODING 921
SWIDTH 250 0
DWIDTH 5 0
BBX 3 13 1 0
BITMAP
8F10
8F10
8F10
8F10
8F10
8F10
8F10
8F10
8F10
8F10
8F10
8F10
8F10
ENDCHAR
STARTCHAR Kappa
ENCODING 922
SWIDTH 544 0
DWIDTH 10 0
BBX 9 13 1 0
BITMAP
9F0001DE20
9F0009F500
9F004F9000
9F01ED1000
9F0AF30000
9F7F700000
9FFFB00000
9FC8F50000
9F20DE1000
9F004F9000
9F000AF300
9F0002EC00
9F00007F70
ENDCHAR
STARTCHAR Lambda
ENCODING 923
SWIDTH 572 0
DWIDTH 10 0
BBX 10 13 0 0
BITMAP
0000BE0000
0001FF4000
0005FF8000
000AEBD000
000EA6F300
004F52F700
008F10DC00
00DC009F10
02F7004F60
07F3000EA0
0BE0000BE0
1FA00006F4
5F500002F9
ENDCHAR
STARTCHAR Mu
ENCODING 924
SWIDTH 755 0
DWIDTH 14 0
BBX 12 13 1 0
BITMAP
9F9000001FF3
9FE000005FF3
9FF40000AFF3
9DE80000ECF3
9DAD0004F8F3
9E5F3009D5F3
9E0E800E85F3
9F0AC03F36F3
9F05F28D06F3
9F00E7D806F3
9F00ADF306F3
9F005FD006F3
9F001E9006F3
ENDCHAR
STARTCHAR Nu
ENCODING 925
SWIDTH 619 0
DWIDTH 11 0
BBX 9 13 1 0
BITMAP
9F40000DB0
9FB0000DB0
9FF4000DB0
9FBC000DB0
9F3F400DB0
9F0BC00DB0
9F03F50DB0
9F00AC0DB0
9F003F5DB0
9F000ADDB0
9F0002FFB0
9F0000AFB0
9F00002FB0
ENDCHAR
STARTCHAR Xi
ENCODING 926
SWIDTH 502 0
DWIDTH 9 0
BBX 7 13 1 0
BITMAP
EFFFFFE0
56666660
00000000
00000000
00000000
00000000
5FFFFF50
26666620
00000000
00000000
00000000
56666660
EFFFFFF0
ENDCHAR
STARTCHAR Omicron
ENCODING 927
SWIDTH 600 0
DWIDTH 11 0
BBX 9 13 1 0
BITMAP
018DFD7000
0CFA8BF900
6F60009F30
AE00002F70
DC00000EA0
EB00000EB0
EB00000EB0
EB00000EA0
DC00000FA0
BE00002F70
6F60009F30
0CF97BF900
018DFD7000
ENDCHAR
STARTCHAR Pi
ENCODING 928
SWIDTH 620 0
DWIDTH 11 0
BBX 9 13 1 0
BITMAP
8FFFFFFFA0
8F66666EA0
8F10000EA0
8F10000EA0
8F10000EA0
8F10000EA0
8F10000EA0
8F10000EA0
8F10000EA0
8F10000EA0
8F10000EA0
8F10000EA0
8F10000EA0
ENDCHAR
STARTCHAR Rho
ENCODING 929
SWIDTH 554 0
DWIDTH 10 0
BBX 9 13 1 0
BITMAP
9FFFFD7000
9F666BF700
9F0000BE10
9F00006F30
9F00006F40
9F00008F10
9F0005EB00
9FFFFFD200
9F66540000
9F00000000
9F00000000
9F00000000
9F00000000
ENDCHAR
STARTCHAR Sigma
ENCODING 931
SWIDTH 502 0
DWIDTH 9 0
BBX 9 13 0 0
BITMAP
4FFFFFFE00
2FD6666600
07F5000000
00CE100000
003FA00000
0008F50000
0001EC0000
0008F40000
003F900000
00CE100000
07F5000000
2FD6666620
4FFFFFFF40
ENDCHAR
STARTCHAR Tau
ENCODING 932
SWIDTH 520 0
DWIDTH 9 0
BBX 9 13 0 0
BITMAP
7FFFFFFFD0
3667FA6650
0002F80000
0002F80000
0002F80000
0002F80000
0002F80000
0002F80000
0002F80000
0002F80000
0002F80000
0002F80000
0002F80000
ENDCHAR
STARTCHAR Upsilon
ENCODING 933
SWIDTH 524 0
DWIDTH 9 0
BBX 9 13 0 0
BITMAP
8F40000DE0
1FA0004F70
09F200AE10
03F701F900
00BD07F200
004F5DB000
000DDF4000
0006FC0000
0001F80000
0001F80000
0001F80000
0001F80000
0001F80000
ENDCHAR
STARTCHAR Phi
ENCODING 934
SWIDTH 621 0
DWIDTH 11 0
BBX 11 13 0 0
BITMAP
00003F700000
00003F700000
003BEFFC6000
04FC9FBBF700
0CD13F70AF20
2F703F703F60
4F503F701F80
3F603F702F70
1EA03F706F30
08F74F75EB00
009FFFFFB100
00027FA30000
00003F700000
ENDCHAR
STARTCHAR Chi
ENCODING 935
SWIDTH 550 0
DWIDTH 10 0
BBX 10 13 0 0
BITMAP
2FC0000DE1
08F4005F70
01EB00CE10
008F33F700
001E9AE100
0007FF6000
0002FF1000
0008FF7000
001E9AE100
009F23F800
02FA00BE10
09F3004F80
2FB0000CF2
ENDCHAR
STARTCHAR Psi
ENCODING 936
SWIDTH 600 0
DWIDTH 11 0
BBX 10 13 0 0
BITMAP
4F508F10AE
4F508F10AE
4F508F10AE
4F508F10AE
4F608F10BE
2F708F10CC
0EC08F12F9
07F89F4CF2
00AFFFFE40
0003BF6100
00008F1000
00008F1000
00008F1000
ENDCHAR
STARTCHAR Omega.dup2
ENCODING 937
SWIDTH 581 0
DWIDTH 10 0
BBX 9 13 1 0
BITMAP
018EEA2000
0BE87DE200
6F5001EA00
BD00009F10
EB00007F30
F900005F40
F900005F50
EA00006F40
CB00007F10
8E0000BC00
2F7003F500
5BF73DE610
FFFB6FFF40
ENDCHAR
STARTCHAR Iotadieresis
ENCODING 938
SWIDTH 250 0
DWIDTH 5 0
BBX 6 16 -1 0
BITMAP
5C207B
6E309D
000000
008F10
008F10
008F10
008F10
008F10
008F10
008F10
008F10
008F10
008F10
008F10
008F10
008F10
ENDCHAR
STARTCHAR Upsilondieresis
ENCODING 939
SWIDTH 524 0
DWIDTH 9 0
BBX 9 16 0 0
BITMAP
00B801C500
00D902E600
0000000000
8F40000DE0
1FA0004F70
09F200AE10
03F701F900
00BD07F200
004F5DB000
000DDF4000
0006FC0000
0001F80000
0001F80000
0001F80000
0001F80000
0001F80000
ENDCHAR
STARTCHAR alphatonos
ENCODING 940
SWIDTH 494 0
DWIDTH 9 0
BBX 9 14 0 0
BITMAP
00007F1000
00009A0000
0000850000
0000000000
007EE7AA00
04FB6CFA00
0BD001EA00
0E9000DA00
1F7000DA00
2F7000DA00
1F8000DA00
0CD001EB00
06FA6CEE30
008EE75E70
ENDCHAR
STARTCHAR epsilontonos
ENCODING 941
SWIDTH 470 0
DWIDTH 8 0
BBX 8 14 0 0
BITMAP
0000F700
0003F200
0003A000
00000000
019EEC40
0AF75CE2
0EA002B4
0BD20000
02EFFB00
0AE64300
1F800000
1F9001F7
0AF76CF3
019DEC40
ENDCHAR
STARTCHAR etatonos
ENCODING 942
SWIDTH 498 0
DWIDTH 9 0
BBX 7 18 1 -4
BITMAP
000CA000
000E5000
001C1000
00000000
CA7EE800
CEB6BF40
CD001F80
CC000DA0
CC000DA0
CC000DA0
CC000DA0
CC000DA0
CC000DA0
CC000DA0
00000DA0
00000DA0
00000DA0
00000DA0
ENDCHAR
STARTCHAR iotatonos
ENCODING 943
SWIDTH 299 0
DWIDTH 5 0
BBX 4 14 1 0
BITMAP
0BB0
0E50
1C10
0000
5F30
5F30
5F30
5F30
5F30
5F30
5F30
5F30
3FA4
09E8
ENDCHAR
STARTCHAR upsilondieresistonos
ENCODING 944
SWIDTH 480 0
DWIDTH 9 0
BBX 7 14 1 0
BITMAP
002F5000
893C4C10
AB005E20
00000000
CB008F10
CB004F50
CB001F90
CB000EA0
CB000CB0
CB000DA0
BC001F90
9E006F40
4F96EC00
07EEA100
ENDCHAR
STARTCHAR alpha
ENCODING 945
SWIDTH 494 0
DWIDTH 9 0
BBX 9 10 0 0
BITMAP
007EE7AA00
04FB6CFA00
0BD001EA00
0E9000DA00
1F7000DA00
2F7000DA00
1F8000DA00
0CD001EB00
06FA6CEE30
008EE75E70
ENDCHAR
STARTCHAR beta
ENCODING 946
SWIDTH 517 0
DWIDTH 9 0
BBX 8 16 1 -3
BITMAP
03BED700
2EC6AF60
8F200CC0
AD000BD0
AD004E80
AD0EFC00
AD057F80
AD0008F1
AD0004F4
AD0004F4
AD0008F1
AFB68F90
AEAEE910
AD000000
AD000000
AD000000
ENDCHAR
STARTCHAR gamma
ENCODING 947
SWIDTH 444 0
DWIDTH 8 0
BBX 8 14 0 -4
BITMAP
5F3002F6
1F8006F2
0BC00AD0
07F10E80
03F53F40
00D97E00
009DBA00
004FF600
001EF200
000BD000
000BC000
000BC000
000BC000
000BC000
ENDCHAR
STARTCHAR delta
ENCODING 948
SWIDTH 498 0
DWIDTH 9 0
BBX 9 14 0 0
BITMAP
003CED6000
00DD687000
02F7000000
01FB100000
007FD50000
006EFFA000
05F61AF600
0CC000DC00
0F80009F00
1F70008F10
0E90009E00
0BD000EA00
04FB6BF300
005DFC5000
ENDCHAR
STARTCHAR epsilon
ENCODING 949
SWIDTH 470 0
DWIDTH 8 0
BBX 8 10 0 0
BITMAP
019EEC40
0AF75CE2
0EA002B4
0BD20000
02EFFB00
0AE64300
1F800000
1F9001F7
0AF76CF3
019DEC40
ENDCHAR
STARTCHAR zeta
ENCODING 950
SWIDTH 462 0
DWIDTH 8 0
BBX 7 16 1 -3
BITMAP
EFFFFF60
5555AF20
0002E700
000CC000
007F3000
02F90000
09E10000
0E800000
4F400000
6F200000
5F300000
1FC40000
04DFE700
0003BF00
00009C00
0000B300
ENDCHAR
STARTCHAR eta
ENCODING 951
SWIDTH 498 0
DWIDTH 9 0
BBX 7 14 1 -4
BITMAP
CA7EE800
CEB6BF40
CD001F80
CC000DA0
CC000DA0
CC000DA0
CC000DA0
CC000DA0
CC000DA0
CC000DA0
00000DA0
00000DA0
00000DA0
00000DA0
ENDCHAR
STARTCHAR theta
ENCODING 952
SWIDTH 496 0
DWIDTH 9 0
BBX 7 13 1 0
BITMAP
04CFC300
2EB6CE10
8F102F70
CC000DB0
EA000BD0
E9000AD0
FFFFFFD0
EB555CD0
EA000BC0
CB000DA0
8F102F70
2EB6CE10
04CFC300
ENDCHAR
STARTCHAR iota
ENCODING 953
SWIDTH 299 0
DWIDTH 5 0
BBX 4 10 1 0
BITMAP
5F30
5F30
5F30
5F30
5F30
5F30
5F30
5F30
3FA4
09E8
ENDCHAR
STARTCHAR kappa
ENCODING 954
SWIDTH 491 0
DWIDTH 9 0
BBX 8 10 1 0
BITMAP
BD003FA0
BD00CD10
BD08F400
BD4F8000
BFFD0000
BE9F5000
BD0CE100
BD03FA00
BD009F50
BD001ED1
ENDCHAR
STARTCHAR lambda
ENCODING 955
SWIDTH 485 0
DWIDTH 9 0
BBX 9 13 0 0
BITMAP
09E6000000
04DE100000
006F500000
001FA00000
000DF10000
002FF60000
007FEB0000
00CB9F1000
02F74F6000
07F20EB000
0CD009F200
2F9003FA10
6F40009E20
ENDCHAR
STARTCHAR uni03BC
ENCODING 956
SWIDTH 498 0
DWIDTH 9 0
BBX 7 14 1 -4
BITMAP
BD000DA0
BD000DA0
BD000DA0
BD000DA0
BD000DA0
BD000DA0
BD000DA0
BF100EA0
BFA5BFA0
BECF9BA0
BD000000
BD000000
BD000000
BD000000
ENDCHAR
STARTCHAR nu
ENCODING 957
SWIDTH 427 0
DWIDTH 8 0
BBX 8 10 0 0
BITMAP
7F2007F2
2F500BC0
0D900E80
09D03F40
05F26E00
01F5AA00
00B9E600
007EF200
002FD000
000D8000
ENDCHAR
STARTCHAR xi
ENCODING 958
SWIDTH 431 0
DWIDTH 8 0
BBX 8 16 0 -3
BITMAP
004BEEA0
03FC6660
08F10000
09E00000
03F91000
004FFF40
03EB6510
0CC00000
1F700000
1F800000
0DD10000
04EE8400
0028CFB0
000007F1
000009D0
00000B30
ENDCHAR
STARTCHAR omicron
ENCODING 959
SWIDTH 501 0
DWIDTH 9 0
BBX 9 10 0 0
BITMAP
005DFD5000
04FB6BF500
0CD000CC00
1F80007F10
2F60006F30
2F60005F20
1F80007F10
0CC000BD00
05FB6AF500
005DFD6000
ENDCHAR
STARTCHAR pi
ENCODING 960
SWIDTH 520 0
DWIDTH 9 0
BBX 9 10 0 0
BITMAP
8FFFFFFF90
39F756FA30
05F301F800
05F301F800
05F301F800
05F301F800
05F301F800
05F300F800
05F300DD60
05F3005ED0
ENDCHAR
STARTCHAR rho
ENCODING 961
SWIDTH 498 0
DWIDTH 9 0
BBX 7 14 1 -4
BITMAP
02BED400
1DD6BF30
6F301EA0
AE000AD0
CC0008F0
CC0008F0
CC0009E0
CD000EB0
CFA6BF50
CC9EE700
CC000000
CC000000
CC000000
CC000000
ENDCHAR
STARTCHAR sigma1
ENCODING 962
SWIDTH 472 0
DWIDTH 9 0
BBX 8 13 0 -3
BITMAP
004CEC30
03FB6CE1
0AE102F6
0E900063
1F700000
1F700000
0EA00000
0AF30000
02DE8200
0029EF90
000019F1
000009C0
00000B30
ENDCHAR
STARTCHAR sigma
ENCODING 963
SWIDTH 498 0
DWIDTH 9 0
BBX 9 10 0 0
BITMAP
004CFFFFA0
03FB6CE540
0AD001E700
0E9000AD00
1F70008F00
1F70008F10
0E9000AE00
0AE101EA00
03FB6BE200
004CFC4000
ENDCHAR
STARTCHAR tau
ENCODING 964
SWIDTH 460 0
DWIDTH 8 0
BBX 8 10 0 0
BITMAP
3FFFFFF7
155CD552
000BD000
000BD000
000BD000
000BD000
000BD000
000BD000
0008F720
0002DE50
ENDCHAR
STARTCHAR upsilon
ENCODING 965
SWIDTH 480 0
DWIDTH 9 0
BBX 7 10 1 0
BITMAP
CB008F10
CB004F50
CB001F90
CB000EA0
CB000CB0
CB000DA0
BC001F90
9E006F40
4F96EC00
07EEA100
ENDCHAR
STARTCHAR phi
ENCODING 966
SWIDTH 617 0
DWIDTH 11 0
BBX 11 14 0 -4
BITMAP
01A109EC5000
08F43F9AF400
0EB04F40CD00
2F704F406F30
3F504F404F50
3F604F404F50
1F904F407F30
0BE24F42ED00
02EEAFADF400
002AEFEA3000
00004F400000
00004F400000
00004F400000
00004F400000
ENDCHAR
STARTCHAR chi
ENCODING 967
SWIDTH 438 0
DWIDTH 8 0
BBX 9 14 0 -4
BITMAP
7E7003F500
3AF209E100
00E80E9000
009D5F3000
004FDD0000
000DF70000
0009F20000
000DF40000
004FF90000
00AE9E0000
01E93F5000
06F30DA000
0CD007F810
2F7000BE00
ENDCHAR
STARTCHAR psi
ENCODING 968
SWIDTH 612 0
DWIDTH 11 0
BBX 11 14 0 -4
BITMAP
3F506F31F900
3F506F30CD00
3F506F308F10
3F506F306F30
3F606F304F40
2F706F305F30
0EA06F309F10
0AE26F33EB00
02EDBF9EE300
002AEFEA2000
00006F300000
00006F300000
00006F300000
00006F300000
ENDCHAR
STARTCHAR omega
ENCODING 969
SWIDTH 711 0
DWIDTH 13 0
BBX 11 10 1 0
BITMAP
2F700000BD00
7F3000006F30
BD0013002F70
DB006F200F90
E9006F200DA0
E9006F200DA0
DB007F400F90
AE00AF804F60
4F97F8FAEE10
07EE609ED400
ENDCHAR
STARTCHAR iotadieresis
ENCODING 970
SWIDTH 299 0
DWIDTH 5 0
BBX 7 13 -1 0
BITMAP
2C504C20
2E605E30
00000000
005F3000
005F3000
005F3000
005F3000
005F3000
005F3000
005F3000
005F3000
003FA400
0009E800
ENDCHAR
STARTCHAR upsilondieresis
ENCODING 971
SWIDTH 480 0
DWIDTH 9 0
BBX 7 13 1 0
BITMAP
5C207A00
6E209D00
00000000
CB008F10
CB004F50
CB001F90
CB000EA0
CB000CB0
CB000DA0
BC001F90
9E006F40
4F96EC00
07EEA100
ENDCHAR
STARTCHAR omicrontonos
ENCODING 972
SWIDTH 501 0
DWIDTH 9 0
BBX 9 14 0 0
BITMAP
0000CA0000
0000F50000
0001C00000
0000000000
005DFD5000
04FB6BF500
0CD000CC00
1F80007F10
2F60006F30
2F60005F20
1F80007F10
0CC000BD00
05FB6AF500
005DFD6000
ENDCHAR
STARTCHAR upsilontonos
ENCODING 973
SWIDTH 480 0
DWIDTH 9 0
BBX 7 14 1 0
BITMAP
000F7000
003F2000
003A0000
00000000
CB008F10
CB004F50
CB001F90
CB000EA0
CB000CB0
CB000DA0
BC001F90
9E006F40
4F96EC00
07EEA100
ENDCHAR
STARTCHAR omegatonos
ENCODING 974
SWIDTH 711 0
DWIDTH 13 0
BBX 11 14 1 0
BITMAP
00000C900000
00000F400000
00001C000000
000000000000
2F700000BD00
7F3000006F30
BD0013002F70
DB006F200F90
E9006F200DA0
E9006F200DA0
DB007F400F90
AE00AF804F60
4F97F8FAEE10
07EE609ED400
ENDCHAR
STARTCHAR theta1
ENCODING 977
SWIDTH 507 0
DWIDTH 9 0
BBX 8 13 1 0
BITMAP
006DE800
02FB9F50
06F30E80
05F30EA0
02F80EA0
00AF7EA1
C809FFF9
F9002EB2
F9000EA0
EA000E90
BD003F60
4FB6CE10
06DFC300
ENDCHAR
STARTCHAR Upsilon1
ENCODING 978
SWIDTH 465 0
DWIDTH 8 0
BBX 9 13 0 0
BITMAP
DC10008E50
8F8002FB20
0BE008F200
05F40DB000
00EA4F5000
008FBE0000
002FF80000
000BF20000
0009F00000
0009F00000
0009F00000
0009F00000
0009F00000
ENDCHAR
STARTCHAR omega1
ENCODING 982
SWIDTH 678 0
DWIDTH 12 0
BBX 12 10 0 0
BITMAP
3FFFFFFFFFFA
1AF755555ED4
0AE000000AE0
0CC009E008F1
0DB009E006F2
0DB00AE006F2
0BC00BF007F1
09E00EF30AD0
04F89D9C6E80
007ED31BEB10
ENDCHAR
STARTCHAR uni0400
ENCODING 1024
SWIDTH 496 0
DWIDTH 9 0
BBX 8 17 1 0
BITMAP
09F50000
01CE1000
002D5000
00000000
9FFFFFF3
9F666661
9F000000
9F000000
9F000000
9F000000
9FFFFF80
9F666630
9F000000
9F000000
9F000000
9F666661
9FFFFFF4
ENDCHAR
STARTCHAR uni0401
ENCODING 1025
SWIDTH 496 0
DWIDTH 9 0
BBX 8 16 1 0
BITMAP
0B801C50
0D902E60
00000000
9FFFFFF3
9F666661
9F000000
9F000000
9F000000
9F000000
9FFFFF80
9F666630
9F000000
9F000000
9F000000
9F666661
9FFFFFF4
ENDCHAR
STARTCHAR uni0402
ENCODING 1026
SWIDTH 650 0
DWIDTH 12 0
BBX 11 13 0 0
BITMAP
8FFFFFFFC000
366BF7665000
0008F1000000
0008F1000000
0008F1000000
0008FBEFC400
0008FB88DF40
0008F1001EB0
0008F1000BE0
0008F1000AE0
0008F1000DB0
0008F104AF40
0008F10BC500
ENDCHAR
STARTCHAR uni0403
ENCODING 1027
SWIDTH 487 0
DWIDTH 9 0
BBX 8 17 1 0
BITMAP
0000BF30
0006F600
000A9000
00000000
8FFFFFF2
8F766661
8F100000
8F100000
8F100000
8F100000
8F100000
8F100000
8F100000
8F100000
8F100000
8F100000
8F100000
ENDCHAR
STARTCHAR uni0404
ENCODING 1028
SWIDTH 589 0
DWIDTH 11 0
BBX 9 13 1 0
BITMAP
007DFD7000
09FA6AF700
4F8000AE10
9F10005F40
CC00001420
EB00000000
EFFFFC0000
EC66640000
DC00001310
AE10005F40
4F6000AE10
0AF86AF700
008DFD6000
ENDCHAR
STARTCHAR uni0405
ENCODING 1029
SWIDTH 518 0
DWIDTH 9 0
BBX 9 13 0 0
BITMAP
004CEE9100
05FC78EC00
0CD0005F50
0DB0001D70
0BE2000000
03EE820000
003BFFA200
000039FD10
0000005F60
3D60001F80
1EB0004F70
06FB67EE20
005CEEA200
ENDCHAR
STARTCHAR uni0406
ENCODING 1030
SWIDTH 250 0
DWIDTH 5 0
BBX 3 13 1 0
BITMAP
8F10
8F10
8F10
8F10
8F10
8F10
8F10
8F10
8F10
8F10
8F10
8F10
8F10
ENDCHAR
STARTCHAR uni0407
ENCODING 1031
SWIDTH 250 0
DWIDTH 5 0
BBX 6 16 -1 0
BITMAP
5C207B
6E309D
000000
008F10
008F10
008F10
008F10
008F10
008F10
008F10
008F10
008F10
008F10
008F10
008F10
008F10
ENDCHAR
STARTCHAR uni0408
ENCODING 1032
SWIDTH 483 0
DWIDTH 9 0
BBX 8 13 0 0
BITMAP
000003F6
000003F6
000003F6
000003F6
000003F6
000003F6
000003F6
000003F6
000003F6
5B2004F5
5F6007F3
0DE78FB0
02AEEA10
ENDCHAR
STARTCHAR uni0409
ENCODING 1033
SWIDTH 923 0
DWIDTH 17 0
BBX 16 13 0 0
BITMAP
002FFFFFFA000000
003F9666FA000000
003F5000FA000000
004F5000FA000000
004F4000FA000000
005F4000FFFFEB40
005F3000FC667DF3
006F2000FA0002FA
007F1000FA0000CD
009E0000FA0000CC
00DB0000FA0002F9
3AF50000FC667DF2
7E800000FFFFFC40
ENDCHAR
STARTCHAR uni040A
ENCODING 1034
SWIDTH 927 0
DWIDTH 17 0
BBX 15 13 1 0
BITMAP
8F10000EA0000000
8F10000EA0000000
8F10000EA0000000
8F10000EA0000000
8F10000EA0000000
8F10000EFFFFC400
8FFFFFFFC666CF30
8F66666EA0001EA0
8F10000EA0000BD0
8F10000EA0000BD0
8F10000EA0001EA0
8F10000EC778DF30
8F10000EFFFFC400
ENDCHAR
STARTCHAR uni040B
ENCODING 1035
SWIDTH 705 0
DWIDTH 13 0
BBX 12 13 0 0
BITMAP
5FFFFFFFF000
266AF8666000
0006F3000000
0006F3000000
0006F3000000
0006FCEFD810
0006FB769F90
0006F3000AF1
0006F30006F3
0006F30006F4
0006F30006F4
0006F30006F4
0006F30006F4
ENDCHAR
STARTCHAR uni040C
ENCODING 1036
SWIDTH 544 0
DWIDTH 10 0
BBX 9 17 1 0
BITMAP
0001DE2000
0009F40000
001C700000
0000000000
9F0001DE20
9F0009F500
9F004F9000
9F01ED1000
9F0AF30000
9F7F700000
9FFFB00000
9FC8F50000
9F20DE1000
9F004F9000
9F000AF300
9F0002EC00
9F00007F70
ENDCHAR
STARTCHAR uni040D
ENCODING 1037
SWIDTH 619 0
DWIDTH 11 0
BBX 9 17 1 0
BITMAP
00BF300000
002EC00000
0004D30000
0000000000
8F10003FA0
8F1000AFA0
8F1002FFA0
8F100A9EA0
8F102F2EA0
8F109A0EA0
8F11F30EA0
8F18B00EA0
8F2E300EA0
8F9B000EA0
8FE4000EA0
8FC0000EA0
8F50000EA0
ENDCHAR
STARTCHAR uni040E
ENCODING 1038
SWIDTH 547 0
DWIDTH 10 0
BBX 10 16 0 0
BITMAP
008D22E700
001AEE9000
0000000000
1EC0000CF1
0AF2002FB0
04F7007F60
00DC00BF10
008F21FA00
002F76F500
000CDBE100
0006FFA000
0001FF4000
0000BE0000
0001E90000
005AF30000
00CD600000
ENDCHAR
STARTCHAR uni040F
ENCODING 1039
SWIDTH 621 0
DWIDTH 11 0
BBX 9 16 1 -3
BITMAP
8F10000EA0
8F10000EA0
8F10000EA0
8F10000EA0
8F10000EA0
8F10000EA0
8F10000EA0
8F10000EA0
8F10000EA0
8F10000EA0
8F10000EA0
8F66666EA0
8FFFFFFFA0
0003F70000
0003F70000
0003F70000
ENDCHAR
STARTCHAR uni0410
ENCODING 1040
SWIDTH 576 0
DWIDTH 10 0
BBX 10 13 0 0
BITMAP
0000AF1000
0000EF5000
0004FDA000
0009C7E000
000E82F500
004F30C900
008E008E00
00D9003F40
03FFFFFF90
08F6666BD0
0DB00005F3
2F700001F8
7F300000CD
ENDCHAR
STARTCHAR uni0411
ENCODING 1041
SWIDTH 549 0
DWIDTH 10 0
BBX 9 13 1 0
BITMAP
AFFFFFF000
AE66666000
AE00000000
AE00000000
AE00000000
AFFFFD7000
AE666AF700
AE0000BE00
AE00007F20
AE00007F20
AE0000CE00
AE666BF700
AFFFFD7000
ENDCHAR
STARTCHAR uni0412
ENCODING 1042
SWIDTH 545 0
DWIDTH 10 0
BBX 8 13 1 0
BITMAP
9FFFEB30
9F667EE1
9F0004F6
9F0002F8
9F0003F6
9F002BE1
9FFFFF40
9F556CE3
9F0001FA
9F0000DB
9F0001F9
9F666CF3
9FFFEC40
ENDCHAR
STARTCHAR uni0413
ENCODING 1043
SWIDTH 487 0
DWIDTH 9 0
BBX 8 13 1 0
BITMAP
8FFFFFF2
8F766661
8F100000
8F100000
8F100000
8F100000
8F100000
8F100000
8F100000
8F100000
8F100000
8F100000
8F100000
ENDCHAR
STARTCHAR uni0414
ENCODING 1044
SWIDTH 660 0
DWIDTH 12 0
BBX 12 16 0 -3
BITMAP
000DFFFFFC00
000DC666DC00
000EA000CC00
000FA000CC00
000F9000CC00
001F8000CC00
002F7000CC00
004F6000CC00
006F3000CC00
00AE0000CC00
01EA0000CC00
39F86666DD62
8FFFFFFFFFF4
8F20000005F4
8F20000005F4
8F20000005F4
ENDCHAR
STARTCHAR uni0415
ENCODING 1045
SWIDTH 496 0
DWIDTH 9 0
BBX 8 13 1 0
BITMAP
9FFFFFF3
9F666661
9F000000
9F000000
9F000000
9F000000
9FFFFF80
9F666630
9F000000
9F000000
9F000000
9F666661
9FFFFFF4
ENDCHAR
STARTCHAR uni0416
ENCODING 1046
SWIDTH 791 0
DWIDTH 14 0
BBX 14 13 0 0
BITMAP
2FC0009F0006F7
09F3009F000DD0
02FA009F005F60
009F209F00BD00
001F809F03F600
0008E19F09D000
0003FFFFFF9000
000AF7BF6CE100
003FA09F05F800
00BF209F00CF20
04FA009F004F90
0CF2009F000CF3
5FA0009F0004FB
ENDCHAR
STARTCHAR uni0417
ENCODING 1047
SWIDTH 517 0
DWIDTH 9 0
BBX 9 13 0 0
BITMAP
006CFD9100
07FB79FA00
0EC0008F20
1840004F50
0000005F40
000003DC00
0008FFE200
000368EC00
0000005F50
2A40002F80
1FA0006F60
09FA68ED10
006CED9100
ENDCHAR
STARTCHAR uni0418
ENCODING 1048
SWIDTH 619 0
DWIDTH 11 0
BBX 9 13 1 0
BITMAP
8F10003FA0
8F1000AFA0
8F1002FFA0
8F100A9EA0
8F102F2EA0
8F109A0EA0
8F11F30EA0
8F18B00EA0
8F2E300EA0
8F9B000EA0
8FE4000EA0
8FC0000EA0
8F50000EA0
ENDCHAR
STARTCHAR uni0419
ENCODING 1049
SWIDTH 619 0
DWIDTH 11 0
BBX 9 17 1 0
BITMAP
0010001000
00E816F100
004CFD5000
0000000000
8F10003FA0
8F1000AFA0
8F1002FFA0
8F100A9EA0
8F102F2EA0
8F109A0EA0
8F11F30EA0
8F18B00EA0
8F2E300EA0
8F9B000EA0
8FE4000EA0
8FC0000EA0
8F50000EA0
ENDCHAR
STARTCHAR uni041A
ENCODING 1050
SWIDTH 560 0
DWIDTH 10 0
BBX 9 13 1 0
BITMAP
8F1000AF50
8F1005FA00
8F101DE100
8F109F5000
8F14FA0000
8F6DE10000
8FFFC00000
8F17F70000
8F10CE2000
8F103FB000
8F1009F500
8F1001DE10
8F10005FA0
ENDCHAR
STARTCHAR uni041B
ENCODING 1051
SWIDTH 615 0
DWIDTH 11 0
BBX 10 13 0 0
BITMAP
002FFFFFF9
003F9666F9
003F5000F9
004F5000F9
004F4000F9
005F4000F9
005F3000F9
006F3000F9
007F1000F9
009E0000F9
00DB0000F9
3AF50000F9
7E800000F9
ENDCHAR
STARTCHAR uni041C
ENCODING 1052
SWIDTH 755 0
DWIDTH 14 0
BBX 12 13 1 0
BITMAP
9F9000001FF3
9FE000005FF3
9FF40000AFF3
9DE80000ECF3
9DAD0004F8F3
9E5F3009D5F3
9E0E800E85F3
9F0AC03F36F3
9F05F28D06F3
9F00E7D806F3
9F00ADF306F3
9F005FD006F3
9F001E9006F3
ENDCHAR
STARTCHAR uni041D
ENCODING 1053
SWIDTH 620 0
DWIDTH 11 0
BBX 9 13 1 0
BITMAP
9F00000DB0
9F00000DB0
9F00000DB0
9F00000DB0
9F00000DB0
9F00000DB0
9FFFFFFFB0
9F66666EB0
9F00000DB0
9F00000DB0
9F00000DB0
9F00000DB0
9F00000DB0
ENDCHAR
STARTCHAR uni041E
ENCODING 1054
SWIDTH 600 0
DWIDTH 11 0
BBX 9 13 1 0
BITMAP
018DFD7000
0CFA8BF900
6F60009F30
AE00002F70
DC00000EA0
EB00000EB0
EB00000EB0
EB00000EA0
DC00000FA0
BE00002F70
6F60009F30
0CF97BF900
018DFD7000
ENDCHAR
STARTCHAR uni041F
ENCODING 1055
SWIDTH 620 0
DWIDTH 11 0
BBX 9 13 1 0
BITMAP
8FFFFFFFA0
8F66666EA0
8F10000EA0
8F10000EA0
8F10000EA0
8F10000EA0
8F10000EA0
8F10000EA0
8F10000EA0
8F10000EA0
8F10000EA0
8F10000EA0
8F10000EA0
ENDCHAR
STARTCHAR uni0420
ENCODING 1056
SWIDTH 554 0
DWIDTH 10 0
BBX 9 13 1 0
BITMAP
9FFFFD7000
9F666BF700
9F0000BE10
9F00006F30
9F00006F40
9F00008F10
9F0005EB00
9FFFFFD200
9F66540000
9F00000000
9F00000000
9F00000000
9F00000000
ENDCHAR
STARTCHAR uni0421
ENCODING 1057
SWIDTH 566 0
DWIDTH 10 0
BBX 9 13 1 0
BITMAP
018DFD7000
0BF96AF800
5F6000AF10
AE00005F40
DC00001420
EB00000000
EB00000000
EB00000000
DC00001410
AE00005F40
6F5000AF10
0CE86AF800
019EFD7000
ENDCHAR
STARTCHAR uni0422
ENCODING 1058
SWIDTH 520 0
DWIDTH 9 0
BBX 9 13 0 0
BITMAP
7FFFFFFFD0
3667FA6650
0002F80000
0002F80000
0002F80000
0002F80000
0002F80000
0002F80000
0002F80000
0002F80000
0002F80000
0002F80000
0002F80000
ENDCHAR
STARTCHAR uni0423
ENCODING 1059
SWIDTH 547 0
DWIDTH 10 0
BBX 10 13 0 0
BITMAP
1EC0000CF1
0AF2002FB0
04F7007F60
00DC00BF10
008F21FA00
002F76F500
000CDBE100
0006FFA000
0001FF4000
0000BE0000
0001E90000
005AF30000
00CD600000
ENDCHAR
STARTCHAR uni0424
ENCODING 1060
SWIDTH 676 0
DWIDTH 12 0
BBX 12 14 0 -1
BITMAP
00000AE00000
00000AE00000
0019EFFEB300
01DD7BE6BF40
09E10AE00BD0
0E800AE005F4
2F600AE002F6
2F600AE002F6
0E800AE005F4
09E10AE00BD0
01DD7CE6CF40
0019EFFEB300
00000AE00000
00000AE00000
ENDCHAR
STARTCHAR uni0425
ENCODING 1061
SWIDTH 550 0
DWIDTH 10 0
BBX 10 13 0 0
BITMAP
2FC0000DE1
08F4005F70
01EB00CE10
008F33F700
001E9AE100
0007FF6000
0002FF1000
0008FF7000
001E9AE100
009F23F800
02FA00BE10
09F3004F80
2FB0000CF2
ENDCHAR
STARTCHAR uni0426
ENCODING 1062
SWIDTH 639 0
DWIDTH 12 0
BBX 10 16 1 -3
BITMAP
8F10000EA0
8F10000EA0
8F10000EA0
8F10000EA0
8F10000EA0
8F10000EA0
8F10000EA0
8F10000EA0
8F10000EA0
8F10000EA0
8F10000EA0
8F66666EC5
8FFFFFFFFC
00000000BC
00000000BB
00000000BB
ENDCHAR
STARTCHAR uni0427
ENCODING 1063
SWIDTH 600 0
DWIDTH 11 0
BBX 9 13 1 0
BITMAP
CD00004F50
CD00004F50
CD00004F50
CD00004F50
CD00004F50
AE00004F50
6F81139F50
09FFFFFF50
0025535F50
0000004F50
0000004F50
0000004F50
0000004F50
ENDCHAR
STARTCHAR uni0428
ENCODING 1064
SWIDTH 814 0
DWIDTH 15 0
BBX 13 13 1 0
BITMAP
8F1007F2006F30
8F1007F2006F30
8F1007F2006F30
8F1007F2006F30
8F1007F2006F30
8F1007F2006F30
8F1007F2006F30
8F1007F2006F30
8F1007F2006F30
8F1007F2006F30
8F1007F2006F30
8F666AF7669F30
8FFFFFFFFFFF30
ENDCHAR
STARTCHAR uni0429
ENCODING 1065
SWIDTH 841 0
DWIDTH 15 0
BBX 14 16 1 -3
BITMAP
8F1007F2006F30
8F1007F2006F30
8F1007F2006F30
8F1007F2006F30
8F1007F2006F30
8F1007F2006F30
8F1007F2006F30
8F1007F2006F30
8F1007F2006F30
8F1007F2006F30
8F1007F2006F30
8F666AF7669F71
8FFFFFFFFFFFF4
000000000003F4
000000000003F3
000000000003F3
ENDCHAR
STARTCHAR uni042A
ENCODING 1066
SWIDTH 651 0
DWIDTH 12 0
BBX 11 13 0 0
BITMAP
9FFFC0000000
355DC0000000
000CC0000000
000CC0000000
000CC0000000
000CFFFFD600
000CD666CF50
000CC0000DC0
000CC0000AF0
000CC0000AE0
000CC0000EC0
000CD666CF40
000CFFFFC500
ENDCHAR
STARTCHAR uni042B
ENCODING 1067
SWIDTH 755 0
DWIDTH 14 0
BBX 12 13 1 0
BITMAP
8F10000008F1
8F10000008F1
8F10000008F1
8F10000008F1
8F10000008F1
8FFFFD8008F1
8F7669F908F1
8F10009F18F1
8F10005F48F1
8F10005F48F1
8F1000AF18F1
8F6669F908F1
8FFFFD8008F1
ENDCHAR
STARTCHAR uni042C
ENCODING 1068
SWIDTH 551 0
DWIDTH 10 0
BBX 9 13 1 0
BITMAP
AE00000000
AE00000000
AE00000000
AE00000000
AE00000000
AFFFFD7000
AE666AF700
AE0000BE00
AE00007F20
AE00007F20
AE0000CE00
AE666BF700
AFFFFD7000
ENDCHAR
STARTCHAR uni042D
ENCODING 1069
SWIDTH 589 0
DWIDTH 11 0
BBX 9 13 1 0
BITMAP
019EFC4000
0BF87CF500
5F6000CE10
8F10005F50
2300001F80
0000000F90
001FFFFFA0
0016666F90
2300001F80
8F10004F50
4F5000BE10
0BE86AF500
019EFC5000
ENDCHAR
STARTCHAR uni042E
ENCODING 1070
SWIDTH 765 0
DWIDTH 14 0
BBX 13 13 1 0
BITMAP
8F1004CEEA2000
8F105FC89EE100
8F10EC1003F900
8F14F60000BE00
8F16F300008F10
8F17F200008F20
8FFFF200008F20
8F6AF200008F20
8F17F300009F10
8F14F60000BE00
8F11EC0003F900
8F106FC79EE200
8F1005CFEA2000
ENDCHAR
STARTCHAR uni042F
ENCODING 1071
SWIDTH 562 0
DWIDTH 10 0
BBX 8 13 1 0
BITMAP
02BEFFF9
1EE866F9
7F4000F9
AE0000F9
BE0000F9
9F2000F9
2FB200F9
04EFFFF9
01EB66F9
07F300F9
1EB000F9
7F4000F9
EC0000F9
ENDCHAR
STARTCHAR uni0430
ENCODING 1072
SWIDTH 479 0
DWIDTH 9 0
BBX 7 10 1 0
BITMAP
06DEC400
6F96CE10
AB004F50
00003F60
06CFFF60
7F835F60
DA003F60
E9004F60
BE88EF60
2BED4F90
ENDCHAR
STARTCHAR uni0431
ENCODING 1073
SWIDTH 484 0
DWIDTH 9 0
BBX 9 14 0 0
BITMAP
000000D700
00027DF400
004EFD6000
01EB300000
08C0000000
0C8AED7000
0FEA6BF500
1FC000DC00
2F80009E00
1F70008F10
0E80009E00
0BD000DB00
03FA6BF300
005DFC5000
ENDCHAR
STARTCHAR uni0432
ENCODING 1074
SWIDTH 503 0
DWIDTH 9 0
BBX 8 10 1 0
BITMAP
BFFFD810
BD558F80
BD000BC0
BD003E90
BFFFFD10
BD446EA0
BD0008F1
BD0008F1
BD556EB0
BFFFEA20
ENDCHAR
STARTCHAR uni0433
ENCODING 1075
SWIDTH 371 0
DWIDTH 7 0
BBX 6 10 1 0
BITMAP
BFFFF6
BD5552
BD0000
BD0000
BD0000
BD0000
BD0000
BD0000
BD0000
BD0000
ENDCHAR
STARTCHAR uni0434
ENCODING 1076
SWIDTH 536 0
DWIDTH 10 0
BBX 9 13 0 -3
BITMAP
006FFFFE00
007F88CE00
007F109E00
007F109E00
008F009E00
00AD009E00
00CB009E00
03F6009E00
2BF655BE50
7FFFFFFFF0
7F100008F0
7F100008F0
8F100008F0
ENDCHAR
STARTCHAR uni0435
ENCODING 1077
SWIDTH 468 0
DWIDTH 8 0
BBX 8 10 0 0
BITMAP
006DFC40
05F96BF2
0CB001F8
0F7000DA
2FFFFFFB
2F955554
0F800000
0DC00020
06FA67E6
007DFD80
ENDCHAR
STARTCHAR uni0436
ENCODING 1078
SWIDTH 662 0
DWIDTH 12 0
BBX 12 10 0 0
BITMAP
3FA00CB00CE1
09F20CB04F80
02F90CB0BE10
008F1CB3F700
001FFFFFE000
006F8ED9F400
00DC0CB0DC00
06F60CB07F40
0DE00CB01FC0
6F700CB009F5
ENDCHAR
STARTCHAR uni0437
ENCODING 1079
SWIDTH 446 0
DWIDTH 8 0
BBX 8 10 0 0
BITMAP
019EEA20
0AE76EB0
0D7009E0
00001CC0
005FFE30
00267EB0
000007F1
2F7008F1
0CE66EB0
01AEEA10
ENDCHAR
STARTCHAR uni0438
ENCODING 1080
SWIDTH 509 0
DWIDTH 9 0
BBX 7 10 1 0
BITMAP
BD000ED0
BD006FD0
BD00DFD0
BD05DBD0
BD0C7BD0
BD4E1BD0
BDC80BD0
BFE10BD0
BF800BD0
BF200BD0
ENDCHAR
STARTCHAR uni0439
ENCODING 1081
SWIDTH 509 0
DWIDTH 9 0
BBX 7 14 1 0
BITMAP
01000100
0E816F10
04CFD500
00000000
BD000ED0
BD006FD0
BD00DFD0
BD05DBD0
BD0C7BD0
BD4E1BD0
BDC80BD0
BFE10BD0
BF800BD0
BF200BD0
ENDCHAR
STARTCHAR uni043A
ENCODING 1082
SWIDTH 479 0
DWIDTH 9 0
BBX 8 10 1 0
BITMAP
AD002EB0
AD00BE20
AD06F500
AD1E9000
AFFF1000
AE7F8000
AD0AF200
AD02EB00
AD008F60
AD001DE1
ENDCHAR
STARTCHAR uni043B
ENCODING 1083
SWIDTH 509 0
DWIDTH 9 0
BBX 8 10 0 0
BITMAP
00AFFFFD
00BD55CD
00BB00AD
00CB00AD
00DA00AD
00D900AD
00F800AD
03F500AD
3CF100AD
8E6000AD
ENDCHAR
STARTCHAR uni043C
ENCODING 1084
SWIDTH 645 0
DWIDTH 12 0
BBX 10 10 1 0
BITMAP
BF70000CF5
BFC0002FF5
BFF2007FF5
BDE700CDF5
BD9C02F8F5
BD4F27E4F5
BD0E6C94F5
BD09CF34F5
BD03FD04F5
BD00D804F5
ENDCHAR
STARTCHAR uni043D
ENCODING 1085
SWIDTH 508 0
DWIDTH 9 0
BBX 7 10 1 0
BITMAP
BD000BD0
BD000BD0
BD000BD0
BD000BD0
BFFFFFD0
BE555CD0
BD000BD0
BD000BD0
BD000BD0
BD000BD0
ENDCHAR
STARTCHAR uni043E
ENCODING 1086
SWIDTH 501 0
DWIDTH 9 0
BBX 9 10 0 0
BITMAP
005DFD5000
04FB6BF500
0CD000CC00
1F80007F10
2F60006F30
2F60005F20
1F80007F10
0CC000BD00
05FB6AF500
005DFD6000
ENDCHAR
STARTCHAR uni043F
ENCODING 1087
SWIDTH 509 0
DWIDTH 9 0
BBX 7 10 1 0
BITMAP
BFFFFFD0
BE555CD0
BD000BD0
BD000BD0
BD000BD0
BD000BD0
BD000BD0
BD000BD0
BD000BD0
BD000BD0
ENDCHAR
STARTCHAR uni0440
ENCODING 1088
SWIDTH 493 0
DWIDTH 9 0
BBX 7 14 1 -4
BITMAP
C99EE800
CFA6BF60
CC000DC0
CB0009F0
CB0008F0
CB0008F0
CB0009F0
CC000DC0
CF96AF60
CB9EE800
CB000000
CB000000
CB000000
CB000000
ENDCHAR
STARTCHAR uni0441
ENCODING 1089
SWIDTH 461 0
DWIDTH 8 0
BBX 8 10 0 0
BITMAP
007DEC40
07F96BF2
0DB001E8
1F700064
2F600000
2F600000
1F700022
0DA000E8
07F96AE2
007DFC40
ENDCHAR
STARTCHAR uni0442
ENCODING 1090
SWIDTH 424 0
DWIDTH 8 0
BBX 8 10 0 0
BITMAP
8FFFFFF3
255FB551
000F9000
000F9000
000F9000
000F9000
000F9000
000F9000
000F9000
000F9000
ENDCHAR
STARTCHAR uni0443
ENCODING 1091
SWIDTH 416 0
DWIDTH 8 0
BBX 8 14 0 -4
BITMAP
8F2009F1
4F500DB0
0E901F70
0BD05F30
06F19E00
02F5CA00
00DAF500
009FF100
005FC000
001F8000
001F4000
006E0000
17E90000
3EA10000
ENDCHAR
STARTCHAR uni0444
ENCODING 1092
SWIDTH 628 0
DWIDTH 11 0
BBX 11 18 0 -4
BITMAP
00003F500000
00003F500000
00003F500000
00003F500000
008EEFDEB100
06FA8F97FA00
0CC03F509F10
0F903F504F40
1F703F502F60
2F703F502F60
1F803F503F50
0DC03F508F20
07F97F97FB00
009EEFDEC200
00003F500000
00003F500000
00003F500000
00003F500000
ENDCHAR
STARTCHAR uni0445
ENCODING 1093
SWIDTH 438 0
DWIDTH 8 0
BBX 8 10 0 0
BITMAP
3F800AF2
0AE12F80
03F69E10
00ADE800
002FE100
003FE100
00BCE900
04F68F20
0BE01F90
4F7009F2
ENDCHAR
STARTCHAR uni0446
ENCODING 1094
SWIDTH 524 0
DWIDTH 9 0
BBX 8 13 1 -3
BITMAP
BD000BD0
BD000BD0
BD000BD0
BD000BD0
BD000BD0
BD000BD0
BD000BD0
BD000BD0
BE555CD4
BFFFFFFC
000000AC
000000AB
000000AB
ENDCHAR
STARTCHAR uni0447
ENCODING 1095
SWIDTH 479 0
DWIDTH 9 0
BBX 8 10 0 0
BITMAP
1F7004F5
1F7004F5
1F7004F5
0F8004F5
0BD216F5
03EFFFF5
001445F5
000004F5
000004F5
000004F5
ENDCHAR
STARTCHAR uni0448
ENCODING 1096
SWIDTH 703 0
DWIDTH 13 0
BBX 11 10 1 0
BITMAP
BD007F103F50
BD007F103F50
BD007F103F50
BD007F103F50
BD007F103F50
BD007F103F50
BD007F103F50
BD007F103F50
BE559F657F50
BFFFFFFFFF50
ENDCHAR
STARTCHAR uni0449
ENCODING 1097
SWIDTH 722 0
DWIDTH 13 0
BBX 12 13 1 -3
BITMAP
CC008F005F40
CC008F005F40
CC008F005F40
CC008F005F40
CC008F005F40
CC008F005F40
CC008F005F40
CC008F005F40
CD55AF558F72
CFFFFFFFFFF6
0000000002F5
0000000002F5
0000000002F4
ENDCHAR
STARTCHAR uni044A
ENCODING 1098
SWIDTH 538 0
DWIDTH 10 0
BBX 10 10 0 0
BITMAP
9FFF400000
358F400000
005F400000
005FFFEA10
005F756EA0
005F4009F1
005F4006F2
005F4008F0
005F756EA0
005FFFEA10
ENDCHAR
STARTCHAR uni044B
ENCODING 1099
SWIDTH 679 0
DWIDTH 12 0
BBX 10 10 1 0
BITMAP
BD000000DA
BD000000DA
BD000000DA
BFFFD600DA
BD55AF40DA
BD000EA0DA
BD000CB0DA
BD000E90DA
BD559F40DA
BFFFD600DA
ENDCHAR
STARTCHAR uni044C
ENCODING 1100
SWIDTH 478 0
DWIDTH 9 0
BBX 7 10 1 0
BITMAP
BD000000
BD000000
BD000000
BFFFD600
BD55AF40
BD000EA0
BD000CB0
BD000E90
BD559F40
BFFFD600
ENDCHAR
STARTCHAR uni044D
ENCODING 1101
SWIDTH 472 0
DWIDTH 9 0
BBX 8 10 0 0
BITMAP
008EE910
09E77F90
1F8007F2
010002F5
000CFFF7
000456F8
173003F6
0E9008F2
08F77F90
008EE900
ENDCHAR
STARTCHAR uni044E
ENCODING 1102
SWIDTH 706 0
DWIDTH 13 0
BBX 11 10 1 0
BITMAP
BD0007DFB200
BD007F96DD10
BD01EA002F70
BD04F5000CB0
BFFFF3000AD0
BD58F3000AE0
BD03F5000CC0
BD00DA002F80
BD006F96DE10
BD0006DFB200
ENDCHAR
STARTCHAR uni044F
ENCODING 1103
SWIDTH 482 0
DWIDTH 9 0
BBX 8 10 0 0
BITMAP
019EFFF6
0AE757F6
0F8003F6
1F7003F6
0DC103F6
04EFFFF6
00CD57F6
05F603F6
0CD003F6
5F5003F6
ENDCHAR
STARTCHAR uni0450
ENCODING 1104
SWIDTH 468 0
DWIDTH 8 0
BBX 8 14 0 0
BITMAP
01ED1000
004F9000
0008C100
00000000
006DFC40
05F96BF2
0CB001F8
0F7000DA
2FFFFFFB
2F955554
0F800000
0DC00020
06FA67E6
007DFD80
ENDCHAR
STARTCHAR uni0451
ENCODING 1105
SWIDTH 468 0
DWIDTH 8 0
BBX 8 13 0 0
BITMAP
03C306B1
04E407D1
00000000
006DFC40
05F96BF2
0CB001F8
0F7000DA
2FFFFFFB
2F955554
0F800000
0DC00020
06FA67E6
007DFD80
ENDCHAR
STARTCHAR uni0452
ENCODING 1106
SWIDTH 482 0
DWIDTH 9 0
BBX 8 18 0 -4
BITMAP
0DB00000
0DB00000
FFFFC000
5DC54000
0DB8ED70
0DFC6CF2
0DD102F6
0DB000F8
0DB000F8
0DB000F8
0DB000F8
0DB000F8
0DB000F8
0DB000F8
000000F8
000001F7
000049F3
00009E70
ENDCHAR
STARTCHAR uni0453
ENCODING 1107
SWIDTH 371 0
DWIDTH 7 0
BBX 6 14 1 0
BITMAP
003FB0
00DD10
04D300
000000
BFFFF6
BD5552
BD0000
BD0000
BD0000
BD0000
BD0000
BD0000
BD0000
BD0000
ENDCHAR
STARTCHAR uni0454
ENCODING 1108
SWIDTH 472 0
DWIDTH 9 0
BBX 8 10 0 0
BITMAP
004CEC40
03FB6BF2
0AD001E8
0E800065
1FFFF300
0FA55100
0E900022
0AE000D9
03FB6BF3
005CFC40
ENDCHAR
STARTCHAR uni0455
ENCODING 1109
SWIDTH 455 0
DWIDTH 8 0
BBX 7 10 1 0
BITMAP
08DEB200
7F86EC00
CB006E20
AE300000
2DFA3000
016DF800
1000AF30
F9004F40
AF76CE10
18DEB300
ENDCHAR
STARTCHAR uni0456
ENCODING 1110
SWIDTH 229 0
DWIDTH 4 0
BBX 2 14 1 0
BITMAP
79
9C
00
00
BD
BD
BD
BD
BD
BD
BD
BD
BD
BD
ENDCHAR
STARTCHAR uni0457
ENCODING 1111
SWIDTH 234 0
DWIDTH 4 0
BBX 6 13 -1 0
BITMAP
6C1099
8E10BB
000000
00BD00
00BD00
00BD00
00BD00
00BD00
00BD00
00BD00
00BD00
00BD00
00BD00
ENDCHAR
STARTCHAR uni0458
ENCODING 1112
SWIDTH 223 0
DWIDTH 4 0
BBX 4 18 -1 -4
BITMAP
0098
00B9
0000
0000
00CB
00CB
00CB
00CB
00CB
00CB
00CB
00CB
00CB
00CB
00CB
00CB
17F8
2EC2
ENDCHAR
STARTCHAR uni0459
ENCODING 1113
SWIDTH 729 0
DWIDTH 13 0
BBX 13 10 0 0
BITMAP
00BFFFF8000000
00BD55F8000000
00CB00F8000000
00CA00F8000000
00DA00FFFFC400
00E900FB56BF20
00F700F8002F60
03F500F8002F60
4DE100FA55BE20
8E5000FFFFC400
ENDCHAR
STARTCHAR uni045A
ENCODING 1114
SWIDTH 743 0
DWIDTH 13 0
BBX 12 10 1 0
BITMAP
BD000BD00000
BD000BD00000
BD000BD00000
BD000BD00000
BFFFFFFFFD70
BE555CE559F6
BD000BD000DB
BD000BD000DA
BD000BD559F6
BD000BFFFD70
ENDCHAR
STARTCHAR uni045B
ENCODING 1115
SWIDTH 499 0
DWIDTH 9 0
BBX 8 14 0 0
BITMAP
0DB00000
0DB00000
CFFFE000
4DC55000
0DB8ED70
0DFC6CF2
0DD102F6
0DB000F8
0DB000F8
0DB000F8
0DB000F8
0DB000F8
0DB000F8
0DB000F8
ENDCHAR
STARTCHAR uni045C
ENCODING 1116
SWIDTH 479 0
DWIDTH 9 0
BBX 8 14 1 0
BITMAP
0006F800
002EB000
006C1000
00000000
AD002EB0
AD00BE20
AD06F500
AD1E9000
AFFF1000
AE7F8000
AD0AF200
AD02EB00
AD008F60
AD001DE1
ENDCHAR
STARTCHAR uni045D
ENCODING 1117
SWIDTH 509 0
DWIDTH 9 0
BBX 7 14 1 0
BITMAP
0BF30000
02EC0000
004D3000
00000000
BD000ED0
BD006FD0
BD00DFD0
BD05DBD0
BD0C7BD0
BD4E1BD0
BDC80BD0
BFE10BD0
BF800BD0
BF200BD0
ENDCHAR
STARTCHAR uni045E
ENCODING 1118
SWIDTH 416 0
DWIDTH 8 0
BBX 8 18 0 -4
BITMAP
00000100
09C23E60
01AEE900
00000000
8F2009F1
4F500DB0
0E901F70
0BD05F30
06F19E00
02F5CA00
00DAF500
009FF100
005FC000
001F8000
001F4000
006E0000
17E90000
3EA10000
ENDCHAR
STARTCHAR uni045F
ENCODING 1119
SWIDTH 509 0
DWIDTH 9 0
BBX 7 13 1 -3
BITMAP
BD000BD0
BD000BD0
BD000BD0
BD000BD0
BD000BD0
BD000BD0
BD000BD0
BD000BD0
BE555CD0
BFFFFFD0
003F6000
003F6000
003F6000
ENDCHAR
STARTCHAR uni0460
ENCODING 1120
SWIDTH 754 0
DWIDTH 14 0
BBX 12 13 1 0
BITMAP
BE000FA003F6
BE000FA003F6
BE000FA003F6
BE000FA003F6
BE000FA003F6
BE000FA003F6
BE000FA003F6
BE000FA003F6
BE000FA003F6
AE000FB004F5
8F103FD006F3
3FB7DDFA7EC0
05DFB25DEB20
ENDCHAR
STARTCHAR uni0461
ENCODING 1121
SWIDTH 650 0
DWIDTH 12 0
BBX 10 10 1 0
BITMAP
E900DA00CB
E900DA00CB
E900DA00CB
E900DA00CB
E900DA00CB
E900DA00CB
E900DA00CB
DB01FC00E9
8F7AEF89F5
1AED47ED70
ENDCHAR
STARTCHAR uni0462
ENCODING 1122
SWIDTH 551 0
DWIDTH 10 0
BBX 11 13 -1 0
BITMAP
00AE00000000
00AE00000000
4FFFF8000000
15CE52000000
00AE00000000
00AFFFFD7000
00AE666AF700
00AE0000BE00
00AE00007F20
00AE00007F20
00AE0000CE00
00AE666BF700
00AFFFFD7000
ENDCHAR
STARTCHAR uni0463
ENCODING 1123
SWIDTH 477 0
DWIDTH 9 0
BBX 9 14 -1 0
BITMAP
00BD000000
00BD000000
00BD000000
2FFFFF3000
15CD551000
00BD000000
00BD000000
00BFFFD600
00BD55AF40
00BD000EA0
00BD000CB0
00BD000E90
00BD55AF40
00BFFFD600
ENDCHAR
STARTCHAR uni0464
ENCODING 1124
SWIDTH 772 0
DWIDTH 14 0
BBX 12 13 1 0
BITMAP
8F1003BEE910
8F104FC78EC0
8F10DD0006F5
8F14F60001F9
8F17F2000033
8F19F0000000
8FFFFFFFF000
8F6BF5555000
8F19F1000022
8F16F40000F9
8F11FA0005F5
8F107FA68EB0
8F1005CFE910
ENDCHAR
STARTCHAR uni0465
ENCODING 1125
SWIDTH 646 0
DWIDTH 12 0
BBX 10 10 1 0
BITMAP
BC004CFD50
BC02FC6AF4
BC09E100CB
BC0CB00056
BFFFFFFC00
BD5EC55400
BC0BC00023
BC07F200CB
BC01EC69F4
BC003BED50
ENDCHAR
STARTCHAR uni0466
ENCODING 1126
SWIDTH 526 0
DWIDTH 9 0
BBX 10 13 0 0
BITMAP
0000CD0000
0002FF3000
0006FF7000
000BCCB000
001E88F100
005F44F500
009F11F900
00DC00CE00
03FFFFFF30
07F8ED8F70
0CD0CB0EC0
1F90CB09F1
6F40CB04F6
ENDCHAR
STARTCHAR uni0467
ENCODING 1127
SWIDTH 470 0
DWIDTH 8 0
BBX 8 10 0 0
BITMAP
000AE000
001EF500
005FE900
00AD8E00
00E84F40
04F40E90
09FFFFE0
0EBBF8F4
4F59E0E9
9E19E0AE
ENDCHAR
STARTCHAR uni0468
ENCODING 1128
SWIDTH 759 0
DWIDTH 14 0
BBX 13 13 1 0
BITMAP
6F30000EC00000
6F30003FF10000
6F30007FF50000
6F3000BBDA0000
6F3001F79E0000
6F3005F35F3000
6F3009E02F8000
6F300DA00DC000
6FFFFFFFFFF200
6F86BF7EC9F600
6F30CC0EA1EA00
6F32F70EA0AE00
6F37F30EA06F40
ENDCHAR
STARTCHAR uni0469
ENCODING 1129
SWIDTH 654 0
DWIDTH 12 0
BBX 11 10 1 0
BITMAP
7F1005F40000
7F100AF90000
7F101EEE0000
7F105F6F4000
7F10AD0E9000
7F10E90AE000
7FFFFFFFF400
7F6CE8F8E800
7F1E94F4AD00
7F5F44F45F30
ENDCHAR
STARTCHAR uni046A
ENCODING 1130
SWIDTH 747 0
DWIDTH 13 0
BBX 12 13 1 0
BITMAP
07FFFFFFFF20
01EE6669F900
008F400AF200
001EB02FA000
0009F39F2000
0002FAEA0000
04CEFFFFD910
3FC76FB69FA0
9F101F8009F1
BD001F8006F3
CD001F8006F3
CD001F8006F3
CD001F8006F3
ENDCHAR
STARTCHAR uni046B
ENCODING 1131
SWIDTH 645 0
DWIDTH 12 0
BBX 10 10 1 0
BITMAP
07FFFFFF30
01DD56FA00
006F37F200
000DBE9000
04CFFFEA10
3FB5EB6EB0
8F10E906F2
BD00E904F4
BC00E903F5
BC00E903F5
ENDCHAR
STARTCHAR uni046C
ENCODING 1132
SWIDTH 980 0
DWIDTH 18 0
BBX 16 13 1 0
BITMAP
8F1005FFFFFFFF50
8F1000CF7667FC00
8F10005F7007F500
8F10000DE00DD000
8F100006F66F6000
8F100000DCCD0000
8FFFFFFFFFFFEA20
8F656FE86ED68ED0
8F106F400DC006F4
8F108F100DC003F6
8F108F100DC003F7
8F108F100DC003F7
8F108F100DC003F7
ENDCHAR
STARTCHAR uni046D
ENCODING 1133
SWIDTH 856 0
DWIDTH 15 0
BBX 14 10 1 0
BITMAP
BD000AFFFFFE10
BD0002FB58F700
BD00009E1AD000
BD00002FAF6000
BFFFFFFFFFD800
BD55AF97F98F80
BD00CD02F60AE0
BD00DA02F607F1
BD00E902F606F2
BD00E902F606F2
ENDCHAR
STARTCHAR uni046E
ENCODING 1134
SWIDTH 454 0
DWIDTH 8 0
BBX 7 21 0 -4
BITMAP
01E52F30
005DB800
000AD100
00000000
0EFFC400
0556CF30
00001E90
00000BC0
00000DB0
00017F40
00EFF700
0056AF40
00000CC0
000009E0
00000CC0
0035AF60
0BFFC600
4F500000
4F300000
0DC10000
03B10000
ENDCHAR
STARTCHAR uni046F
ENCODING 1135
SWIDTH 423 0
DWIDTH 8 0
BBX 7 18 0 -4
BITMAP
07D09B00
00CAE200
003F6000
00000000
0EFFC500
0556BF40
00001F80
00006F50
00DFF900
0056AF40
00000EA0
00000EA0
0035AF50
0BFFD600
3F600000
4F400000
0DC10000
02B10000
ENDCHAR
STARTCHAR uni0470
ENCODING 1136
SWIDTH 600 0
DWIDTH 11 0
BBX 10 13 0 0
BITMAP
4F508F10AE
4F508F10AE
4F508F10AE
4F508F10AE
4F608F10BE
2F708F10CC
0EC08F12F9
07F89F4CF2
00AFFFFE40
0003BF6100
00008F1000
00008F1000
00008F1000
ENDCHAR
STARTCHAR uni0471
ENCODING 1137
SWIDTH 612 0
DWIDTH 11 0
BBX 11 14 0 -4
BITMAP
3F506F31F900
3F506F30CD00
3F506F308F10
3F506F306F30
3F606F304F40
2F706F305F30
0EA06F309F10
0AE26F33EB00
02EDBF9EE300
002AEFEA2000
00006F300000
00006F300000
00006F300000
00006F300000
ENDCHAR
STARTCHAR uni0472
ENCODING 1138
SWIDTH 593 0
DWIDTH 11 0
BBX 10 13 0 0
BITMAP
0008DEB400
00BF97CF40
05F6000CD0
0BE00005F4
0FA00001F8
1F800000F9
2FFFFFFFFA
1FA55555F9
0FA00002F8
0BD00005F4
05F6000CD0
00BF97CF50
0018DEC400
ENDCHAR
STARTCHAR uni0473
ENCODING 1139
SWIDTH 497 0
DWIDTH 9 0
BBX 9 10 0 0
BITMAP
004CFC4000
03FB6BF300
0AD000DB00
0E80008F00
1FFFFFFF20
1FA555AF20
0E90009F10
0AE101EC00
03FB6BF400
004CFC5000
ENDCHAR
STARTCHAR uni0474
ENCODING 1140
SWIDTH 553 0
DWIDTH 10 0
BBX 10 13 0 0
BITMAP
8F300003D6
4F70000CE3
0EB0002F70
0AE0006F20
06F300AD00
01F700E900
00CB02F500
008E06F100
003F4AB000
000E8D7000
000ADF3000
0005FE0000
0001FA0000
ENDCHAR
STARTCHAR uni0475
ENCODING 1141
SWIDTH 443 0
DWIDTH 8 0
BBX 8 10 0 0
BITMAP
5F3002CB
1F7009E6
0CA00E90
08E02F50
03F26F10
00E69C00
00AAC700
006DF300
001FE000
000CA000
ENDCHAR
STARTCHAR uni0476
ENCODING 1142
SWIDTH 553 0
DWIDTH 10 0
BBX 10 16 0 0
BITMAP
09E6E80000
007E6E3000
0000000000
8F300003D6
4F70000CE3
0EB0002F70
0AE0006F20
06F300AD00
01F700E900
00CB02F500
008E06F100
003F4AB000
000E8D7000
000ADF3000
0005FE0000
0001FA0000
ENDCHAR
STARTCHAR uni0477
ENCODING 1143
SWIDTH 443 0
DWIDTH 8 0
BBX 8 13 0 0
BITMAP
5F7CB000
04E6D600
00000000
5F3002CB
1F7009E6
0CA00E90
08E02F50
03F26F10
00E69C00
00AAC700
006DF300
001FE000
000CA000
ENDCHAR
STARTCHAR uni0478
ENCODING 1144
SWIDTH 1017 0
DWIDTH 18 0
BBX 17 17 1 -4
BITMAP
018DFD700000000000
0CFA8BF90000000000
6F60009F3000000000
AE00002F70BE000CC0
DC00000EA07F301F80
EB00000EB03F604F40
EB00000EB00DA08E00
EB00000EA009E0BB00
DC00000FA005F3F700
BE00002F7001F9F300
6F60009F3000CFE000
0CF97BF900007F9000
018DFD7000003F5000
0000000000004F1000
0000000000008C0000
000000000038F60000
00000000005E900000
ENDCHAR
STARTCHAR uni0479
ENCODING 1145
SWIDTH 918 0
DWIDTH 17 0
BBX 17 14 0 -4
BITMAP
005DFD5008F2009F10
04FB6BF504F600CB00
0CD000CC00EA01F700
1F80007F10AD05F300
2F60006F306F28E000
2F60005F202F6CA000
1F80007F100DAF6000
0CC000BD0008FF2000
05FB6AF50004FD0000
005DFD600000E90000
000000000001F50000
000000000005E10000
00000000017E900000
0000000002EB100000
ENDCHAR
STARTCHAR uni047A
ENCODING 1146
SWIDTH 593 0
DWIDTH 11 0
BBX 10 17 0 -2
BITMAP
0000010000
00007F2000
0019EFD500
00BFCFDF50
05F6251CD0
0BD00005F4
0EA00001F7
1F800000F9
2F800000EA
1F800000F9
0EA00001F7
0BD00005F4
05F5251BD0
00CFCFCF60
0019EFD600
00007F2000
0000120000
ENDCHAR
STARTCHAR uni047B
ENCODING 1147
SWIDTH 498 0
DWIDTH 9 0
BBX 9 12 0 -1
BITMAP
0004F40000
005EFE6000
04FCFCF400
0BD131DB00
0F80008F00
1F70006F20
1F70006F20
0F80008F00
0BD141DB00
04FCFCF400
005EFE6000
0004F40000
ENDCHAR
STARTCHAR uni047C
ENCODING 1148
SWIDTH 752 0
DWIDTH 14 0
BBX 12 17 1 0
BITMAP
000001000000
0003EFB52000
0008927CE100
000009B00000
05D50A90AB20
2FC20B205EB0
8F20000008F2
AE00000005F4
BE00000004F5
BE00074004F5
BE000F9004F5
BE000F9004F5
BE000F9004F5
AE000FA005F4
8F203FD008F2
2FC7DDFA7EB0
05DFB25DFB20
ENDCHAR
STARTCHAR uni047D
ENCODING 1149
SWIDTH 654 0
DWIDTH 12 0
BBX 10 15 1 0
BITMAP
0000100000
000CFD7310
003E14BE60
00003F1000
00005E0000
09A0760C70
7F600008F4
CB000000E9
E9000000CB
E9006500CC
E900DA00CC
E900DA00CB
CB01EC00E9
7F7AEF88F4
09ED46EE70
ENDCHAR
STARTCHAR uni047E
ENCODING 1150
SWIDTH 754 0
DWIDTH 14 0
BBX 12 16 1 0
BITMAP
003FFFFFE000
00000D800000
000000000000
BE000FA003F6
BE000FA003F6
BE000FA003F6
BE000FA003F6
BE000FA003F6
BE000FA003F6
BE000FA003F6
BE000FA003F6
BE000FA003F6
AE000FB004F5
8F103FD006F3
3FB7DDFA7EC0
05DFB25DEB20
ENDCHAR
STARTCHAR uni047F
ENCODING 1151
SWIDTH 650 0
DWIDTH 12 0
BBX 10 13 1 0
BITMAP
02FFFFFF10
0000C90000
0000000000
E900DA00CB
E900DA00CB
E900DA00CB
E900DA00CB
E900DA00CB
E900DA00CB
E900DA00CB
DB01FC00E9
8F7AEF89F5
1AED47ED70
ENDCHAR
STARTCHAR uni0480
ENCODING 1152
SWIDTH 570 0
DWIDTH 10 0
BBX 9 16 1 -3
BITMAP
018EFC4000
0BF87CF500
6F6000DD00
BE00008F10
EB00002410
FA00000000
F900000000
F900000000
DB00000000
BD00000000
5F50000000
0CE7500000
01AFF10000
0008F10000
0008F10000
0008F10000
ENDCHAR
STARTCHAR uni0481
ENCODING 1153
SWIDTH 472 0
DWIDTH 9 0
BBX 8 13 0 -3
BITMAP
004CEB20
03FB6CD1
0BE102F6
0F900073
1F700000
1F700000
0F900000
0BD00000
04FA4100
005DF400
0005F400
0005F400
0005F400
ENDCHAR
STARTCHAR uni0482
ENCODING 1154
SWIDTH 547 0
DWIDTH 10 0
BBX 8 12 1 0
BITMAP
000003F2
004109A0
00CD5F30
0019FD00
0001FEC2
0007C1BA
C71E5001
4EDD0000
02FE6000
06E6E800
0D702400
5E100000
ENDCHAR
STARTCHAR uni0483
ENCODING 1155
SWIDTH 0 0
DWIDTH 0 0
BBX 6 4 -7 10
BITMAP
0000A9
CFFFFA
C90000
110000
ENDCHAR
STARTCHAR uni0484
ENCODING 1156
SWIDTH 0 0
DWIDTH 0 0
BBX 6 3 -7 11
BITMAP
000010
138EFA
9EA32F
ENDCHAR
STARTCHAR uni0485
ENCODING 1157
SWIDTH 0 0
DWIDTH 0 0
BBX 2 3 -5 11
BITMAP
CA
8B
1A
ENDCHAR
STARTCHAR uni0486
ENCODING 1158
SWIDTH 0 0
DWIDTH 0 0
BBX 3 3 -5 11
BITMAP
0D90
0E50
2900
ENDCHAR
STARTCHAR uni0488
ENCODING 1160
SWIDTH 0 0
DWIDTH 0 0
BBX 18 16 -14 -3
BITMAP
00000002CE50000000
0000000873C0000000
000000000000000000
002DE50000001BE800
00873C000000592C20
000000000000000000
000000000000000000
09EB00000000004DD3
2C1A5000000000A55A
000000000000000000
000000000000000000
000000000000000000
003DE40000001CE700
00964B000000682D10
00000002CE60000000
0000000782D0000000
ENDCHAR
STARTCHAR uni0489
ENCODING 1161
SWIDTH 0 0
DWIDTH 0 0
BBX 18 17 -14 -4
BITMAP
000000001D00000000
000000006B00000000
00064000B800000000
0004D100110005C300
0000C7000000AD4000
000031000000110000
000000000000000000
1DA60000000000B820
027B000000000059C2
000000000000000000
000000000000000000
000012000000030000
0004DC0000006D0000
002C600001000D5000
000000006D00037000
000000009700000000
00000000C200000000
ENDCHAR
STARTCHAR uni048A
ENCODING 1162
SWIDTH 666 0
DWIDTH 12 0
BBX 11 20 1 -4
BITMAP
007D22D80000
0019EEA10000
000000000000
8F10003FA000
8F1000AFA000
8F1002FFA000
8F100A9EA000
8F102F2EA000
8F109A0EA000
8F11F30EA000
8F18B00EA000
8F2E300EA000
8F9B000EA000
8FE4000EA000
8FC0000EA000
8F50000EEE40
000000004F40
000000006F20
00000000BC00
00000000B400
ENDCHAR
STARTCHAR uni048B
ENCODING 1163
SWIDTH 550 0
DWIDTH 10 0
BBX 9 17 1 -4
BITMAP
07D22D8000
01AEEA1000
0000000000
BD000ED000
BD006FD000
BD00DFD000
BD05DBD000
BD0C7BD000
BD4E1BD000
BDC80BD000
BFE10BD000
BF800BD000
BF200BEE70
0000002F70
0000004F50
0000008E10
0000009600
ENDCHAR
STARTCHAR uni048C
ENCODING 1164
SWIDTH 551 0
DWIDTH 10 0
BBX 11 13 -1 0
BITMAP
00AE00000000
00AE00000000
4FFFF8000000
15CE52000000
00AE00000000
00AFFFFD7000
00AE666AF700
00AE0000BE00
00AE00007F20
00AE00007F20
00AE0000CE00
00AE666BF700
00AFFFFD7000
ENDCHAR
STARTCHAR uni048D
ENCODING 1165
SWIDTH 477 0
DWIDTH 9 0
BBX 9 15 -1 0
BITMAP
0089000000
00BD000000
2FFFFF3000
15CD551000
00BD000000
00BD000000
00BD000000
00BD000000
00BFFFD600
00BD55AF40
00BD000EA0
00BD000CB0
00BD000E90
00BD55AF40
00BFFFD600
ENDCHAR
STARTCHAR uni048E
ENCODING 1166
SWIDTH 557 0
DWIDTH 10 0
BBX 9 13 1 0
BITMAP
9FFFFD7000
9F666BF800
9F0000BE10
9F00006F40
9F00036F40
9F001EDF20
9F0009FB00
9FFFFFFD10
9F66541D40
9F00000100
9F00000000
9F00000000
9F00000000
ENDCHAR
STARTCHAR uni048F
ENCODING 1167
SWIDTH 496 0
DWIDTH 9 0
BBX 7 14 1 -4
BITMAP
CA9EE600
CFA7CF40
CC001EA0
CB000AE0
CB0008F0
CB0008F0
CB005AD0
CC02FFA0
CFA5DF60
CB9EECD0
CB000140
CB000000
CB000000
CB000000
ENDCHAR
STARTCHAR uni0490
ENCODING 1168
SWIDTH 479 0
DWIDTH 9 0
BBX 7 16 1 0
BITMAP
000008E0
000008F0
000008F0
AFFFFFF0
AE666660
AE000000
AE000000
AE000000
AE000000
AE000000
AE000000
AE000000
AE000000
AE000000
AE000000
AE000000
ENDCHAR
STARTCHAR uni0491
ENCODING 1169
SWIDTH 395 0
DWIDTH 7 0
BBX 6 13 1 0
BITMAP
0002C4
0003F5
0003F5
CFFFF5
CD5552
CC0000
CC0000
CC0000
CC0000
CC0000
CC0000
CC0000
CC0000
ENDCHAR
STARTCHAR uni0492
ENCODING 1170
SWIDTH 487 0
DWIDTH 9 0
BBX 9 13 0 0
BITMAP
08FFFFFF20
08F7666610
08F1000000
08F1000000
08F1000000
08F1000000
EFFFD00000
4AF6400000
08F1000000
08F1000000
08F1000000
08F1000000
08F1000000
ENDCHAR
STARTCHAR uni0493
ENCODING 1171
SWIDTH 371 0
DWIDTH 7 0
BBX 7 10 0 0
BITMAP
0BFFFF60
0BD55520
0BD00000
0BD00000
DFFFE000
4CD54000
0BD00000
0BD00000
0BD00000
0BD00000
ENDCHAR
STARTCHAR uni0494
ENCODING 1172
SWIDTH 539 0
DWIDTH 10 0
BBX 8 16 1 -3
BITMAP
8FFFFFF2
8F766661
8F100000
8F100000
8F100000
8F100000
8FFFD700
8F77AFA0
8F1007F5
8F1001E9
8F1000DB
8F1000CC
8F1000DA
000002F7
00004CE1
0000BB30
ENDCHAR
STARTCHAR uni0495
ENCODING 1173
SWIDTH 443 0
DWIDTH 8 0
BBX 7 12 1 -2
BITMAP
CFFFF500
CD555200
CC000000
CC000000
CFFD7000
CD7BF800
CC00AF10
CC005F40
CC004F40
CC009F10
0008F800
000A8000
ENDCHAR
STARTCHAR uni0496
ENCODING 1174
SWIDTH 833 0
DWIDTH 15 0
BBX 15 17 0 -4
BITMAP
2FC0009F0006F700
09F3009F000DD000
02FA009F005F6000
009F209F00BD0000
001F809F03F60000
0008E19F09D00000
0003FFFFFF900000
000AF7BF6CE10000
003FA09F05F80000
00BF209F00CF2000
04FA009F004F9000
0CF2009F000CF300
5FA0009F0004FF90
0000000000000E90
0000000000000E90
0000000000000E90
0000000000000E90
ENDCHAR
STARTCHAR uni0497
ENCODING 1175
SWIDTH 696 0
DWIDTH 13 0
BBX 13 14 0 -4
BITMAP
3FA00CB00CE100
09F20CB04F8000
02F90CB0BE1000
008F1CB3F70000
001FFFFFE00000
006F8ED9F40000
00DC0CB0DC0000
06F60CB07F4000
0DE00CB01FC000
6F700CB009FF10
00000000008F10
00000000008F10
00000000008F10
00000000008F10
ENDCHAR
STARTCHAR uni0498
ENCODING 1176
SWIDTH 517 0
DWIDTH 9 0
BBX 9 18 0 -5
BITMAP
006CFD9100
07FB79FA00
0EC0008F20
1840004F50
0000005F40
000003DC00
0008FFE200
000368EC00
0000005F50
2A40002F80
1FA0006F60
09FA68ED10
006CED9100
0002F60000
0002F60000
0002F60000
0002F60000
0002F60000
ENDCHAR
STARTCHAR uni0499
ENCODING 1177
SWIDTH 446 0
DWIDTH 8 0
BBX 8 15 0 -5
BITMAP
019EEA20
0AE76EB0
0D7009E0
00001CC0
005FFE30
00267EB0
000007F1
2F7008F1
0CE66EB0
01AEEA10
000BC000
000BC000
000BC000
000BC000
000BC000
ENDCHAR
STARTCHAR uni049A
ENCODING 1178
SWIDTH 617 0
DWIDTH 11 0
BBX 10 17 1 -4
BITMAP
8F1000AF50
8F1005FA00
8F101DE100
8F109F5000
8F14FA0000
8F6DE10000
8FFFC00000
8F17F70000
8F10CE2000
8F103FB000
8F1009F500
8F1001DE10
8F10005FF4
00000004F4
00000004F4
00000004F4
00000004F4
ENDCHAR
STARTCHAR uni049B
ENCODING 1179
SWIDTH 524 0
DWIDTH 9 0
BBX 8 14 1 -4
BITMAP
AD002EB0
AD00BE20
AD06F500
AD1E9000
AFFF1000
AE7F8000
AD0AF200
AD02EB00
AD008F60
AD001DFF
000000AD
000000AD
000000AD
000000AD
ENDCHAR
STARTCHAR uni049C
ENCODING 1180
SWIDTH 553 0
DWIDTH 10 0
BBX 9 13 1 0
BITMAP
AE00009F30
AE0001EB00
AE0005F500
AE130BD000
AE6C2F6000
AE6C7E0000
AFFFFA0000
AFAEBF1000
AE6C3F8000
AE370BE100
AE0005F800
AE0000DE10
AE00007F70
ENDCHAR
STARTCHAR uni049D
ENCODING 1181
SWIDTH 498 0
DWIDTH 9 0
BBX 8 10 1 0
BITMAP
BD0007F5
BD000DB0
BD796F30
BD8BC900
BFFFF300
BEBDE900
BD8B9F20
BD112F90
BD000BF2
BD0005F9
ENDCHAR
STARTCHAR uni049E
ENCODING 1182
SWIDTH 570 0
DWIDTH 10 0
BBX 10 13 0 0
BITMAP
05F40007F8
05F4002ED0
DFFFD0AF40
49F744FA00
05F40DE200
05F47F6000
05FFFE0000
05F89F6000
05F40CE200
05F403FB00
05F4007F70
05F4000CF2
05F40003FC
ENDCHAR
STARTCHAR uni049F
ENCODING 1183
SWIDTH 462 0
DWIDTH 8 0
BBX 9 14 -1 0
BITMAP
009E000000
7FFFF50000
25BF520000
009E000000
009E005F70
009E00CD00
009E05F500
009E0DB000
009FFF4000
009F5E9000
009E07F300
009E01EB00
009E007F50
009E000DD0
ENDCHAR
STARTCHAR uni04A0
ENCODING 1184
SWIDTH 710 0
DWIDTH 13 0
BBX 13 13 0 0
BITMAP
5FFFFB0001EE10
2555EB0009F600
0000DB003FB000
0000DB00CF2000
0000DB06F80000
0000DB1ED00000
0000DFFF600000
0000DD6ED10000
0000DB05F90000
0000DB00AF4000
0000DB001ED100
0000DB0005F900
0000DB0000AF40
ENDCHAR
STARTCHAR uni04A1
ENCODING 1185
SWIDTH 607 0
DWIDTH 11 0
BBX 11 10 0 0
BITMAP
5FFFF400AF30
2558F405F700
0004F41EB000
0004F49E2000
0004FFF80000
0004F9CD1000
0004F43F9000
0004F40AF300
0004F402EC00
0004F4007F70
ENDCHAR
STARTCHAR uni04A2
ENCODING 1186
SWIDTH 662 0
DWIDTH 12 0
BBX 11 17 1 -4
BITMAP
9F00000DB000
9F00000DB000
9F00000DB000
9F00000DB000
9F00000DB000
9F00000DB000
9FFFFFFFB000
9F66666EB000
9F00000DB000
9F00000DB000
9F00000DB000
9F00000DB000
9F00000DFF10
000000007F10
000000007F10
000000007F10
000000007F10
ENDCHAR
STARTCHAR uni04A3
ENCODING 1187
SWIDTH 541 0
DWIDTH 10 0
BBX 9 14 1 -4
BITMAP
BD000BD000
BD000BD000
BD000BD000
BD000BD000
BFFFFFD000
BE555CD000
BD000BD000
BD000BD000
BD000BD000
BD000BFF30
0000006F30
0000006F30
0000006F30
0000006F30
ENDCHAR
STARTCHAR uni04A4
ENCODING 1188
SWIDTH 829 0
DWIDTH 15 0
BBX 14 13 1 0
BITMAP
9F00000DFFFFF3
9F00000DD55551
9F00000DB00000
9F00000DB00000
9F00000DB00000
9F00000DB00000
9FFFFFFFB00000
9F66666EB00000
9F00000DB00000
9F00000DB00000
9F00000DB00000
9F00000DB00000
9F00000DB00000
ENDCHAR
STARTCHAR uni04A5
ENCODING 1189
SWIDTH 614 0
DWIDTH 11 0
BBX 10 10 1 0
BITMAP
CC000CFFF5
CC000CD552
CC000CB000
CC000CB000
CFFFFFB000
CD555DB000
CC000CB000
CC000CB000
CC000CB000
CC000CB000
ENDCHAR
STARTCHAR uni04A6
ENCODING 1190
SWIDTH 880 0
DWIDTH 16 0
BBX 14 16 1 -3
BITMAP
8FFFFFFFB00000
8F76666EB00000
8F10000EB00000
8F10000EB00000
8F10000EB00000
8F10000EB00000
8F10000EFFD810
8F10000EC79FC0
8F10000EB005F6
8F10000EB000DB
8F10000EB000BD
8F10000EB000AE
8F10000EB000BC
000000000001E9
00000000003BF2
00000000009C40
ENDCHAR
STARTCHAR uni04A7
ENCODING 1191
SWIDTH 755 0
DWIDTH 14 0
BBX 12 12 1 -2
BITMAP
CFFFFFB00000
CD555DB00000
CC000CB00000
CC000CB00000
CC000CFFEB30
CC000CD68EE2
CC000CB002EA
CC000CB000BD
CC000CB000AD
CC000CB000EA
000000002BF3
000000002D40
ENDCHAR
STARTCHAR uni04A8
ENCODING 1192
SWIDTH 641 0
DWIDTH 12 0
BBX 10 13 1 0
BITMAP
03C509EC30
1ED39F8DE1
7F21F903F6
CD04F500E9
EA06F300DB
F906F300DC
F906F300DB
FA05F500EB
DC02F902F9
9F20CE39F4
3F904FEFC0
07FB7DFFB6
006CEC45BC
ENDCHAR
STARTCHAR uni04A9
ENCODING 1193
SWIDTH 528 0
DWIDTH 10 0
BBX 9 10 0 0
BITMAP
00992CE600
06F5BDAF10
0CB1F71F60
0F82F60F80
1F82F60E90
0F92F81F80
0CB0DD6F60
08F27FFF10
01EC6EFD60
002BEB39D0
ENDCHAR
STARTCHAR uni04AA
ENCODING 1194
SWIDTH 566 0
DWIDTH 10 0
BBX 9 18 1 -5
BITMAP
018DFD7000
0BF96AF800
5F6000AF10
AE00005F40
DC00001420
EB00000000
EB00000000
EB00000000
DC00001410
AE00005F40
6F5000AF10
0CE86AF800
019EFD7000
0008F00000
0008F00000
0008F00000
0008F00000
0008F00000
ENDCHAR
STARTCHAR uni04AB
ENCODING 1195
SWIDTH 461 0
DWIDTH 8 0
BBX 8 15 0 -5
BITMAP
007DEC40
07F96BF2
0DB001E8
1F700065
2F600000
2F600000
1F700032
0DA000E8
07F96AE2
007DFC40
000AD000
000AD000
000AD000
000AD000
000AD000
ENDCHAR
STARTCHAR uni04AC
ENCODING 1196
SWIDTH 520 0
DWIDTH 9 0
BBX 9 17 0 -4
BITMAP
7FFFFFFFD0
3667FA6650
0002F80000
0002F80000
0002F80000
0002F80000
0002F80000
0002F80000
0002F80000
0002F80000
0002F80000
0002F80000
0002FFC000
00000CC000
00000CC000
00000CC000
00000CC000
ENDCHAR
STARTCHAR uni04AD
ENCODING 1197
SWIDTH 424 0
DWIDTH 8 0
BBX 8 14 0 -4
BITMAP
8FFFFFF3
255FB551
000F9000
000F9000
000F9000
000F9000
000F9000
000F9000
000F9000
000FFE00
00009E00
00009E00
00009E00
00009E00
ENDCHAR
STARTCHAR uni04AE
ENCODING 1198
SWIDTH 524 0
DWIDTH 9 0
BBX 9 13 0 0
BITMAP
8F40000DE0
1FA0004F70
09F200AE10
03F701F900
00BD07F200
004F5DB000
000DDF4000
0006FC0000
0001F80000
0001F80000
0001F80000
0001F80000
0001F80000
ENDCHAR
STARTCHAR uni04AF
ENCODING 1199
SWIDTH 444 0
DWIDTH 8 0
BBX 8 14 0 -4
BITMAP
5F3002F6
1F8006F2
0BC00AD0
07F10E80
03F53F40
00D97E00
009DBA00
004FF600
001EF200
000BD000
000BC000
000BC000
000BC000
000BC000
ENDCHAR
STARTCHAR uni04B0
ENCODING 1200
SWIDTH 524 0
DWIDTH 9 0
BBX 9 13 0 0
BITMAP
8F40000DE0
1FA0004F70
09F200AE10
03F701F900
00BD07F200
004F5DA000
000CDF4000
00AFFFF200
0036FA5100
0001F80000
0001F80000
0001F80000
0001F80000
ENDCHAR
STARTCHAR uni04B1
ENCODING 1201
SWIDTH 444 0
DWIDTH 8 0
BBX 8 14 0 -4
BITMAP
5F4002F6
1F8006F2
0BC00AC0
07F10E80
02F53F40
00DA8E00
008ECA00
004FF600
015FF620
04FFFF70
000BC000
000BC000
000BC000
000BC000
ENDCHAR
STARTCHAR uni04B2
ENCODING 1202
SWIDTH 559 0
DWIDTH 10 0
BBX 10 17 0 -4
BITMAP
2FC0000DE1
08F4005F70
01EB00CE10
008F33F700
001E9AE100
0007FF6000
0002FF1000
0008FF7000
001E9AE100
009F23F800
02FA00BE10
09F3004F80
2FB0000CFC
00000000DB
00000000DB
00000000DB
00000000DB
ENDCHAR
STARTCHAR uni04B3
ENCODING 1203
SWIDTH 465 0
DWIDTH 8 0
BBX 8 14 0 -4
BITMAP
3F800AF2
0AE12F80
03F69E10
00ADE800
002FE100
003FE100
00BCE900
04F68F20
0BE01F90
4F7009FF
000000AD
000000AD
000000AD
000000AD
ENDCHAR
STARTCHAR uni04B4
ENCODING 1204
SWIDTH 781 0
DWIDTH 14 0
BBX 13 16 0 -3
BITMAP
6FFFFFFA01F800
255CE55301F800
000AE00001F800
000AE00001F800
000AE00001F800
000AE00001F800
000AE00001F800
000AE00001F800
000AE00001F800
000AE00001F800
000AE00001F800
000AE66666FB40
000AFFFFFFFFA0
00000000000DA0
00000000000D90
00000000000D80
ENDCHAR
STARTCHAR uni04B5
ENCODING 1205
SWIDTH 587 0
DWIDTH 11 0
BBX 10 13 0 -3
BITMAP
9FFFFA0AE0
35BE530AE0
00AE000AE0
00AE000AE0
00AE000AE0
00AE000AE0
00AE000AE0
00AE000AE0
00AE555CE4
00AFFFFFFD
000000009C
000000009C
000000009B
ENDCHAR
STARTCHAR uni04B6
ENCODING 1206
SWIDTH 638 0
DWIDTH 12 0
BBX 10 17 1 -4
BITMAP
CD00004F50
CD00004F50
CD00004F50
CD00004F50
CD00004F50
AE00004F50
6F81139F50
09FFFFFF50
0025535F50
0000004F50
0000004F50
0000004F50
0000004FFA
00000000DA
00000000DA
00000000DA
00000000DA
ENDCHAR
STARTCHAR uni04B7
ENCODING 1207
SWIDTH 512 0
DWIDTH 9 0
BBX 9 14 0 -4
BITMAP
1F7004F500
1F7004F500
1F7004F500
0F8004F500
0BD216F500
03EFFFF500
001445F500
000004F500
000004F500
000004FFA0
0000000DA0
0000000DA0
0000000DA0
0000000DA0
ENDCHAR
STARTCHAR uni04B8
ENCODING 1208
SWIDTH 595 0
DWIDTH 11 0
BBX 9 13 1 0
BITMAP
CD00004F50
CD00004F50
CD00004F50
CD00004F50
CD01A14F50
AE02F24F50
6F72F38F50
0BFFFFFF50
0047F65F50
0002F24F50
0001814F50
0000004F50
0000004F50
ENDCHAR
STARTCHAR uni04B9
ENCODING 1209
SWIDTH 483 0
DWIDTH 9 0
BBX 7 10 1 0
BITMAP
EA001F80
EA001F80
EA261F80
DB4E1F80
9E7E2F80
2DFFFF80
017F4F80
00281F80
00001F80
00001F80
ENDCHAR
STARTCHAR uni04BA
ENCODING 1210
SWIDTH 595 0
DWIDTH 11 0
BBX 9 13 1 0
BITMAP
DB00000000
DB00000000
DB00000000
DB00000000
DB00000000
DDBEFD8100
DEA769F900
DB0000AF00
DB00006F20
DB00006F30
DB00006F30
DB00006F30
DB00006F30
ENDCHAR
STARTCHAR uni04BB
ENCODING 1211
SWIDTH 482 0
DWIDTH 9 0
BBX 7 14 1 0
BITMAP
DB000000
DB000000
DB000000
DB000000
DB8ED700
DFC6CF20
DD102F60
DB000F80
DB000F80
DB000F80
DB000F80
DB000F80
DB000F80
DB000F80
ENDCHAR
STARTCHAR uni04BC
ENCODING 1212
SWIDTH 674 0
DWIDTH 12 0
BBX 12 13 0 0
BITMAP
000007DEB200
00008F97DD10
0003F7002F80
1208F1000AD0
3F1CD00008F0
0E9DB00007F2
04EFFFFFFFF2
000EC4444440
000DC0000000
000BE0000000
0006F7000000
0000BFA78C50
000007DFDA20
ENDCHAR
STARTCHAR uni04BD
ENCODING 1213
SWIDTH 518 0
DWIDTH 9 0
BBX 10 10 -1 0
BITMAP
00006DEB20
0006F96EC0
1E2EA005F3
0DAF5001F7
05EFFFFFF8
005F855553
003F500000
000EB00050
0006FA6AF3
00006DFC40
ENDCHAR
STARTCHAR uni04BE
ENCODING 1214
SWIDTH 674 0
DWIDTH 12 0
BBX 12 18 0 -5
BITMAP
000007DEB200
00008F97DD10
0003F7002F80
1208F1000AD0
3F1CD00008F0
0E9DB00007F2
04EFFFFFFFF2
000EC4444440
000DC0000000
000BE0000000
0006F7000000
0000BFA78C50
000007DFDA20
0000005F3000
0000005F3000
0000005F3000
0000005F3000
0000005F3000
ENDCHAR
STARTCHAR uni04BF
ENCODING 1215
SWIDTH 518 0
DWIDTH 9 0
BBX 10 15 -1 -5
BITMAP
00006DEB20
0006F96EC0
1E2EA005F3
0DAF5001F7
05EFFFFFF8
005F855553
003F500000
000EB00050
0006FA6AF3
00006DFC40
000005F300
000005F300
000005F300
000005F300
000005F300
ENDCHAR
STARTCHAR uni04C0
ENCODING 1216
SWIDTH 250 0
DWIDTH 5 0
BBX 3 13 1 0
BITMAP
8F10
8F10
8F10
8F10
8F10
8F10
8F10
8F10
8F10
8F10
8F10
8F10
8F10
ENDCHAR
STARTCHAR uni04C1
ENCODING 1217
SWIDTH 791 0
DWIDTH 14 0
BBX 14 17 0 0
BITMAP
00000100010000
00005E32BA0000
000008EEB20000
00000000000000
2FC0009F0006F7
09F3009F000DD0
02FA009F005F60
009F209F00BD00
001F809F03F600
0008E19F09D000
0003FFFFFF9000
000AF7BF6CE100
003FA09F05F800
00BF209F00CF20
04FA009F004F90
0CF2009F000CF3
5FA0009F0004FB
ENDCHAR
STARTCHAR uni04C2
ENCODING 1218
SWIDTH 662 0
DWIDTH 12 0
BBX 12 14 0 0
BITMAP
000000010000
0008D22E7000
0001AEE90000
000000000000
3FA00CB00CE1
09F20CB04F80
02F90CB0BE10
008F1CB3F700
001FFFFFE000
006F8ED9F400
00DC0CB0DC00
06F60CB07F40
0DE00CB01FC0
6F700CB009F5
ENDCHAR
STARTCHAR uni04C3
ENCODING 1219
SWIDTH 553 0
DWIDTH 10 0
BBX 9 16 1 -3
BITMAP
AE0000CE20
AE0006F600
AE001EC000
AE00AF3000
AE04F80000
AE0DD00000
AFFFEA3000
AF889EE300
AE0002EB00
AE00008F20
AE00006F30
AE00005F40
AE00006F30
000000AE00
000029F700
00004D7000
ENDCHAR
STARTCHAR uni04C4
ENCODING 1220
SWIDTH 481 0
DWIDTH 9 0
BBX 7 12 1 -2
BITMAP
BD002FA0
BD00CD10
BD08F300
BD4F7000
BFFFB300
BE78DF30
BD001EB0
BD000AD0
BD0009D0
BD000DA0
0001BF30
0001C400
ENDCHAR
STARTCHAR uni04C5
ENCODING 1221
SWIDTH 662 0
DWIDTH 12 0
BBX 12 17 0 -4
BITMAP
002FFFFFF900
003F9666F900
003F5000F900
004F5000F900
004F4000F900
005F4000F900
005F3000F900
006F3000F900
007F1000F900
009E0000F900
00DB0000F900
3AF50000F900
7E800000FEE3
0000000005F4
0000000007F2
000000000CB0
000000001B30
ENDCHAR
STARTCHAR uni04C6
ENCODING 1222
SWIDTH 551 0
DWIDTH 10 0
BBX 10 14 0 -4
BITMAP
00AFFFFD00
00BD55CD00
00BB00AD00
00CB00AD00
00DA00AD00
00D900AD00
00F800AD00
03F500AD00
3CF100AD00
8E6000AEE7
00000001F8
00000003F6
00000008E1
0000000960
ENDCHAR
STARTCHAR uni04C7
ENCODING 1223
SWIDTH 620 0
DWIDTH 11 0
BBX 9 17 1 -4
BITMAP
8F10000EA0
8F10000EA0
8F10000EA0
8F10000EA0
8F10000EA0
8FFFFFFFA0
8F66666EA0
8F10000EA0
8F10000EA0
8F10000EA0
8F10000EA0
8F10000EA0
8F10000EA0
0000000EA0
0000001F90
0000049F50
000008E900
ENDCHAR
STARTCHAR uni04C8
ENCODING 1224
SWIDTH 498 0
DWIDTH 9 0
BBX 7 14 1 -4
BITMAP
CC000CB0
CC000CB0
CC000CB0
CC000CB0
CFFFFFB0
CD555DB0
CC000CB0
CC000CB0
CC000CB0
CC000CB0
00000CB0
00000DA0
00037F60
0006E900
ENDCHAR
STARTCHAR uni04C9
ENCODING 1225
SWIDTH 671 0
DWIDTH 12 0
BBX 11 17 1 -4
BITMAP
9F00000DB000
9F00000DB000
9F00000DB000
9F00000DB000
9F00000DB000
9F00000DB000
9FFFFFFFB000
9F66666EB000
9F00000DB000
9F00000DB000
9F00000DB000
9F00000DB000
9F00000DEE60
000000003F60
000000005F40
00000000AD00
00000000A500
ENDCHAR
STARTCHAR uni04CA
ENCODING 1226
SWIDTH 550 0
DWIDTH 10 0
BBX 9 14 1 -4
BITMAP
BD000BD000
BD000BD000
BD000BD000
BD000BD000
BFFFFFD000
BE555CD000
BD000BD000
BD000BD000
BD000BD000
BD000BEE70
0000002F70
0000004F50
0000008E10
0000009600
ENDCHAR
STARTCHAR uni04CB
ENCODING 1227
SWIDTH 600 0
DWIDTH 11 0
BBX 9 17 1 -4
BITMAP
CD00004F50
CD00004F50
CD00004F50
CD00004F50
CD00004F50
AE00004F50
6F81139F50
09FFFFFF50
0025535F50
0000004F50
0000004F50
0000004F50
000009FF50
000009E000
000009E000
000009E000
000009E000
ENDCHAR
STARTCHAR uni04CC
ENCODING 1228
SWIDTH 479 0
DWIDTH 9 0
BBX 8 14 0 -4
BITMAP
1F7004F5
1F7004F5
1F7004F5
0F8004F5
0BD216F5
03EFFFF5
001445F5
000004F5
000004F5
00009FF5
00009E00
00009E00
00009E00
00009E00
ENDCHAR
STARTCHAR uni04CD
ENCODING 1229
SWIDTH 801 0
DWIDTH 14 0
BBX 13 17 1 -4
BITMAP
9F9000001FF300
9FE000005FF300
9FF40000AFF300
9DE80000ECF300
9DAD0004F8F300
9E5F3009D5F300
9E0E800E85F300
9F0AC03F36F300
9F05F28D06F300
9F00E7D806F300
9F00ADF306F300
9F005FD006F300
9F001E9006FFA0
00000000000DB0
00000000000F90
00000000005F40
00000000006900
ENDCHAR
STARTCHAR uni04CE
ENCODING 1230
SWIDTH 687 0
DWIDTH 12 0
BBX 11 14 1 -4
BITMAP
BF70000CF500
BFC0002FF500
BFF2007FF500
BDE700CDF500
BD9C02F8F500
BD4F27E4F500
BD0E6C94F500
BD09CF34F500
BD03FD04F500
BD00D804FDD0
000000000AE0
000000000CC0
000000002F70
000000003B10
ENDCHAR
STARTCHAR uni04CF
ENCODING 1231
SWIDTH 250 0
DWIDTH 5 0
BBX 3 13 1 0
BITMAP
8F10
8F10
8F10
8F10
8F10
8F10
8F10
8F10
8F10
8F10
8F10
8F10
8F10
ENDCHAR
STARTCHAR uni04D0
ENCODING 1232
SWIDTH 576 0
DWIDTH 10 0
BBX 10 17 0 0
BITMAP
0001000100
004F41BB00
0007EEB200
0000000000
0000AF1000
0000EF5000
0004FDA000
0009C7E000
000E82F500
004F30C900
008E008E00
00D9003F40
03FFFFFF90
08F6666BD0
0DB00005F3
2F700001F8
7F300000CD
ENDCHAR
STARTCHAR uni04D1
ENCODING 1233
SWIDTH 479 0
DWIDTH 9 0
BBX 7 14 1 0
BITMAP
01000100
1F717E00
05DFC400
00000000
06DEC400
6F96CE10
AB004F50
00003F60
06CFFF60
7F835F60
DA003F60
E9004F60
BE88EF60
2BED4F90
ENDCHAR
STARTCHAR uni04D2
ENCODING 1234
SWIDTH 576 0
DWIDTH 10 0
BBX 10 16 0 0
BITMAP
005C207A00
006E209D00
0000000000
0000AF1000
0000EF5000
0004FDA000
0009C7E000
000E82F500
004F30C900
008E008E00
00D9003F40
03FFFFFF90
08F6666BD0
0DB00005F3
2F700001F8
7F300000CD
ENDCHAR
STARTCHAR uni04D3
ENCODING 1235
SWIDTH 479 0
DWIDTH 9 0
BBX 7 13 1 0
BITMAP
2C404C20
3E506E30
00000000
06DEC400
6F96CE10
AB004F50
00003F60
06CFFF60
7F835F60
DA003F60
E9004F60
BE88EF60
2BED4F90
ENDCHAR
STARTCHAR uni04D4
ENCODING 1236
SWIDTH 812 0
DWIDTH 15 0
BBX 15 13 0 0
BITMAP
000000BFFFFFFB00
000004FFC5555400
00000BCDA0000000
00004F4DB0000000
0000BC0CB0000000
0004F50BC0000000
000BC00BFFFFF200
004F500AE5555100
00BFFFFFD0000000
04FA888CE0000000
0BE00009F0000000
4F800008F5555510
BF200008FFFFFF30
ENDCHAR
STARTCHAR uni04D5
ENCODING 1237
SWIDTH 728 0
DWIDTH 13 0
BBX 13 10 0 0
BITMAP
019DEA17EEA100
0AF87EDF86EB00
0D9008F9005F30
000006F4002F50
02ADEFFFFFFF60
0CE648F6444420
3F6006F5000000
3F5007FA000100
1ED59FBFA58E20
04DFC606DFD700
ENDCHAR
STARTCHAR uni04D6
ENCODING 1238
SWIDTH 496 0
DWIDTH 9 0
BBX 8 17 1 0
BITMAP
01000100
0BA14F40
02BED700
00000000
9FFFFFF3
9F666661
9F000000
9F000000
9F000000
9F000000
9FFFFF80
9F666630
9F000000
9F000000
9F000000
9F666661
9FFFFFF4
ENDCHAR
STARTCHAR uni04D7
ENCODING 1239
SWIDTH 468 0
DWIDTH 8 0
BBX 8 14 0 0
BITMAP
00100010
02F519D0
006DEC30
00000000
006DFC40
05F96BF2
0CB001F8
0F7000DA
2FFFFFFB
2F955554
0F800000
0DC00020
06FA67E6
007DFD80
ENDCHAR
STARTCHAR uni04D8
ENCODING 1240
SWIDTH 597 0
DWIDTH 11 0
BBX 10 13 0 0
BITMAP
008DFEA300
00D978DE40
0000001DD0
00000006F5
00000001F8
00000000EA
3FFFFFFFFB
3F955555FA
2F700002F8
0EA00006F4
09F2001DD0
01DE87CE30
002AEEB300
ENDCHAR
STARTCHAR uni04D9
ENCODING 1241
SWIDTH 465 0
DWIDTH 8 0
BBX 8 10 0 0
BITMAP
02BEE910
0AB67FA0
020007F3
000002F7
000000F9
1FFFFFF9
0FA555F7
0DA005F3
07F86EA0
008EE910
ENDCHAR
STARTCHAR uni04DA
ENCODING 1242
SWIDTH 597 0
DWIDTH 11 0
BBX 10 16 0 0
BITMAP
00A801C500
00DA02E700
0000000000
008DFEA300
00D978DE40
0000001DD0
00000006F5
00000001F8
00000000EA
3FFFFFFFFB
3F955555FA
2F700002F8
0EA00006F4
09F2001DD0
01DE87CE30
002AEEB300
ENDCHAR
STARTCHAR uni04DB
ENCODING 1243
SWIDTH 465 0
DWIDTH 8 0
BBX 8 13 0 0
BITMAP
04C207B0
05E308D1
00000000
02BEE910
0AB67FA0
020007F3
000002F7
000000F9
1FFFFFF9
0FA555F7
0DA005F3
07F86EA0
008EE910
ENDCHAR
STARTCHAR uni04DC
ENCODING 1244
SWIDTH 791 0
DWIDTH 14 0
BBX 14 16 0 0
BITMAP
00006C108A0000
00007E10AC0000
00000000000000
2FC0009F0006F7
09F3009F000DD0
02FA009F005F60
009F209F00BD00
001F809F03F600
0008E19F09D000
0003FFFFFF9000
000AF7BF6CE100
003FA09F05F800
00BF209F00CF20
04FA009F004F90
0CF2009F000CF3
5FA0009F0004FB
ENDCHAR
STARTCHAR uni04DD
ENCODING 1245
SWIDTH 662 0
DWIDTH 12 0
BBX 12 13 0 0
BITMAP
0008A00B7000
000AC00D9000
000000000000
3FA00CB00CE1
09F20CB04F80
02F90CB0BE10
008F1CB3F700
001FFFFFE000
006F8ED9F400
00DC0CB0DC00
06F60CB07F40
0DE00CB01FC0
6F700CB009F5
ENDCHAR
STARTCHAR uni04DE
ENCODING 1246
SWIDTH 517 0
DWIDTH 9 0
BBX 9 16 0 0
BITMAP
01C603C300
01E804E500
0000000000
006CFD9100
07FB79FA00
0EC0008F20
1840004F50
0000005F40
000003DC00
0008FFE200
000368EC00
0000005F50
2A40002F80
1FA0006F60
09FA68ED10
006CED9100
ENDCHAR
STARTCHAR uni04DF
ENCODING 1247
SWIDTH 446 0
DWIDTH 8 0
BBX 8 13 0 0
BITMAP
07B00A80
09D00CA0
00000000
019EEA20
0AE76EB0
0D7009E0
00001CC0
005FFE30
00267EB0
000007F1
2F7008F1
0CE66EB0
01AEEA10
ENDCHAR
STARTCHAR uni04E0
ENCODING 1248
SWIDTH 510 0
DWIDTH 9 0
BBX 8 13 1 0
BITMAP
BFFFFFB0
46669F60
0001EA00
000BD100
008E2000
00DFC600
0045AF60
00000CD0
000008F1
B60008F2
DC000CE0
6FB6BF70
07DFD600
ENDCHAR
STARTCHAR uni04E1
ENCODING 1249
SWIDTH 510 0
DWIDTH 9 0
BBX 8 13 1 -3
BITMAP
BFFFFFA0
4555BF50
0002E900
000CD100
008F3000
00DFB500
0046AF50
00000CD0
000008F0
B60007F1
DC000CD0
6FA6AF60
06DFD600
ENDCHAR
STARTCHAR uni04E2
ENCODING 1250
SWIDTH 619 0
DWIDTH 11 0
BBX 9 17 1 0
BITMAP
0044444100
00EFFFF300
0000000000
0000000000
8F10003FA0
8F1000AFA0
8F1002FFA0
8F100A9EA0
8F102F2EA0
8F109A0EA0
8F11F30EA0
8F18B00EA0
8F2E300EA0
8F9B000EA0
8FE4000EA0
8FC0000EA0
8F50000EA0
ENDCHAR
STARTCHAR uni04E3
ENCODING 1251
SWIDTH 509 0
DWIDTH 9 0
BBX 7 14 1 0
BITMAP
04444410
0EFFFF30
00000000
00000000
BD000ED0
BD006FD0
BD00DFD0
BD05DBD0
BD0C7BD0
BD4E1BD0
BDC80BD0
BFE10BD0
BF800BD0
BF200BD0
ENDCHAR
STARTCHAR uni04E4
ENCODING 1252
SWIDTH 619 0
DWIDTH 11 0
BBX 9 16 1 0
BITMAP
01C603C300
02E704E400
0000000000
8F10003FA0
8F1000AFA0
8F1002FFA0
8F100A9EA0
8F102F2EA0
8F109A0EA0
8F11F30EA0
8F18B00EA0
8F2E300EA0
8F9B000EA0
8FE4000EA0
8FC0000EA0
8F50000EA0
ENDCHAR
STARTCHAR uni04E5
ENCODING 1253
SWIDTH 509 0
DWIDTH 9 0
BBX 7 13 1 0
BITMAP
1C603C30
2E704E40
00000000
BD000ED0
BD006FD0
BD00DFD0
BD05DBD0
BD0C7BD0
BD4E1BD0
BDC80BD0
BFE10BD0
BF800BD0
BF200BD0
ENDCHAR
STARTCHAR uni04E6
ENCODING 1254
SWIDTH 600 0
DWIDTH 11 0
BBX 9 16 1 0
BITMAP
02C405C100
03E506E200
0000000000
018DFD7000
0CFA8BF900
6F60009F30
AE00002F70
DC00000EA0
EB00000EB0
EB00000EB0
EB00000EA0
DC00000FA0
BE00002F70
6F60009F30
0CF97BF900
018DFD7000
ENDCHAR
STARTCHAR uni04E7
ENCODING 1255
SWIDTH 501 0
DWIDTH 9 0
BBX 9 13 0 0
BITMAP
02C405C100
03E506E200
0000000000
005DFD5000
04FB6BF500
0CD000CC00
1F80007F10
2F60006F30
2F60005F20
1F80007F10
0CC000BD00
05FB6AF500
005DFD6000
ENDCHAR
STARTCHAR uni04E8
ENCODING 1256
SWIDTH 593 0
DWIDTH 11 0
BBX 10 13 0 0
BITMAP
0008DEB400
00BF97CF40
05F6000CD0
0BE00005F4
0FA00001F8
1F800000F9
2FFFFFFFFA
1FA55555F9
0FA00002F8
0BD00005F4
05F6000CD0
00BF97CF50
0018DEC400
ENDCHAR
STARTCHAR uni04E9
ENCODING 1257
SWIDTH 497 0
DWIDTH 9 0
BBX 9 10 0 0
BITMAP
004CFC4000
03FB6BF300
0AD000DB00
0E80008F00
1FFFFFFF20
1FA555AF20
0E90009F10
0AE101EC00
03FB6BF400
004CFC5000
ENDCHAR
STARTCHAR uni04EA
ENCODING 1258
SWIDTH 593 0
DWIDTH 11 0
BBX 10 16 0 0
BITMAP
002C404C20
003E605E30
0000000000
0008DEB400
00BF97CF40
05F6000CD0
0BE00005F4
0FA00001F8
1F800000F9
2FFFFFFFFA
1FA55555F9
0FA00002F8
0BD00005F4
05F6000CD0
00BF97CF50
0018DEC400
ENDCHAR
STARTCHAR uni04EB
ENCODING 1259
SWIDTH 497 0
DWIDTH 9 0
BBX 9 13 0 0
BITMAP
04C206B000
05E308D100
0000000000
004CFC4000
03FB6BF300
0AD000DB00
0E80008F00
1FFFFFFF20
1FA555AF20
0E90009F10
0AE101EC00
03FB6BF400
004CFC5000
ENDCHAR
STARTCHAR uni04EC
ENCODING 1260
SWIDTH 589 0
DWIDTH 11 0
BBX 9 16 1 0
BITMAP
04C207B000
05E308D100
0000000000
019EFC4000
0BF87CF500
5F6000CE10
8F10005F50
2300001F80
0000000F90
001FFFFFA0
0016666F90
2300001F80
8F10004F50
4F5000BE10
0BE86AF500
019EFC5000
ENDCHAR
STARTCHAR uni04ED
ENCODING 1261
SWIDTH 472 0
DWIDTH 9 0
BBX 8 13 0 0
BITMAP
05C207A0
06E209D0
00000000
008EE910
09E77F90
1F8007F2
010002F5
000CFFF7
000456F8
173003F6
0E9008F2
08F77F90
008EE900
ENDCHAR
STARTCHAR uni04EE
ENCODING 1262
SWIDTH 547 0
DWIDTH 10 0
BBX 10 17 0 0
BITMAP
0024444200
008FFFF800
0000000000
0000000000
1EC0000CF1
0AF2002FB0
04F7007F60
00DC00BF10
008F21FA00
002F76F500
000CDBE100
0006FFA000
0001FF4000
0000BE0000
0001E90000
005AF30000
00CD600000
ENDCHAR
STARTCHAR uni04EF
ENCODING 1263
SWIDTH 416 0
DWIDTH 8 0
BBX 8 18 0 -4
BITMAP
02444420
09FFFF80
00000000
00000000
8F2009F1
4F500DB0
0E901F70
0BD05F30
06F19E00
02F5CA00
00DAF500
009FF100
005FC000
001F8000
001F4000
006E0000
17E90000
3EA10000
ENDCHAR
STARTCHAR uni04F0
ENCODING 1264
SWIDTH 547 0
DWIDTH 10 0
BBX 10 16 0 0
BITMAP
008A00B700
00AC00D900
0000000000
1EC0000CF1
0AF2002FB0
04F7007F60
00DC00BF10
008F21FA00
002F76F500
000CDBE100
0006FFA000
0001FF4000
0000BE0000
0001E90000
005AF30000
00CD600000
ENDCHAR
STARTCHAR uni04F1
ENCODING 1265
SWIDTH 416 0
DWIDTH 8 0
BBX 8 17 0 -4
BITMAP
09A00B70
0BC01D80
00000000
8F2009F1
4F500DB0
0E901F70
0BD05F30
06F19E00
02F5CA00
00DAF500
009FF100
005FC000
001F8000
001F4000
006E0000
17E90000
3EA10000
ENDCHAR
STARTCHAR uni04F2
ENCODING 1266
SWIDTH 547 0
DWIDTH 10 0
BBX 10 17 0 0
BITMAP
0001E88F30
0008E4F800
000A77C000
0000000000
1EC0000CF1
0AF2002FB0
04F7007F60
00DC00BF10
008F21FA00
002F76F500
000CDBE100
0006FFA000
0001FF4000
0000BE0000
0001E90000
005AF30000
00CD600000
ENDCHAR
STARTCHAR uni04F3
ENCODING 1267
SWIDTH 416 0
DWIDTH 8 0
BBX 8 18 0 -4
BITMAP
002F89F2
008E5F70
00A78B00
00000000
8F2009F1
4F500DB0
0E901F70
0BD05F30
06F19E00
02F5CA00
00DAF500
009FF100
005FC000
001F8000
001F4000
006E0000
17E90000
3EA10000
ENDCHAR
STARTCHAR uni04F4
ENCODING 1268
SWIDTH 600 0
DWIDTH 11 0
BBX 9 16 1 0
BITMAP
05C207B000
06E309D000
0000000000
CD00004F50
CD00004F50
CD00004F50
CD00004F50
CD00004F50
AE00004F50
6F81139F50
09FFFFFF50
0025535F50
0000004F50
0000004F50
0000004F50
0000004F50
ENDCHAR
STARTCHAR uni04F5
ENCODING 1269
SWIDTH 479 0
DWIDTH 9 0
BBX 8 13 0 0
BITMAP
07B00990
08E10BB0
00000000
1F7004F5
1F7004F5
1F7004F5
0F8004F5
0BD216F5
03EFFFF5
001445F5
000004F5
000004F5
000004F5
ENDCHAR
STARTCHAR uni04F6
ENCODING 1270
SWIDTH 487 0
DWIDTH 9 0
BBX 8 17 1 -4
BITMAP
8FFFFFF2
8F766661
8F100000
8F100000
8F100000
8F100000
8F100000
8F100000
8F100000
8F100000
8F100000
8F100000
8FF60000
03F60000
03F60000
03F60000
03F60000
ENDCHAR
STARTCHAR uni04F7
ENCODING 1271
SWIDTH 371 0
DWIDTH 7 0
BBX 6 14 1 -4
BITMAP
BFFFF6
BD5552
BD0000
BD0000
BD0000
BD0000
BD0000
BD0000
BD0000
BFF300
05F300
05F300
05F300
05F300
ENDCHAR
STARTCHAR uni04F8
ENCODING 1272
SWIDTH 755 0
DWIDTH 14 0
BBX 12 16 1 0
BITMAP
000B801C5000
000DA02E6000
000000000000
8F10000008F1
8F10000008F1
8F10000008F1
8F10000008F1
8F10000008F1
8FFFFD8008F1
8F666AF908F1
8F1000AF18F1
8F10005F48F1
8F10006F48F1
8F1000AF18F1
8F6669F808F1
8FFFFD8008F1
ENDCHAR
STARTCHAR uni04F9
ENCODING 1273
SWIDTH 679 0
DWIDTH 12 0
BBX 10 13 1 0
BITMAP
008A00A700
00AD00D900
0000000000
BD000000DA
BD000000DA
BD000000DA
BFFFD600DA
BD55AF40DA
BD000EA0DA
BD000CB0DA
BD000E90DA
BD559F40DA
BFFFD600DA
ENDCHAR
STARTCHAR uni04FA
ENCODING 1274
SWIDTH 520 0
DWIDTH 9 0
BBX 9 17 0 -4
BITMAP
00EFFFFFB0
00EC666640
00EA000000
00EA000000
00EA000000
4FFFF70000
15FF520000
00EA000000
00EA000000
00EA000000
00EA000000
00ED500000
00EFF10000
0008F10000
0009F00000
017EB00000
02EC200000
ENDCHAR
STARTCHAR uni04FB
ENCODING 1275
SWIDTH 410 0
DWIDTH 7 0
BBX 8 14 0 -4
BITMAP
00FFFFF1
00FA5550
00F80000
00F80000
5FFFF700
25FD5200
00F80000
00F80000
00FB5000
00FFE000
000AE000
000BD000
027F9000
04EB1000
ENDCHAR
STARTCHAR uni04FC
ENCODING 1276
SWIDTH 570 0
DWIDTH 10 0
BBX 10 17 0 -4
BITMAP
2FC0000DE1
08F4005F70
01EB00CE10
008F33F700
001E9AE100
0007FF6000
0002FF1000
0008FF7000
001E9AE100
009F23F800
02FA00BE10
09F3004FC5
2FB0000CFF
00000000AE
00000000BC
00000027F9
0000004EB1
ENDCHAR
STARTCHAR uni04FD
ENCODING 1277
SWIDTH 476 0
DWIDTH 9 0
BBX 9 14 0 -4
BITMAP
3F800AF200
0AE12F8000
03F69E1000
00ADE80000
002FE10000
003FE10000
00BCE90000
04F68F2000
0BE01FC500
4F7009FF10
0000007F10
0000008F00
000017DC00
00002EC300
ENDCHAR
STARTCHAR uni04FE
ENCODING 1278
SWIDTH 550 0
DWIDTH 10 0
BBX 10 13 0 0
BITMAP
2FC0000DE1
09F4005F80
02FB00CE10
009F45F800
002FBCF200
000AFF9000
006FFFF600
002AFF9200
001DABD000
007F34F600
01EB00CE10
09F3004F80
2FB0000CE2
ENDCHAR
STARTCHAR uni04FF
ENCODING 1279
SWIDTH 438 0
DWIDTH 8 0
BBX 8 10 0 0
BITMAP
3F800AE2
0AE12F80
02F69E10
009DE600
06FFFF50
029FF720
00CCEA00
05F68F20
0CE01FA0
4F7009F2
ENDCHAR
STARTCHAR uni0500
ENCODING 1280
SWIDTH 555 0
DWIDTH 10 0
BBX 9 13 0 0
BITMAP
0000000EB0
0000000EB0
0000000EB0
0000000EB0
0000000EB0
007DFFFFB0
06FB666EB0
0EC0000EB0
1F80000EB0
1F80000EB0
0DC0000EB0
06FB666EB0
006DFFFFB0
ENDCHAR
STARTCHAR uni0501
ENCODING 1281
SWIDTH 496 0
DWIDTH 9 0
BBX 8 14 0 0
BITMAP
000000DB
000000DB
000000DB
000000DB
009EE7DB
08FA6BFB
0EB001EB
2F7000DB
2F6000DB
2F6000DB
1F7000DB
0DB000EB
07FA6BFB
008EE7BB
ENDCHAR
STARTCHAR uni0502
ENCODING 1282
SWIDTH 723 0
DWIDTH 13 0
BBX 13 13 0 0
BITMAP
0000000DB00000
0000000DB00000
0000000DB00000
0000000DB00000
0000000DB00000
007DFFFFB00000
06FB666EB05A10
0DC0000DB04F40
1F80000DB02F70
1F80000DB02F70
0DD0000DB05F40
06FB666ED7ED00
006DFFFFFEB200
ENDCHAR
STARTCHAR uni0503
ENCODING 1283
SWIDTH 743 0
DWIDTH 13 0
BBX 13 14 0 0
BITMAP
000000E9000000
000000E9000000
000000E9000000
000000E9000000
007ED7E9000000
04FB6CF9003500
0BD101F9006F10
0E9000E9004F40
1F7000E9003F50
2F7000E9003F60
1F8000E9004F40
0CD001EA00AE00
06FB6CDF79F700
008EE71BFD7000
ENDCHAR
STARTCHAR uni0504
ENCODING 1284
SWIDTH 685 0
DWIDTH 12 0
BBX 12 13 0 0
BITMAP
6FFEC5000000
2667CF400000
00001EB00000
00000BD00000
00000DC00440
00017F600AD0
00EFF90008F1
0066BF4007F2
00001EB007F3
00000BD008F1
00000AE00CC0
000007F8AF50
000001AEE700
ENDCHAR
STARTCHAR uni0505
ENCODING 1285
SWIDTH 562 0
DWIDTH 10 0
BBX 10 10 0 0
BITMAP
7FFD600000
255AF40000
0000E90000
0000DA05B1
0005F604F4
0CFFB002F6
0458F802F6
0000DB05F4
0000BE6DC0
00004DFB20
ENDCHAR
STARTCHAR uni0506
ENCODING 1286
SWIDTH 470 0
DWIDTH 8 0
BBX 8 16 0 -3
BITMAP
4FFD9100
1557EC00
00006F30
00003F50
00004F40
0002CD00
09FFE200
0357EB00
00007F30
00004F50
00003F50
00002FE9
00001EFB
000000E9
000003F4
000004A0
ENDCHAR
STARTCHAR uni0507
ENCODING 1287
SWIDTH 443 0
DWIDTH 8 0
BBX 7 13 1 -3
BITMAP
EFEB2000
456DD000
0005F300
0004F400
001AE100
6FFF5000
255CE100
0004F500
0003FC70
0001EF90
00000F80
00004F30
00005900
ENDCHAR
STARTCHAR uni0508
ENCODING 1288
SWIDTH 834 0
DWIDTH 15 0
BBX 15 13 0 0
BITMAP
000FFFFFF8000000
001FB667F8000000
001F8001F8000000
002F7001F8000000
002F7001F8004500
003F6001F8009F00
003F6001F8006F30
004F5001F8005F40
005F4001F8005F40
007F2001F8007F30
00BD0000FA00CD00
29F80000BE7AF600
5E9000002BED6000
ENDCHAR
STARTCHAR uni0509
ENCODING 1289
SWIDTH 698 0
DWIDTH 13 0
BBX 12 10 0 0
BITMAP
008FFFFA0000
008F55EA0000
009E00DA00A7
009D00DA00AC
00AD00DA009E
00BC00DA008F
00CA00DA009E
01F800BC00DB
2BF3007F79F4
5E800019EE60
ENDCHAR
STARTCHAR uni050A
ENCODING 1290
SWIDTH 864 0
DWIDTH 16 0
BBX 14 13 1 0
BITMAP
AF00000FA00000
AF00000FA00000
AF00000FA00000
AF00000FA00000
AF00000FA00350
AFFFFFFFA007F2
AF66666FA004F4
AF00000FA003F6
AF00000FA003F6
AF00000EA005F4
AF00000CB00AE1
AF000008F89F70
AF000001AED700
ENDCHAR
STARTCHAR uni050B
ENCODING 1291
SWIDTH 716 0
DWIDTH 13 0
BBX 12 10 1 0
BITMAP
CC000BD00000
CC000BD00000
CC000BD008A0
CC000BD008F0
CFFFFFD006F2
CD555CD005F3
CC000AD007F2
CC0008E00AD0
CC0004F98F70
CC00007EE800
ENDCHAR
STARTCHAR uni050C
ENCODING 1292
SWIDTH 541 0
DWIDTH 10 0
BBX 8 13 1 0
BITMAP
008DED70
0BF969A0
5F600000
BE000000
EB000000
F9000011
F90000E9
F90000CC
EB0000AE
BE0000BD
6F6001EA
0BF86CF3
008DFC40
ENDCHAR
STARTCHAR uni050D
ENCODING 1293
SWIDTH 452 0
DWIDTH 8 0
BBX 8 10 0 0
BITMAP
005DFD40
03FB6830
0AD00000
0E900000
1F700000
2F7005E2
0F9004F4
0BD104F4
03FB6BE1
004CFC40
ENDCHAR
STARTCHAR uni050E
ENCODING 1294
SWIDTH 616 0
DWIDTH 11 0
BBX 11 13 0 0
BITMAP
8FFFFFFFE000
3667FA666000
0002F7000000
0002F7000000
0002F7004400
0002F700AE00
0002F7007F20
0002F7006F30
0002F7006F30
0002F7008F10
0001F800DC00
0000CE7BF500
00002CED5000
ENDCHAR
STARTCHAR uni050F
ENCODING 1295
SWIDTH 558 0
DWIDTH 10 0
BBX 10 10 0 0
BITMAP
4FFFFFF600
155CD55200
000BC00000
000BC00990
000BC008E0
000BC006F2
000BC007F2
0009E00AE0
0005F98F70
00008EE800
ENDCHAR
STARTCHAR uni0510
ENCODING 1296
SWIDTH 589 0
DWIDTH 11 0
BBX 9 13 1 0
BITMAP
018DFD8100
0DF969FC00
5F70006F50
8F20001840
6F30000000
1DC3000000
02EFFC0000
1DE8650000
8F30000000
AF00000A70
8F40005F70
2EE869FD10
019DFE9100
ENDCHAR
STARTCHAR uni0511
ENCODING 1297
SWIDTH 470 0
DWIDTH 8 0
BBX 8 10 0 0
BITMAP
019EEC40
0AF75CE2
0EA002B4
0BD20000
02EFFB00
0AE64300
1F800000
1F9001F7
0AF76CF3
019DEC40
ENDCHAR
STARTCHAR uni0512
ENCODING 1298
SWIDTH 664 0
DWIDTH 12 0
BBX 12 17 0 -4
BITMAP
002FFFFFF900
003F9666F900
003F5000F900
004F5000F900
004F4000F900
005F4000F900
005F3000F900
006F3000F900
007F1000F900
009E0000F900
00DB0000F900
3AF50000FB51
7E800000FFF2
0000000007F2
0000000008F1
000000007DC0
00000001EC30
ENDCHAR
STARTCHAR uni0513
ENCODING 1299
SWIDTH 553 0
DWIDTH 10 0
BBX 10 14 0 -4
BITMAP
00AFFFFD00
00BD55CD00
00BB00AD00
00CB00AD00
00DA00AD00
00D900AD00
00F800AD00
03F500AD00
3CF100AE52
8E6000AFF6
00000002F6
00000003F5
0000005BF2
000000BE60
ENDCHAR
STARTCHAR uni1E00
ENCODING 7680
SWIDTH 576 0
DWIDTH 10 0
BBX 10 17 0 -4
BITMAP
0000AF1000
0000EF5000
0004FDA000
0009C7E000
000E82F500
004F30C900
008E008E00
00D9003F40
03FFFFFF90
08F6666BD0
0DB00005F3
2F700001F8
7F300000CD
0000000000
00009E3000
0000C58000
0000AE3000
ENDCHAR
STARTCHAR uni1E01
ENCODING 7681
SWIDTH 479 0
DWIDTH 9 0
BBX 7 14 1 -4
BITMAP
06DEC400
6F96CE10
AB004F50
00003F60
06CFFF60
7F835F60
DA003F60
E9004F60
BE88EF60
2BED4F90
00000000
02DB0000
076A2000
02DB0000
ENDCHAR
STARTCHAR uni1E3E
ENCODING 7742
SWIDTH 755 0
DWIDTH 14 0
BBX 12 17 1 0
BITMAP
000000CE3000
000007F50000
00000B800000
000000000000
9F9000001FF3
9FE000005FF3
9FF40000AFF3
9DE80000ECF3
9DAD0004F8F3
9E5F3009D5F3
9E0E800E85F3
9F0AC03F36F3
9F05F28D06F3
9F00E7D806F3
9F00ADF306F3
9F005FD006F3
9F001E9006F3
ENDCHAR
STARTCHAR uni1E3F
ENCODING 7743
SWIDTH 752 0
DWIDTH 14 0
BBX 12 14 1 0
BITMAP
000000AF4000
000005F70000
000009A00000
000000000000
CA9EE72BED40
CFA6CFD97DE1
CC003FC005F4
CB000F8003F5
CB000F8003F5
CB000F8003F5
CB000F8003F5
CB000F8003F5
CB000F8003F5
CB000F8003F5
ENDCHAR
STARTCHAR Wgrave
ENCODING 7808
SWIDTH 761 0
DWIDTH 14 0
BBX 14 17 0 0
BITMAP
00005F90000000
000009F4000000
000000C8000000
00000000000000
4F5000CB0007F2
1F8001FE000AE0
0DA004FF300CB0
0AD007DD600F80
07F10B9A902F50
05F30E67D05F20
02F63F23F18E00
00E96E00F4AB00
00BB9A00C8D900
008DD7008BF600
005FF3005FF300
002FE0002FF000
000EB0000DC000
ENDCHAR
STARTCHAR wgrave
ENCODING 7809
SWIDTH 649 0
DWIDTH 12 0
BBX 12 14 0 0
BITMAP
0008F6000000
0000CE200000
00002D600000
000000000000
7F100E8006F2
3F402FC009D0
0E806FF10CA0
0BB0AAF51F60
08E0E6B93F30
04F5F28D6E00
01FCD04FBB00
00CF900EF700
009F600BF400
006F2007F100
ENDCHAR
STARTCHAR Wacute
ENCODING 7810
SWIDTH 761 0
DWIDTH 14 0
BBX 14 17 0 0
BITMAP
00000008F60000
0000004F900000
0000008B000000
00000000000000
4F5000CB0007F2
1F8001FE000AE0
0DA004FF300CB0
0AD007DD600F80
07F10B9A902F50
05F30E67D05F20
02F63F23F18E00
00E96E00F4AB00
00BB9A00C8D900
008DD7008BF600
005FF3005FF300
002FE0002FF000
000EB0000DC000
ENDCHAR
STARTCHAR wacute
ENCODING 7811
SWIDTH 649 0
DWIDTH 12 0
BBX 12 14 0 0
BITMAP
000000BF3000
000006F60000
00000A900000
000000000000
7F100E8006F2
3F402FC009D0
0E806FF10CA0
0BB0AAF51F60
08E0E6B93F30
04F5F28D6E00
01FCD04FBB00
00CF900EF700
009F600BF400
006F2007F100
ENDCHAR
STARTCHAR Wdieresis
ENCODING 7812
SWIDTH 761 0
DWIDTH 14 0
BBX 14 16 0 0
BITMAP
00008B00A80000
00009D00CA0000
00000000000000
4F5000CB0007F2
1F8001FE000AE0
0DA004FF300CB0
0AD007DD600F80
07F10B9A902F50
05F30E67D05F20
02F63F23F18E00
00E96E00F4AB00
00BB9A00C8D900
008DD7008BF600
005FF3005FF300
002FE0002FF000
000EB0000DC000
ENDCHAR
STARTCHAR wdieresis
ENCODING 7813
SWIDTH 649 0
DWIDTH 12 0
BBX 12 13 0 0
BITMAP
000A801C5000
000CA02E7000
000000000000
7F100E8006F2
3F402FC009D0
0E806FF10CA0
0BB0AAF51F60
08E0E6B93F30
04F5F28D6E00
01FCD04FBB00
00CF900EF700
009F600BF400
006F2007F100
ENDCHAR
STARTCHAR uni1EA0
ENCODING 7840
SWIDTH 576 0
DWIDTH 10 0
BBX 10 16 0 -3
BITMAP
0000AF1000
0000EF5000
0004FDA000
0009C7E000
000E82F500
004F30C900
008E008E00
00D9003F40
03FFFFFF90
08F6666BD0
0DB00005F3
2F700001F8
7F300000CD
0000000000
00008E1000
00006C1000
ENDCHAR
STARTCHAR uni1EA1
ENCODING 7841
SWIDTH 479 0
DWIDTH 9 0
BBX 7 13 1 -3
BITMAP
06DEC400
6F96CE10
AB004F50
00003F60
06CFFF60
7F835F60
DA003F60
E9004F60
BE88EF60
2BED4F90
00000000
01D80000
00B70000
ENDCHAR
STARTCHAR uni1EA2
ENCODING 7842
SWIDTH 576 0
DWIDTH 10 0
BBX 10 18 0 0
BITMAP
00006D4000
000007C000
00002CB000
00004D1000
0000000000
0000AF1000
0000EF5000
0004FDA000
0009C7E000
000E82F500
004F30C900
008E008E00
00D9003F40
03FFFFFF90
08F6666BD0
0DB00005F3
2F700001F8
7F300000CD
ENDCHAR
STARTCHAR uni1EA3
ENCODING 7843
SWIDTH 479 0
DWIDTH 9 0
BBX 7 15 1 0
BITMAP
002E7000
0003F100
000AE100
001F2000
00000000
06DEC400
6F96CE10
AB004F50
00003F60
06CFFF60
7F835F60
DA003F60
E9004F60
BE88EF60
2BED4F90
ENDCHAR
STARTCHAR uni1EA4
ENCODING 7844
SWIDTH 576 0
DWIDTH 10 0
BBX 10 18 0 0
BITMAP
00000000CC
00000004C2
0004DE8100
003C82D800
0000000000
0000AF1000
0000EF5000
0004FDA000
0009C7E000
000E82F500
004F30C900
008E008E00
00D9003F40
03FFFFFF90
08F6666BD0
0DB00005F3
2F700001F8
7F300000CD
ENDCHAR
STARTCHAR uni1EA5
ENCODING 7845
SWIDTH 479 0
DWIDTH 9 0
BBX 9 15 1 0
BITMAP
0000009E20
000001C400
02BEB20000
1BB1BA1000
0000000000
06DEC40000
6F96CE1000
AB004F5000
00003F6000
06CFFF6000
7F835F6000
DA003F6000
E9004F6000
BE88EF6000
2BED4F9000
ENDCHAR
STARTCHAR uni1EA6
ENCODING 7846
SWIDTH 576 0
DWIDTH 10 0
BBX 10 18 0 0
BITMAP
5F40000000
0890000000
0004DE8000
003D83D700
0000000000
0000AF1000
0000EF5000
0004FDA000
0009C7E000
000E82F500
004F30C900
008E008E00
00D9003F40
03FFFFFF90
08F6666BD0
0DB00005F3
2F700001F8
7F300000CD
ENDCHAR
STARTCHAR uni1EA7
ENCODING 7847
SWIDTH 479 0
DWIDTH 9 0
BBX 9 15 -1 0
BITMAP
2E80000000
04C1000000
0002BEB200
001BB1BA10
0000000000
0006DEC400
006F96CE10
00AB004F50
0000003F60
0006CFFF60
007F835F60
00DA003F60
00E9004F60
00BE88EF60
002BED4F90
ENDCHAR
STARTCHAR uni1EA8
ENCODING 7848
SWIDTH 576 0
DWIDTH 10 0
BBX 10 18 0 0
BITMAP
0000000AA0
00000002E2
0005ED9B70
003D41C800
0000000000
0000AF1000
0000EF5000
0004FDA000
0009C7E000
000E82F500
004F30C900
008E008E00
00D9003F40
03FFFFFF90
08F6666BD0
0DB00005F3
2F700001F8
7F300000CD
ENDCHAR
STARTCHAR uni1EA9
ENCODING 7849
SWIDTH 479 0
DWIDTH 9 0
BBX 8 15 1 0
BITMAP
000007C2
000001B6
02CCC9A1
1C809B10
00000000
06DEC400
6F96CE10
AB004F50
00003F60
06CFFF60
7F835F60
DA003F60
E9004F60
BE88EF60
2BED4F90
ENDCHAR
STARTCHAR uni1EAA
ENCODING 7850
SWIDTH 576 0
DWIDTH 10 0
BBX 10 19 0 0
BITMAP
0005D49100
000A2CA000
0000000000
0004DD8000
003D51C800
0000000000
0000AF1000
0000EF5000
0004FDA000
0009C7E000
000E82F500
004F30C900
008E008E00
00D9003F40
03FFFFFF90
08F6666BD0
0DB00005F3
2F700001F8
7F300000CD
ENDCHAR
STARTCHAR uni1EAB
ENCODING 7851
SWIDTH 479 0
DWIDTH 9 0
BBX 7 16 1 0
BITMAP
02D76400
0749D100
00000000
02BEA100
1B909B10
00000000
06DEC400
6F96CE10
AB004F50
00003F60
06CFFF60
7F835F60
DA003F60
E9004F60
BE88EF60
2BED4F90
ENDCHAR
STARTCHAR uni1EAC
ENCODING 7852
SWIDTH 576 0
DWIDTH 10 0
BBX 10 20 0 -3
BITMAP
00009E2000
0006EAC000
000B71C400
0000000000
0000AF1000
0000EF5000
0004FDA000
0009C7E000
000E82F500
004F30C900
008E008E00
00D9003F40
03FFFFFF90
08F6666BD0
0DB00005F3
2F700001F8
7F300000CD
0000000000
00008E1000
00006C1000
ENDCHAR
STARTCHAR uni1EAD
ENCODING 7853
SWIDTH 479 0
DWIDTH 9 0
BBX 7 17 1 -3
BITMAP
006F5000
03E9E200
07A0B700
00000000
06DEC400
6F96CE10
AB004F50
00003F60
06CFFF60
7F835F60
DA003F60
E9004F60
BE88EF60
2BED4F90
00000000
01D80000
00B70000
ENDCHAR
STARTCHAR uni1EAE
ENCODING 7854
SWIDTH 576 0
DWIDTH 10 0
BBX 10 18 0 0
BITMAP
00000B7000
00001B0000
000F62E500
0005DE9000
0000000000
0000AF1000
0000EF5000
0004FDA000
0009C7E000
000E82F500
004F30C900
008E008E00
00D9003F40
03FFFFFF90
08F6666BD0
0DB00005F3
2F700001F8
7F300000CD
ENDCHAR
STARTCHAR uni1EAF
ENCODING 7855
SWIDTH 479 0
DWIDTH 9 0
BBX 7 15 1 0
BITMAP
0007B000
000A2000
0B91B900
03CEB200
00000000
06DEC400
6F96CE10
AB004F50
00003F60
06CFFF60
7F835F60
DA003F60
E9004F60
BE88EF60
2BED4F90
ENDCHAR
STARTCHAR uni1EB0
ENCODING 7856
SWIDTH 576 0
DWIDTH 10 0
BBX 10 18 0 0
BITMAP
0001E30000
0000670000
000F62E500
0005DE9000
0000000000
0000AF1000
0000EF5000
0004FDA000
0009C7E000
000E82F500
004F30C900
008E008E00
00D9003F40
03FFFFFF90
08F6666BD0
0DB00005F3
2F700001F8
7F300000CD
ENDCHAR
STARTCHAR uni1EB1
ENCODING 7857
SWIDTH 479 0
DWIDTH 9 0
BBX 7 15 1 0
BITMAP
00B70000
002A0000
0B91B900
03CEB200
00000000
06DEC400
6F96CE10
AB004F50
00003F60
06CFFF60
7F835F60
DA003F60
E9004F60
BE88EF60
2BED4F90
ENDCHAR
STARTCHAR uni1EB2
ENCODING 7858
SWIDTH 576 0
DWIDTH 10 0
BBX 10 19 0 0
BITMAP
00005C5000
000019B000
00005D1000
000E62F300
0005DE8000
0000000000
0000AF1000
0000EF5000
0004FDA000
0009C7E000
000E82F500
004F30C900
008E008E00
00D9003F40
03FFFFFF90
08F6666BD0
0DB00005F3
2F700001F8
7F300000CD
ENDCHAR
STARTCHAR uni1EB3
ENCODING 7859
SWIDTH 479 0
DWIDTH 9 0
BBX 7 16 1 0
BITMAP
002C8000
0006E000
001F3000
0B91C700
03CEB100
00000000
06DEC400
6F96CE10
AB004F50
00003F60
06CFFF60
7F835F60
DA003F60
E9004F60
BE88EF60
2BED4F90
ENDCHAR
STARTCHAR uni1EB4
ENCODING 7860
SWIDTH 576 0
DWIDTH 10 0
BBX 10 19 0 0
BITMAP
0005E58400
000A2BC000
0000000000
000E62E400
0005DE9000
0000000000
0000AF1000
0000EF5000
0004FDA000
0009C7E000
000E82F500
004F30C900
008E008E00
00D9003F40
03FFFFFF90
08F6666BD0
0DB00005F3
2F700001F8
7F300000CD
ENDCHAR
STARTCHAR uni1EB5
ENCODING 7861
SWIDTH 479 0
DWIDTH 9 0
BBX 7 16 1 0
BITMAP
02E84700
0748E200
00000000
0BA1B800
03CEB100
00000000
06DEC400
6F96CE10
AB004F50
00003F60
06CFFF60
7F835F60
DA003F60
E9004F60
BE88EF60
2BED4F90
ENDCHAR
STARTCHAR uni1EB6
ENCODING 7862
SWIDTH 576 0
DWIDTH 10 0
BBX 10 20 0 -3
BITMAP
0001000100
004F41BB00
0007EEB200
0000000000
0000AF1000
0000EF5000
0004FDA000
0009C7E000
000E82F500
004F30C900
008E008E00
00D9003F40
03FFFFFF90
08F6666BD0
0DB00005F3
2F700001F8
7F300000CD
0000000000
00008E1000
00006C1000
ENDCHAR
STARTCHAR uni1EB7
ENCODING 7863
SWIDTH 479 0
DWIDTH 9 0
BBX 7 17 1 -3
BITMAP
01000100
1F717E00
05DFC400
00000000
06DEC400
6F96CE10
AB004F50
00003F60
06CFFF60
7F835F60
DA003F60
E9004F60
BE88EF60
2BED4F90
00000000
01D80000
00B70000
ENDCHAR
STARTCHAR uni1EB8
ENCODING 7864
SWIDTH 496 0
DWIDTH 9 0
BBX 8 16 1 -3
BITMAP
9FFFFFF3
9F666661
9F000000
9F000000
9F000000
9F000000
9FFFFF80
9F666630
9F000000
9F000000
9F000000
9F666661
9FFFFFF4
00000000
002E7000
001C6000
ENDCHAR
STARTCHAR uni1EB9
ENCODING 7865
SWIDTH 468 0
DWIDTH 8 0
BBX 8 13 0 -3
BITMAP
006DFC40
05F96BF2
0CB001F8
0F7000DA
2FFFFFFB
2F955554
0F800000
0DC00020
06FA67E6
007DFD80
00000000
0007E200
0006C100
ENDCHAR
STARTCHAR uni1EBA
ENCODING 7866
SWIDTH 496 0
DWIDTH 9 0
BBX 8 18 1 0
BITMAP
000CA000
0001D500
0007F400
000C7000
00000000
9FFFFFF3
9F666661
9F000000
9F000000
9F000000
9F000000
9FFFFF80
9F666630
9F000000
9F000000
9F000000
9F666661
9FFFFFF4
ENDCHAR
STARTCHAR uni1EBB
ENCODING 7867
SWIDTH 468 0
DWIDTH 8 0
BBX 8 15 0 0
BITMAP
0004D600
00005E00
0001BD00
0003E100
00000000
006DFC40
05F96BF2
0CB001F8
0F7000DA
2FFFFFFB
2F955554
0F800000
0DC00020
06FA67E6
007DFD80
ENDCHAR
STARTCHAR uni1EBC
ENCODING 7868
SWIDTH 496 0
DWIDTH 9 0
BBX 8 17 1 0
BITMAP
00310420
07FD5D40
0C45EB00
00000000
9FFFFFF3
9F666661
9F000000
9F000000
9F000000
9F000000
9FFFFF80
9F666630
9F000000
9F000000
9F000000
9F666661
9FFFFFF4
ENDCHAR
STARTCHAR uni1EBD
ENCODING 7869
SWIDTH 468 0
DWIDTH 8 0
BBX 8 14 0 0
BITMAP
00120050
00DF97D0
04C1AE50
00000000
006DFC40
05F96BF2
0CB001F8
0F7000DA
2FFFFFFB
2F955554
0F800000
0DC00020
06FA67E6
007DFD80
ENDCHAR
STARTCHAR uni1EBE
ENCODING 7870
SWIDTH 496 0
DWIDTH 9 0
BBX 9 18 1 0
BITMAP
0000005F50
000000A800
018ED40000
08D28C2000
0000000000
9FFFFFF300
9F66666100
9F00000000
9F00000000
9F00000000
9F00000000
9FFFFF8000
9F66663000
9F00000000
9F00000000
9F00000000
9F66666100
9FFFFFF400
ENDCHAR
STARTCHAR uni1EBF
ENCODING 7871
SWIDTH 468 0
DWIDTH 8 0
BBX 10 15 0 0
BITMAP
0000000BD1
0000002D30
003CEA1000
02CA2C9000
0000000000
006DFC4000
05F96BF200
0CB001F800
0F7000DA00
2FFFFFFB00
2F95555400
0F80000000
0DC0002000
06FA67E600
007DFD8000
ENDCHAR
STARTCHAR uni1EC0
ENCODING 7872
SWIDTH 496 0
DWIDTH 9 0
BBX 9 18 0 0
BITMAP
CC00000000
2C30000000
0019ED3000
008D28C200
0000000000
09FFFFFF30
09F6666610
09F0000000
09F0000000
09F0000000
09F0000000
09FFFFF800
09F6666300
09F0000000
09F0000000
09F0000000
09F6666610
09FFFFFF40
ENDCHAR
STARTCHAR uni1EC1
ENCODING 7873
SWIDTH 468 0
DWIDTH 8 0
BBX 9 15 -1 0
BITMAP
3F60000000
06B0000000
0003CE9100
002C92C900
0000000000
0006DFC400
005F96BF20
00CB001F80
00F7000DA0
02FFFFFFB0
02F9555540
00F8000000
00DC000200
006FA67E60
0007DFD800
ENDCHAR
STARTCHAR uni1EC2
ENCODING 7874
SWIDTH 496 0
DWIDTH 9 0
BBX 8 18 1 0
BITMAP
000003D5
0000008A
01ACD7D2
09B15D30
00000000
9FFFFFF3
9F666661
9F000000
9F000000
9F000000
9F000000
9FFFFF80
9F666630
9F000000
9F000000
9F000000
9F666661
9FFFFFF4
ENDCHAR
STARTCHAR uni1EC3
ENCODING 7875
SWIDTH 468 0
DWIDTH 8 0
BBX 9 15 0 0
BITMAP
0000008B10
0000001D40
004DCBA900
02D60BA000
0000000000
006DFC4000
05F96BF200
0CB001F800
0F7000DA00
2FFFFFFB00
2F95555400
0F80000000
0DC0002000
06FA67E600
007DFD8000
ENDCHAR
STARTCHAR uni1EC4
ENCODING 7876
SWIDTH 496 0
DWIDTH 9 0
BBX 8 19 1 0
BITMAP
00CA3800
0376E300
00000000
008DC300
08B16D20
00000000
9FFFFFF3
9F666661
9F000000
9F000000
9F000000
9F000000
9FFFFF80
9F666630
9F000000
9F000000
9F000000
9F666661
9FFFFFF4
ENDCHAR
STARTCHAR uni1EC5
ENCODING 7877
SWIDTH 468 0
DWIDTH 8 0
BBX 8 16 0 0
BITMAP
004E5820
0082BC00
00000000
003CD910
02C71B90
00000000
006DFC40
05F96BF2
0CB001F8
0F7000DA
2FFFFFFB
2F955554
0F800000
0DC00020
06FA67E6
007DFD80
ENDCHAR
STARTCHAR uni1EC6
ENCODING 7878
SWIDTH 496 0
DWIDTH 9 0
BBX 8 20 1 -3
BITMAP
002E9000
01CAE500
04C17A00
00000000
9FFFFFF3
9F666661
9F000000
9F000000
9F000000
9F000000
9FFFFF80
9F666630
9F000000
9F000000
9F000000
9F666661
9FFFFFF4
00000000
002E7000
001C6000
ENDCHAR
STARTCHAR uni1EC7
ENCODING 7879
SWIDTH 468 0
DWIDTH 8 0
BBX 8 17 0 -3
BITMAP
0008F300
004FAD10
00990C50
00000000
006DFC40
05F96BF2
0CB001F8
0F7000DA
2FFFFFFB
2F955554
0F800000
0DC00020
06FA67E6
007DFD80
00000000
0007E200
0006C100
ENDCHAR
STARTCHAR uni1EC8
ENCODING 7880
SWIDTH 250 0
DWIDTH 5 0
BBX 3 18 1 0
BITMAP
6D40
07D0
2CB0
4D10
0000
8F10
8F10
8F10
8F10
8F10
8F10
8F10
8F10
8F10
8F10
8F10
8F10
8F10
ENDCHAR
STARTCHAR uni1EC9
ENCODING 7881
SWIDTH 234 0
DWIDTH 4 0
BBX 3 15 1 0
BITMAP
8C30
09A0
3D90
6B00
0000
BD00
BD00
BD00
BD00
BD00
BD00
BD00
BD00
BD00
BD00
ENDCHAR
STARTCHAR uni1ECA
ENCODING 7882
SWIDTH 250 0
DWIDTH 5 0
BBX 3 16 1 -3
BITMAP
8F10
8F10
8F10
8F10
8F10
8F10
8F10
8F10
8F10
8F10
8F10
8F10
8F10
0000
9D10
7B00
ENDCHAR
STARTCHAR uni1ECB
ENCODING 7883
SWIDTH 229 0
DWIDTH 4 0
BBX 2 17 1 -3
BITMAP
79
9C
00
00
BD
BD
BD
BD
BD
BD
BD
BD
BD
BD
00
BB
99
ENDCHAR
STARTCHAR uni1ECC
ENCODING 7884
SWIDTH 600 0
DWIDTH 11 0
BBX 9 16 1 -3
BITMAP
018DFD7000
0CFA8BF900
6F60009F30
AE00002F70
DC00000EA0
EB00000EB0
EB00000EB0
EB00000EA0
DC00000FA0
BE00002F70
6F60009F30
0CF97BF900
018DFD7000
0000000000
0006E20000
0005C20000
ENDCHAR
STARTCHAR uni1ECD
ENCODING 7885
SWIDTH 501 0
DWIDTH 9 0
BBX 9 13 0 -3
BITMAP
005DFD5000
04FB6BF500
0CD000CC00
1F80007F10
2F60006F30
2F60005F20
1F80007F10
0CC000BD00
05FB6AF500
005DFD6000
0000000000
0005E30000
0004C30000
ENDCHAR
STARTCHAR uni1ECE
ENCODING 7886
SWIDTH 600 0
DWIDTH 11 0
BBX 9 18 1 0
BITMAP
0003E70000
00004F1000
0001AE0000
0001F20000
0000000000
018DFD7000
0CFA8BF900
6F60009F30
AE00002F70
DC00000EA0
EB00000EB0
EB00000EB0
EB00000EA0
DC00000FA0
BE00002F70
6F60009F30
0CF97BF900
018DFD7000
ENDCHAR
STARTCHAR uni1ECF
ENCODING 7887
SWIDTH 501 0
DWIDTH 9 0
BBX 9 15 0 0
BITMAP
0003E60000
00004F1000
0001BE0000
0001F20000
0000000000
005DFD5000
04FB6BF500
0CD000CC00
1F80007F10
2F60006F30
2F60005F20
1F80007F10
0CC000BD00
05FB6AF500
005DFD6000
ENDCHAR
STARTCHAR uni1ED0
ENCODING 7888
SWIDTH 600 0
DWIDTH 11 0
BBX 10 18 1 0
BITMAP
00000009D1
0000001D40
002CEB1000
01BB1CA000
0000000000
018DFD7000
0CFA8BF900
6F60009F30
AE00002F70
DC00000EA0
EB00000EB0
EB00000EB0
EB00000EA0
DC00000FA0
BE00002F70
6F60009F30
0CF97BF900
018DFD7000
ENDCHAR
STARTCHAR uni1ED1
ENCODING 7889
SWIDTH 501 0
DWIDTH 9 0
BBX 10 15 0 0
BITMAP
00000009D1
0000001D40
002CEB1000
01BB1CA000
0000000000
005DFD5000
04FB6BF500
0CD000CC00
1F80007F10
2F60006F30
2F60005F20
1F80007F10
0CC000BD00
05FB6AF500
005DFD6000
ENDCHAR
STARTCHAR uni1ED2
ENCODING 7890
SWIDTH 600 0
DWIDTH 11 0
BBX 10 18 0 0
BITMAP
2E80000000
05C0000000
0002CEA100
001BA1CA00
0000000000
0018DFD700
00CFA8BF90
06F60009F3
0AE00002F7
0DC00000EA
0EB00000EB
0EB00000EB
0EB00000EA
0DC00000FA
0BE00002F7
06F60009F3
00CF97BF90
0018DFD700
ENDCHAR
STARTCHAR uni1ED3
ENCODING 7891
SWIDTH 501 0
DWIDTH 9 0
BBX 10 15 -1 0
BITMAP
2E80000000
05C0000000
0002CEA100
001BA1CA00
0000000000
0005DFD500
004FB6BF50
00CD000CC0
01F80007F1
02F60006F3
02F60005F2
01F80007F1
00CC000BD0
005FB6AF50
0005DFD600
ENDCHAR
STARTCHAR uni1ED4
ENCODING 7892
SWIDTH 600 0
DWIDTH 11 0
BBX 9 18 1 0
BITMAP
0000007C20
0000001C50
003DCB9A00
01C709B000
0000000000
018DFD7000
0CFA8BF900
6F60009F30
AE00002F70
DC00000EA0
EB00000EB0
EB00000EB0
EB00000EA0
DC00000FA0
BE00002F70
6F60009F30
0CF97BF900
018DFD7000
ENDCHAR
STARTCHAR uni1ED5
ENCODING 7893
SWIDTH 501 0
DWIDTH 9 0
BBX 9 15 0 0
BITMAP
0000007C20
0000001C50
003DCB9A00
01C709B000
0000000000
005DFD5000
04FB6BF500
0CD000CC00
1F80007F10
2F60006F30
2F60005F20
1F80007F10
0CC000BD00
05FB6AF500
005DFD6000
ENDCHAR
STARTCHAR uni1ED6
ENCODING 7894
SWIDTH 600 0
DWIDTH 11 0
BBX 9 19 1 0
BITMAP
003E674000
0073AC1000
0000000000
002BEA1000
01C80AA000
0000000000
018DFD7000
0CFA8BF900
6F60009F30
AE00002F70
DC00000EA0
EB00000EB0
EB00000EB0
EB00000EA0
DC00000FA0
BE00002F70
6F60009F30
0CF97BF900
018DFD7000
ENDCHAR
STARTCHAR uni1ED7
ENCODING 7895
SWIDTH 501 0
DWIDTH 9 0
BBX 9 16 0 0
BITMAP
003E674000
0073AC1000
0000000000
002BEA1000
01C80AA000
0000000000
005DFD5000
04FB6BF500
0CD000CC00
1F80007F10
2F60006F30
2F60005F20
1F80007F10
0CC000BD00
05FB6AF500
005DFD6000
ENDCHAR
STARTCHAR uni1ED8
ENCODING 7896
SWIDTH 600 0
DWIDTH 11 0
BBX 9 20 1 -3
BITMAP
0006F40000
003F9E2000
008A0B6000
0000000000
018DFD7000
0CFA8BF900
6F60009F30
AE00002F70
DC00000EA0
EB00000EB0
EB00000EB0
EB00000EA0
DC00000FA0
BE00002F70
6F60009F30
0CF97BF900
018DFD7000
0000000000
0006E20000
0005C20000
ENDCHAR
STARTCHAR uni1ED9
ENCODING 7897
SWIDTH 501 0
DWIDTH 9 0
BBX 9 17 0 -3
BITMAP
0006F40000
003F9E2000
008A0B6000
0000000000
005DFD5000
04FB6BF500
0CD000CC00
1F80007F10
2F60006F30
2F60005F20
1F80007F10
0CC000BD00
05FB6AF500
005DFD6000
0000000000
0005E30000
0004C30000
ENDCHAR
STARTCHAR uni1EDA
ENCODING 7898
SWIDTH 592 0
DWIDTH 11 0
BBX 11 17 0 0
BITMAP
000003FA0000
00001DD10000
00004D300440
000000000BA0
0018DEC53E60
00BF97DFFA00
06F5001DE000
0CD00006F400
1F900002F700
2F700001F800
3F700000F900
2F700001F800
1F900002F600
0CD00006F300
06F5000CC000
00BF97CF4000
0018DEC40000
ENDCHAR
STARTCHAR uni1EDB
ENCODING 7899
SWIDTH 502 0
DWIDTH 9 0
BBX 10 14 0 0
BITMAP
00002EC100
0000BE2000
0002D40010
00000001F2
004CEC56E0
03FB6BFE60
0AD101DC00
0E90008F10
1F70006F20
1F70006F20
0E80008F10
0AD000DB00
03FB6BF300
004CFC4000
ENDCHAR
STARTCHAR uni1EDC
ENCODING 7900
SWIDTH 592 0
DWIDTH 11 0
BBX 11 17 0 0
BITMAP
002ED1000000
0004F9000000
00008C100440
000000000BA0
0018DEC53E60
00BF97DFFA00
06F5001DE000
0CD00006F400
1F900002F700
2F700001F800
3F700000F900
2F700001F800
1F900002F600
0CD00006F300
06F5000CC000
00BF97CF4000
0018DEC40000
ENDCHAR
STARTCHAR uni1EDD
ENCODING 7901
SWIDTH 502 0
DWIDTH 9 0
BBX 10 14 0 0
BITMAP
01DE200000
003EB00000
0006C20010
00000001F2
004CEC56E0
03FB6BFE60
0AD101DC00
0E90008F10
1F70006F20
1F70006F20
0E80008F10
0AD000DB00
03FB6BF300
004CFC4000
ENDCHAR
STARTCHAR uni1EDE
ENCODING 7902
SWIDTH 592 0
DWIDTH 11 0
BBX 11 18 0 0
BITMAP
00004D500000
000005E00000
00001BC00000
00003E100440
000000000BA0
0018DEC53E60
00BF97DFFA00
06F5001DE000
0CD00006F400
1F900002F700
2F700001F800
3F700000F900
2F700001F800
1F900002F600
0CD00006F300
06F5000CC000
00BF97CF4000
0018DEC40000
ENDCHAR
STARTCHAR uni1EDF
ENCODING 7903
SWIDTH 502 0
DWIDTH 9 0
BBX 10 15 0 0
BITMAP
0002E70000
00003F1000
0000AE1000
0001F20010
00000001F2
004CEC56E0
03FB6BFE60
0AD101DC00
0E90008F10
1F70006F20
1F70006F20
0E80008F10
0AD000DB00
03FB6BF300
004CFC4000
ENDCHAR
STARTCHAR uni1EE0
ENCODING 7904
SWIDTH 592 0
DWIDTH 11 0
BBX 11 17 0 0
BITMAP
000120050000
001DF97D0000
004C1AE50440
000000000BA0
0018DEC53E60
00BF97DFFA00
06F5001DE000
0CD00006F400
1F900002F700
2F700001F800
3F700000F900
2F700001F800
1F900002F600
0CD00006F300
06F5000CC000
00BF97CF4000
0018DEC40000
ENDCHAR
STARTCHAR uni1EE1
ENCODING 7905
SWIDTH 502 0
DWIDTH 9 0
BBX 10 14 0 0
BITMAP
0003005000
00BFA5F000
02E18E7010
00000001F2
004CEC56E0
03FB6BFE60
0AD101DC00
0E90008F10
1F70006F20
1F70006F20
0E80008F10
0AD000DB00
03FB6BF300
004CFC4000
ENDCHAR
STARTCHAR uni1EE2
ENCODING 7906
SWIDTH 592 0
DWIDTH 11 0
BBX 11 18 0 -3
BITMAP
000000000440
000000000BA0
0018DEC53E60
00BF97DFFA00
06F5001DE000
0CD00006F400
1F900002F700
2F700001F800
3F700000F900
2F700001F800
1F900002F600
0CD00006F300
06F5000CC000
00BF97CF4000
0018DEC40000
000000000000
00008E100000
00006C100000
ENDCHAR
STARTCHAR uni1EE3
ENCODING 7907
SWIDTH 502 0
DWIDTH 9 0
BBX 10 15 0 -3
BITMAP
0000000010
00000001F2
004CEC56E0
03FB6BFE60
0AD101DC00
0E90008F10
1F70006F20
1F70006F20
0E80008F10
0AD000DB00
03FB6BF300
004CFC4000
0000000000
0005E30000
0004C20000
ENDCHAR
STARTCHAR uni1EE4
ENCODING 7908
SWIDTH 561 0
DWIDTH 10 0
BBX 8 16 1 -3
BITMAP
DB00009F
DB00009F
DB00009F
DB00009F
DB00009F
DB00009F
DB00009F
DB00009F
DB00009F
CC0000AE
9F1000DB
3FD77CF4
03BEFC50
00000000
000BB000
00099000
ENDCHAR
STARTCHAR uni1EE5
ENCODING 7909
SWIDTH 483 0
DWIDTH 9 0
BBX 7 13 1 -3
BITMAP
DA000F80
DA000F80
DA000F80
DA000F80
DA000F80
DA000F80
DB000F80
BD002F80
7F97DF80
09ED6F80
00000000
00D90000
00B80000
ENDCHAR
STARTCHAR uni1EE6
ENCODING 7910
SWIDTH 561 0
DWIDTH 10 0
BBX 8 18 1 0
BITMAP
0008C300
00009A00
0004D800
0007B000
00000000
DB00009F
DB00009F
DB00009F
DB00009F
DB00009F
DB00009F
DB00009F
DB00009F
DB00009F
CC0000AE
9F1000DB
3FD77CF4
03BEFC50
ENDCHAR
STARTCHAR uni1EE7
ENCODING 7911
SWIDTH 483 0
DWIDTH 9 0
BBX 7 15 1 0
BITMAP
004D6000
0005E000
001BD000
003E1000
00000000
DA000F80
DA000F80
DA000F80
DA000F80
DA000F80
DA000F80
DB000F80
BD002F80
7F97DF80
09ED6F80
ENDCHAR
STARTCHAR uni1EE8
ENCODING 7912
SWIDTH 608 0
DWIDTH 11 0
BBX 11 17 1 0
BITMAP
00003FB00000
0001DD100000
0004D3000000
000000000470
DB00009F09B0
DB00009F3E70
DB00009FFA10
DB00009F1000
DB00009F0000
DB00009F0000
DB00009F0000
DB00009F0000
DB00009F0000
CD0000BE0000
8F3001EA0000
2EE77DF30000
02BEEB300000
ENDCHAR
STARTCHAR uni1EE9
ENCODING 7913
SWIDTH 549 0
DWIDTH 10 0
BBX 9 14 1 0
BITMAP
0002EC1000
000BE20000
003D400000
00000004B0
DA000F88A0
DA000FFC30
DA000F8000
DA000F8000
DA000F8000
DA000F8000
DB000F8000
BD002F8000
7F97DF8000
09ED6F8000
ENDCHAR
STARTCHAR uni1EEA
ENCODING 7914
SWIDTH 608 0
DWIDTH 11 0
BBX 11 17 1 0
BITMAP
02ED10000000
004F90000000
0008C1000000
000000000470
DB00009F09B0
DB00009F3E70
DB00009FFA10
DB00009F1000
DB00009F0000
DB00009F0000
DB00009F0000
DB00009F0000
DB00009F0000
CD0000BE0000
8F3001EA0000
2EE77DF30000
02BEEB300000
ENDCHAR
STARTCHAR uni1EEB
ENCODING 7915
SWIDTH 549 0
DWIDTH 10 0
BBX 9 14 1 0
BITMAP
1DE1000000
03FB000000
006C200000
00000004B0
DA000F88A0
DA000FFC30
DA000F8000
DA000F8000
DA000F8000
DA000F8000
DB000F8000
BD002F8000
7F97DF8000
09ED6F8000
ENDCHAR
STARTCHAR uni1EEC
ENCODING 7916
SWIDTH 608 0
DWIDTH 11 0
BBX 11 18 1 0
BITMAP
0004D5000000
00005E000000
0001BC000000
0003E1000000
000000000470
DB00009F09B0
DB00009F3E70
DB00009FFA10
DB00009F1000
DB00009F0000
DB00009F0000
DB00009F0000
DB00009F0000
DB00009F0000
CD0000BE0000
8F3001EA0000
2EE77DF30000
02BEEB300000
ENDCHAR
STARTCHAR uni1EED
ENCODING 7917
SWIDTH 549 0
DWIDTH 10 0
BBX 9 15 1 0
BITMAP
002E700000
0004F10000
000AE00000
001F200000
00000004B0
DA000F88A0
DA000FFC30
DA000F8000
DA000F8000
DA000F8000
DA000F8000
DB000F8000
BD002F8000
7F97DF8000
09ED6F8000
ENDCHAR
STARTCHAR uni1EEE
ENCODING 7918
SWIDTH 608 0
DWIDTH 11 0
BBX 11 17 1 0
BITMAP
001200500000
00DF97D00000
04C1AE500000
000000000470
DB00009F09B0
DB00009F3E70
DB00009FFA10
DB00009F1000
DB00009F0000
DB00009F0000
DB00009F0000
DB00009F0000
DB00009F0000
CD0000BE0000
8F3001EA0000
2EE77DF30000
02BEEB300000
ENDCHAR
STARTCHAR uni1EEF
ENCODING 7919
SWIDTH 549 0
DWIDTH 10 0
BBX 9 14 1 0
BITMAP
0030050000
0BFA5E0000
2E18E70000
00000004B0
DA000F88A0
DA000FFC30
DA000F8000
DA000F8000
DA000F8000
DA000F8000
DB000F8000
BD002F8000
7F97DF8000
09ED6F8000
ENDCHAR
STARTCHAR uni1EF0
ENCODING 7920
SWIDTH 608 0
DWIDTH 11 0
BBX 11 17 1 -3
BITMAP
000000000470
DB00009F09B0
DB00009F3E70
DB00009FFA10
DB00009F1000
DB00009F0000
DB00009F0000
DB00009F0000
DB00009F0000
DB00009F0000
CD0000BE0000
8F3001EA0000
2EE77DF30000
02BEEB300000
000000000000
0007E2000000
0006C1000000
ENDCHAR
STARTCHAR uni1EF1
ENCODING 7921
SWIDTH 549 0
DWIDTH 10 0
BBX 9 14 1 -3
BITMAP
00000004B0
DA000F88A0
DA000FFC30
DA000F8000
DA000F8000
DA000F8000
DA000F8000
DB000F8000
BD002F8000
7F97DF8000
09ED6F8000
0000000000
007E100000
006C100000
ENDCHAR
STARTCHAR Ygrave
ENCODING 7922
SWIDTH 524 0
DWIDTH 9 0
BBX 9 17 0 0
BITMAP
009F500000
001CE10000
0002D50000
0000000000
8F40000DE0
1FA0004F70
09F200AE10
03F701F900
00BD07F200
004F5DB000
000DDF4000
0006FC0000
0001F80000
0001F80000
0001F80000
0001F80000
0001F80000
ENDCHAR
STARTCHAR ygrave
ENCODING 7923
SWIDTH 416 0
DWIDTH 8 0
BBX 8 18 0 -4
BITMAP
07F70000
00AF3000
001C7000
00000000
8F2009F1
4F500DB0
0E901F70
0BD05F30
06F19E00
02F5CA00
00DAF500
009FF100
005FC000
001F8000
001F4000
006E0000
17E90000
3EA10000
ENDCHAR
STARTCHAR uni1EF4
ENCODING 7924
SWIDTH 524 0
DWIDTH 9 0
BBX 9 16 0 -3
BITMAP
8F40000DE0
1FA0004F70
09F200AE10
03F701F900
00BD07F200
004F5DB000
000DDF4000
0006FC0000
0001F80000
0001F80000
0001F80000
0001F80000
0001F80000
0000000000
0002E60000
0002C50000
ENDCHAR
STARTCHAR uni1EF5
ENCODING 7925
SWIDTH 416 0
DWIDTH 8 0
BBX 8 14 0 -4
BITMAP
8F2009F1
4F500DB0
0E901F70
0BD05F30
06F19E00
02F5CA00
00DAF500
009FF100
005FC000
001F8000
001F4000
006E0000
17E96E20
3EA15C20
ENDCHAR
STARTCHAR uni1EF6
ENCODING 7926
SWIDTH 524 0
DWIDTH 9 0
BBX 9 18 0 0
BITMAP
0000CA0000
00001D5000
00007F4000
0000C70000
0000000000
8F40000DE0
1FA0004F70
09F200AE10
03F701F900
00BD07F200
004F5DB000
000DDF4000
0006FC0000
0001F80000
0001F80000
0001F80000
0001F80000
0001F80000
ENDCHAR
STARTCHAR uni1EF7
ENCODING 7927
SWIDTH 416 0
DWIDTH 8 0
BBX 8 19 0 -4
BITMAP
000AB100
0001B800
0005E600
00099000
00000000
8F2009F1
4F500DB0
0E901F70
0BD05F30
06F19E00
02F5CA00
00DAF500
009FF100
005FC000
001F8000
001F4000
006E0000
17E90000
3EA10000
ENDCHAR
STARTCHAR uni1EF8
ENCODING 7928
SWIDTH 524 0
DWIDTH 9 0
BBX 9 17 0 0
BITMAP
0003104200
007FD5D400
00C45EB000
0000000000
8F40000DE0
1FA0004F70
09F200AE10
03F701F900
00BD07F200
004F5DB000
000DDF4000
0006FC0000
0001F80000
0001F80000
0001F80000
0001F80000
0001F80000
ENDCHAR
STARTCHAR uni1EF9
ENCODING 7929
SWIDTH 416 0
DWIDTH 8 0
BBX 8 18 0 -4
BITMAP
00210330
05FE5B70
0A74DC10
00000000
8F2009F1
4F500DB0
0E901F70
0BD05F30
06F19E00
02F5CA00
00DAF500
009FF100
005FC000
001F8000
001F4000
006E0000
17E90000
3EA10000
ENDCHAR
STARTCHAR uni1F4D
ENCODING 8013
SWIDTH 634 0
DWIDTH 11 0
BBX 15 13 -4 0
BITMAP
7E09E103BEEB3000
5F1E603FD88DF400
0A6B00BE2001DC00
000001F800008F10
000004F600005F40
000004F500005F50
000004F500004F50
000004F500004F50
000004F600006F40
000001F900008F20
000000CE1001EC00
0000003FD88DF400
00000003BEEB4000
ENDCHAR
STARTCHAR uni2000
ENCODING 8192
SWIDTH 447 0
DWIDTH 8 0
BBX 1 1 0 0
BITMAP
00
ENDCHAR
STARTCHAR uni2001
ENCODING 8193
SWIDTH 876 0
DWIDTH 16 0
BBX 1 1 0 0
BITMAP
00
ENDCHAR
STARTCHAR uni2002
ENCODING 8194
SWIDTH 447 0
DWIDTH 8 0
BBX 1 1 0 0
BITMAP
00
ENDCHAR
STARTCHAR uni2003
ENCODING 8195
SWIDTH 876 0
DWIDTH 16 0
BBX 1 1 0 0
BITMAP
00
ENDCHAR
STARTCHAR uni2004
ENCODING 8196
SWIDTH 305 0
DWIDTH 6 0
BBX 1 1 0 0
BITMAP
00
ENDCHAR
STARTCHAR uni2005
ENCODING 8197
SWIDTH 233 0
DWIDTH 4 0
BBX 1 1 0 0
BITMAP
00
ENDCHAR
STARTCHAR uni2006
ENCODING 8198
SWIDTH 162 0
DWIDTH 3 0
BBX 1 1 0 0
BITMAP
00
ENDCHAR
STARTCHAR uni2007
ENCODING 8199
SWIDTH 491 0
DWIDTH 9 0
BBX 1 1 0 0
BITMAP
00
ENDCHAR
STARTCHAR uni2008
ENCODING 8200
SWIDTH 249 0
DWIDTH 4 0
BBX 1 1 0 0
BITMAP
00
ENDCHAR
STARTCHAR uni2009
ENCODING 8201
SWIDTH 190 0
DWIDTH 3 0
BBX 1 1 0 0
BITMAP
00
ENDCHAR
STARTCHAR uni200A
ENCODING 8202
SWIDTH 105 0
DWIDTH 2 0
BBX 1 1 0 0
BITMAP
00
ENDCHAR
STARTCHAR uni200B
ENCODING 8203
SWIDTH 0 0
DWIDTH 0 0
BBX 1 1 0 0
BITMAP
00
ENDCHAR
STARTCHAR uni2010
ENCODING 8208
SWIDTH 248 0
DWIDTH 4 0
BBX 5 2 0 4
BITMAP
9FFF10
355500
ENDCHAR
STARTCHAR uni2011
ENCODING 8209
SWIDTH 248 0
DWIDTH 4 0
BBX 5 2 0 4
BITMAP
9FFF10
355500
ENDCHAR
STARTCHAR endash
ENCODING 8211
SWIDTH 572 0
DWIDTH 10 0
BBX 8 2 1 5
BITMAP
9FFFFFFC
35555554
ENDCHAR
STARTCHAR emdash
ENCODING 8212
SWIDTH 678 0
DWIDTH 12 0
BBX 11 2 1 5
BITMAP
9FFFFFFFFF40
355555555510
ENDCHAR
STARTCHAR uni2015
ENCODING 8213
SWIDTH 678 0
DWIDTH 12 0
BBX 11 2 1 5
BITMAP
9FFFFFFFFF40
355555555510
ENDCHAR
STARTCHAR underscoredbl
ENCODING 8215
SWIDTH 402 0
DWIDTH 7 0
BBX 8 4 0 -4
BITMAP
CFFFFFF1
45555550
CFFFFFF1
45555550
ENDCHAR
STARTCHAR quoteleft
ENCODING 8216
SWIDTH 194 0
DWIDTH 4 0
BBX 3 4 0 10
BITMAP
03C0
0CB0
1F70
2F60
ENDCHAR
STARTCHAR quoteright
ENCODING 8217
SWIDTH 194 0
DWIDTH 4 0
BBX 3 4 0 10
BITMAP
0CB0
0DA0
1F60
4B00
ENDCHAR
STARTCHAR quotesinglbase
ENCODING 8218
SWIDTH 194 0
DWIDTH 4 0
BBX 3 4 0 -2
BITMAP
0860
0EA0
2F60
5B00
ENDCHAR
STARTCHAR quotereversed
ENCODING 8219
SWIDTH 194 0
DWIDTH 4 0
BBX 3 4 0 10
BITMAP
4F40
3F50
0E80
05A0
ENDCHAR
STARTCHAR quotedblleft
ENCODING 8220
SWIDTH 333 0
DWIDTH 6 0
BBX 6 4 0 10
BITMAP
02C196
0AC3F4
0F87F1
1F88F0
ENDCHAR
STARTCHAR quotedblright
ENCODING 8221
SWIDTH 337 0
DWIDTH 6 0
BBX 6 4 0 10
BITMAP
0AD4F4
0BC5F4
1E88E0
3C1A50
ENDCHAR
STARTCHAR quotedblbase
ENCODING 8222
SWIDTH 326 0
DWIDTH 6 0
BBX 6 6 0 -3
BITMAP
022120
0DA8F1
0DA8F0
0F8AE0
4F3D90
4A1B20
ENDCHAR
STARTCHAR dagger
ENCODING 8224
SWIDTH 482 0
DWIDTH 9 0
BBX 8 13 0 0
BITMAP
0007F200
0007F200
0007F200
4FFFFFFF
255AF655
0007F200
0007F200
0007F200
0007F200
0007F200
0007F200
0007F200
0007F200
ENDCHAR
STARTCHAR daggerdbl
ENCODING 8225
SWIDTH 500 0
DWIDTH 9 0
BBX 9 17 0 -4
BITMAP
0005F40000
0005F40000
0005F40000
3FFFFFFF20
1558F75510
0005F40000
0005F40000
0005F40000
0005F40000
0005F40000
0005F40000
1558F75510
3FFFFFFF20
0005F40000
0005F40000
0005F40000
0005F40000
ENDCHAR
STARTCHAR bullet
ENCODING 8226
SWIDTH 336 0
DWIDTH 6 0
BBX 4 4 1 5
BITMAP
4DD4
BFFB
AFFB
3BB3
ENDCHAR
STARTCHAR twodotenleader
ENCODING 8229
SWIDTH 420 0
DWIDTH 8 0
BBX 6 2 1 0
BITMAP
7D23D5
8E24E6
ENDCHAR
STARTCHAR ellipsis
ENCODING 8230
SWIDTH 590 0
DWIDTH 11 0
BBX 9 2 1 0
BITMAP
7D23D52D70
8E24E62E70
ENDCHAR
STARTCHAR uni2027
ENCODING 8231
SWIDTH 181 0
DWIDTH 3 0
BBX 3 2 0 4
BITMAP
2E50
1C40
ENDCHAR
STARTCHAR perthousand
ENCODING 8240
SWIDTH 818 0
DWIDTH 15 0
BBX 14 13 0 0
BITMAP
06ED3000000000
2E37D007500000
5C01F11E200000
5C01F18A000000
2E37D1E2000000
07ED38A0000000
00001E20000000
0000891BE96EC2
0001E29A2CE38B
000890C507A02E
001E20C507A02F
0048009A2CE38B
0000001BE96EC2
ENDCHAR
STARTCHAR minute
ENCODING 8242
SWIDTH 174 0
DWIDTH 3 0
BBX 3 4 0 10
BITMAP
1F30
1F30
1F20
1F10
ENDCHAR
STARTCHAR second
ENCODING 8243
SWIDTH 319 0
DWIDTH 6 0
BBX 4 4 1 10
BITMAP
C76C
C66C
C56A
C379
ENDCHAR
STARTCHAR guilsinglleft
ENCODING 8249
SWIDTH 271 0
DWIDTH 5 0
BBX 4 7 1 1
BITMAP
03E1
0C80
7E10
E900
7E10
0C70
03E1
ENDCHAR
STARTCHAR guilsinglright
ENCODING 8250
SWIDTH 271 0
DWIDTH 5 0
BBX 4 7 1 1
BITMAP
D400
6D10
0D80
07F1
0D80
6D10
D400
ENDCHAR
STARTCHAR exclamdbl
ENCODING 8252
SWIDTH 491 0
DWIDTH 9 0
BBX 7 13 1 0
BITMAP
9F102F70
9F002F70
8F002F70
8F002F60
8F002F60
8F002F60
8E001F60
8E001F50
7E001F50
24000410
00000000
5B001C40
6D101D60
ENDCHAR
STARTCHAR fraction
ENCODING 8260
SWIDTH 403 0
DWIDTH 7 0
BBX 7 11 0 1
BITMAP
00000660
00000D40
00006B00
0000D400
0006B000
000D3000
006B0000
00D30000
07B00000
1E300000
39000000
ENDCHAR
STARTCHAR uni2074
ENCODING 8308
SWIDTH 329 0
DWIDTH 6 0
BBX 6 7 0 6
BITMAP
001E90
00AF90
05DB90
1D3A90
6FFFF5
122BA1
000A90
ENDCHAR
STARTCHAR uni207F
ENCODING 8319
SWIDTH 374 0
DWIDTH 7 0
BBX 5 7 1 6
BITMAP
E7DD30
ED5EA0
E70AC0
E709C0
E709C0
E709C0
E709C0
ENDCHAR
STARTCHAR franc
ENCODING 8355
SWIDTH 480 0
DWIDTH 9 0
BBX 9 13 0 0
BITMAP
09FFFFFF10
09F6666600
09F0000000
09F0000000
09F0000000
09F0000000
09FFFFF500
09F6666200
09F0000000
BFFFF10000
4EF5500000
09F0000000
09F0000000
ENDCHAR
STARTCHAR lira
ENCODING 8356
SWIDTH 510 0
DWIDTH 9 0
BBX 9 13 0 0
BITMAP
0007DEB200
008F97ED00
00EB006F40
01F8002620
01F8000000
3FFFFF1000
02FA110000
3FFFFF1000
01EA110000
00F9000000
02F7000000
19F8666630
2FFFFFFF90
ENDCHAR
STARTCHAR uni20A6
ENCODING 8358
SWIDTH 691 0
DWIDTH 12 0
BBX 13 13 0 0
BITMAP
00FD10004F6000
00FF80004F6000
00FFF2004F6000
00FBDA004F6000
9FFFFFFFFFFF10
35FB5CD57F9500
00F906F24F6000
9FFFFFFFFFFF10
35FB558F9F9500
00F9000EBF6000
00F90007FF6000
00F90001EF6000
00F900007F6000
ENDCHAR
STARTCHAR peseta
ENCODING 8359
SWIDTH 709 0
DWIDTH 13 0
BBX 11 13 1 0
BITMAP
AFFEC4000000
AE56CE26F200
AE003F76F200
AE000FFFFF90
AE000EA8F620
AE001F66F200
AE019E16F200
AFFFE506F200
AE541006F200
AE000006F200
AE000006F300
AE000004FA40
AE000000AE80
ENDCHAR
STARTCHAR uni20A8
ENCODING 8360
SWIDTH 911 0
DWIDTH 16 0
BBX 15 13 1 0
BITMAP
9FFFEB4000000000
9F667DF300000000
9F0002F900000000
9F0000DB06DEC300
9F0000EA4FA6CE20
9F001AF59E003E50
9FFFFF807F500000
9F66CE101BFC5000
9F004F60005CFB00
9F000DC011007F60
9F0007F4CC001F70
9F0001FA7F95AF30
9F0000AF27DEC500
ENDCHAR
STARTCHAR uni20A9
ENCODING 8361
SWIDTH 634 0
DWIDTH 11 0
BBX 11 13 0 0
BITMAP
5F401F800DB0
2F603FA00F80
0F806FC03F50
0CB08DF05F30
9FFFFFFFFFF0
39F6D9E8CD50
04F3E3C6CA00
9FFFFFFFFFF0
35ECE5ADF850
00BDC06DF200
009FA04FE000
006F802FC000
004F601FA000
ENDCHAR
STARTCHAR uni20AA
ENCODING 8362
SWIDTH 669 0
DWIDTH 12 0
BBX 10 10 1 0
BITMAP
CFFFFB10AD
CC557F90AD
CB000AD0AD
CB0F98F0AD
CB0F98F0AD
CB0F98F0AD
CB0F98F0AD
CB0F9000CB
CB0FB558F7
CB0FFFFEA1
ENDCHAR
STARTCHAR dong
ENCODING 8363
SWIDTH 510 0
DWIDTH 9 0
BBX 10 17 0 -3
BITMAP
000000DB00
000000DB00
0000AFFFF2
000035FF51
009EE7DB00
08FA6BFB00
0EB001EB00
2F7000DB00
2F6000DB00
2F6000DB00
1F7000DB00
0DB000EB00
07FA6BFB00
008EE7BB00
0000000000
0AFFFFFF30
0355555510
ENDCHAR
STARTCHAR Euro
ENCODING 8364
SWIDTH 493 0
DWIDTH 9 0
BBX 8 13 0 0
BITMAP
00019EFC
000CF867
005F6000
009F0000
00CD0000
1FFFFF80
01CC1110
1FFFFF80
01CD1110
00AE0000
006F5000
000CF867
00019EFC
ENDCHAR
STARTCHAR uni20B1
ENCODING 8369
SWIDTH 648 0
DWIDTH 12 0
BBX 12 13 0 0
BITMAP
02FFFFEB3000
02FA667DE200
9FFFFFFFFFF4
36FA5555EC51
9FFFFFFFFFF4
36FA556DF741
02FFFFFF9000
02FA66520000
02F700000000
02F700000000
02F700000000
02F700000000
02F700000000
ENDCHAR
STARTCHAR uni20B9
ENCODING 8377
SWIDTH 462 0
DWIDTH 8 0
BBX 8 13 0 0
BITMAP
5FFFFFFB
3669FE63
00007F40
5FFFFFFB
36669F93
0003DF20
7FFFF600
3FE51000
08F70000
00DF3000
003FC000
0008F700
0000DF20
ENDCHAR
STARTCHAR uni20BA
ENCODING 8378
SWIDTH 500 0
DWIDTH 9 0
BBX 9 13 0 0
BITMAP
00BD000000
00BD590000
00CFF90000
4CFE300000
9BDD590000
20CFF90000
4CFE306F30
9BDD006F20
20BD008F10
00BD00BC00
00BD03F700
00BE8EC100
00AFE91000
ENDCHAR
STARTCHAR uni20BC
ENCODING 8380
SWIDTH 575 0
DWIDTH 10 0
BBX 10 10 0 0
BITMAP
00009E0000
00009E0000
0019FFC400
00CEDFCF30
06F49E1DB0
0CC09E06F2
0F809E02F5
2F609E01F7
3F609E00F8
3F609E00F8
ENDCHAR
STARTCHAR uni20BD
ENCODING 8381
SWIDTH 583 0
DWIDTH 11 0
BBX 10 13 0 0
BITMAP
01FFFFEB30
01FB667DF3
01F80002FA
01F80000DC
01F80000EA
01F80018F6
9FFFFFFF90
36FB665200
01F8000000
9FFFFE0000
46FB650000
01F8000000
01F8000000
ENDCHAR
STARTCHAR uni2105
ENCODING 8453
SWIDTH 640 0
DWIDTH 12 0
BBX 10 13 1 0
BITMAP
2CE6000000
A93F205700
D40410D400
D40316C000
A93F2D4000
2CE76C0000
0000D40000
0006C2BE90
000D4A92D5
006B0D4098
00D40D4098
02A00A92D5
000002CE90
ENDCHAR
STARTCHAR uni2113
ENCODING 8467
SWIDTH 422 0
DWIDTH 8 0
BBX 6 14 1 0
BITMAP
008EB1
03F9F7
07F1CB
09F0CB
09F0DA
09F2F7
09F7F2
09FE90
1AFD10
FFF200
7BF000
07F200
02FC30
004C70
ENDCHAR
STARTCHAR uni2116
ENCODING 8470
SWIDTH 886 0
DWIDTH 16 0
BBX 14 13 1 0
BITMAP
AF3000DA03CEA1
AFA000DA0DB5D9
AFF100DA2F307D
ADD700DA3F206E
AD7D00DA2F307D
AD1F40DA0DA4D9
AD0AA0DA03CEA1
AD04F1DA000000
AD00D7DA0EFFFA
AD007DDA034443
AD001EFA000000
AD0009FA000000
AD0003FA000000
ENDCHAR
STARTCHAR trademark
ENCODING 8482
SWIDTH 547 0
DWIDTH 10 0
BBX 9 5 0 8
BITMAP
1FFCA50D20
00B0A92E20
00B0A96A20
00B0A6B820
00B0A29820
ENDCHAR
STARTCHAR Omega
ENCODING 8486
SWIDTH 581 0
DWIDTH 10 0
BBX 9 13 1 0
BITMAP
018EEA2000
0BE87DE200
6F5001EA00
BD00009F10
EB00007F30
F900005F40
F900005F50
EA00006F40
CB00007F10
8E0000BC00
2F7003F500
5BF73DE610
FFFB6FFF40
ENDCHAR
STARTCHAR estimated
ENCODING 8494
SWIDTH 636 0
DWIDTH 11 0
BBX 10 10 1 0
BITMAP
002AEEA200
04D5116D30
1D80000BC0
6F80000BF2
9FFFFFFFF4
9F80000000
6F80000000
1E80000000
05E6114A30
003BEEB400
ENDCHAR
STARTCHAR oneeighth
ENCODING 8539
SWIDTH 666 0
DWIDTH 12 0
BBX 11 13 0 0
BITMAP
04A900000000
4DE9000A2000
00B9003D0000
00B900B60000
00B904D00000
00B90B600000
00B94D08ED30
0000B63F5AC0
0004D02F49B0
000B600AFF40
004D004F49D0
0066005F49E0
0000000AED50
ENDCHAR
STARTCHAR threeeighths
ENCODING 8540
SWIDTH 736 0
DWIDTH 13 0
BBX 13 13 0 0
BITMAP
06EE9000000000
0A65F300480000
0048D100C50000
006CC104D00000
0000F50C500000
1F75F35D000000
06EE80C56EE500
000005C1F79E00
00000C50E67D00
00005C008FF600
0000C502F67E10
0001A003F67F10
000000008EE700
ENDCHAR
STARTCHAR fiveeighths
ENCODING 8541
SWIDTH 736 0
DWIDTH 13 0
BBX 12 13 1 0
BITMAP
AFFE00000000
C72200084000
EDE8001E2000
435F20890000
301F41E20000
E76F18900000
5DE61E27ED50
0000991F79D0
0002E21F58D0
00099008FF60
002E202F68E0
0048003F57F1
00000008EE70
ENDCHAR
STARTCHAR seveneighths
ENCODING 8542
SWIDTH 692 0
DWIDTH 12 0
BBX 12 13 0 0
BITMAP
3FFFF6000000
0224F2048000
0008B00C6000
001E504D0000
006D00C50000
00D704D00000
04F20C52CEA0
00005D09C4F5
0000C509B2F4
0005C002FFC0
000C500AB4E6
001B000CB3E7
00000004DEB1
ENDCHAR
STARTCHAR partialdiff
ENCODING 8706
SWIDTH 497 0
DWIDTH 9 0
BBX 8 13 1 0
BITMAP
2BEEA100
3A79FC00
00006F50
00000DA0
06DEAAE0
4FB6AFF0
BD000AF1
E90007F1
F80008F0
E90009D0
AE000E90
3FB6BE20
05CFC300
ENDCHAR
STARTCHAR Delta
ENCODING 8710
SWIDTH 614 0
DWIDTH 11 0
BBX 11 13 0 0
BITMAP
00004F700000
00009FC00000
0000EDF20000
0005F5F70000
000AD0CC0000
001E807F2000
005F302F6000
00BD000DB000
01F80008F100
06F30003F600
0BD00000EB00
2FB66666CF10
7FFFFFFFFF60
ENDCHAR
STARTCHAR product
ENCODING 8719
SWIDTH 614 0
DWIDTH 11 0
BBX 9 15 1 -2
BITMAP
9FFFFFFFA0
9F55555EA0
9F00000DA0
9F00000DA0
9F00000DA0
9F00000DA0
9F00000DA0
9F00000DA0
9F00000DA0
9F00000DA0
9F00000DA0
9F00000DA0
9F00000DA0
9F00000DA0
9F00000DA0
ENDCHAR
STARTCHAR summation
ENCODING 8721
SWIDTH 513 0
DWIDTH 9 0
BBX 10 15 0 -2
BITMAP
4FFFFFFF70
2EC5555520
06F5000000
00AE200000
001DB00000
0004F70000
00008F3000
00000EB000
00007F4000
0003F80000
001DB00000
00AE200000
06F5000000
2EC5555550
4FFFFFFFF1
ENDCHAR
STARTCHAR minus
ENCODING 8722
SWIDTH 499 0
DWIDTH 9 0
BBX 7 2 1 5
BITMAP
9FFFFF90
35555530
ENDCHAR
STARTCHAR radical
ENCODING 8730
SWIDTH 536 0
DWIDTH 10 0
BBX 10 13 0 0
BITMAP
00000008F1
0000000DB0
0000002F60
0000007F10
000000CB00
000001F700
5FF506F200
25EA0BC000
009E1F7000
004F9F3000
000EFD0000
0009F80000
0004F40000
ENDCHAR
STARTCHAR infinity
ENCODING 8734
SWIDTH 874 0
DWIDTH 16 0
BBX 15 10 0 0
BITMAP
003CEB2005DEA100
03EB6CD15F97EC00
0AD101D9D9004F50
0E90007FF1000EA0
2F70002FB0000CB0
2F60002FB0000CB0
0F80006FF1000E90
0AD001D9D9004F50
03EB6CD15F96EC00
004CEB2005DEA100
ENDCHAR
STARTCHAR integral
ENCODING 8747
SWIDTH 235 0
DWIDTH 4 0
BBX 6 18 -1 -4
BITMAP
0007EE
003FA5
007F10
008F00
008F00
008F00
008F00
008F00
008F00
008F00
008F00
008F00
008F00
008F00
008F00
009E00
16EB00
3EC200
ENDCHAR
STARTCHAR approxequal
ENCODING 8776
SWIDTH 492 0
DWIDTH 9 0
BBX 8 7 0 2
BITMAP
08ED7227
1D9AEFFB
01001661
00000000
08ED7227
1D99EFFB
01001661
ENDCHAR
STARTCHAR notequal
ENCODING 8800
SWIDTH 479 0
DWIDTH 9 0
BBX 7 11 1 1
BITMAP
00000100
00003C00
0000B500
BFFFFF70
466D9630
002D0000
00870000
BFFFFF70
4BA66630
1D100000
04000000
ENDCHAR
STARTCHAR lessequal
ENCODING 8804
SWIDTH 445 0
DWIDTH 8 0
BBX 7 10 0 0
BITMAP
00000690
0006DF80
06DE9200
5FB10000
19FC5000
0029FD50
000029A0
00000010
25555540
6FFFFFC0
ENDCHAR
STARTCHAR greaterequal
ENCODING 8805
SWIDTH 460 0
DWIDTH 8 0
BBX 7 10 1 0
BITMAP
A6000000
8FD61000
018EE710
00009F80
005CFA20
6DF92000
B9200000
10000000
45555520
CFFFFF50
ENDCHAR
STARTCHAR lozenge
ENCODING 9674
SWIDTH 442 0
DWIDTH 8 0
BBX 8 13 0 0
BITMAP
000CC000
004FF300
00BBCA00
03F55F20
0AD00E90
2F7007E1
7F2003F6
2F7007F1
0AD00D90
03F55F20
00BBBB00
004FF400
000CC000
ENDCHAR
STARTCHAR uniEE01
ENCODING 60929
SWIDTH 271 0
DWIDTH 5 0
BBX 3 9 1 2
BITMAP
3D50
3E60
0000
0000
0000
0000
0000
3D50
3E60
ENDCHAR
STARTCHAR uniEE02
ENCODING 60930
SWIDTH 298 0
DWIDTH 5 0
BBX 4 4 1 6
BITMAP
F298
F298
F298
F298
ENDCHAR
STARTCHAR uniF6C3
ENCODING 63171
SWIDTH 235 0
DWIDTH 4 0
BBX 3 4 0 -2
BITMAP
0AC0
0BB0
0E70
1B10
ENDCHAR
STARTCHAR uniFB01
ENCODING 64257
SWIDTH 489 0
DWIDTH 9 0
BBX 8 14 0 0
BITMAP
003CED60
01ED8970
05F40000
06F20000
AFFFA1F7
28F631F7
06F201F7
06F201F7
06F201F7
06F201F7
06F201F7
06F201F7
06F201F7
06F201F7
ENDCHAR
STARTCHAR uniFB02
ENCODING 64258
SWIDTH 503 0
DWIDTH 9 0
BBX 8 14 0 0
BITMAP
002BEEB6
00CE77EB
01F800CB
02F600CB
6FFFF0CB
16F840CB
02F600CB
02F600CB
02F600CB
02F600CB
02F600CB
02F600CB
02F600CB
02F600CB
ENDCHAR
STARTCHAR uniFB03
ENCODING 64259
SWIDTH 744 0
DWIDTH 13 0
BBX 13 14 0 0
BITMAP
002CE707DEB200
00CE736FA8A200
01F800BD000000
02F600CB000000
6FFFFFFFF47F10
16F844DC417F10
02F600CB007F10
02F600CB007F10
02F600CB007F10
02F600CB007F10
02F600CB007F10
02F600CB007F10
02F600CB007F10
02F600CB007F10
ENDCHAR
STARTCHAR uniFB04
ENCODING 64260
SWIDTH 744 0
DWIDTH 13 0
BBX 13 14 0 0
BITMAP
002CE709EEC900
00CE737F96BF10
01F800BC007F10
02F600CB007F10
6FFFFFFFF57F10
16F844DC417F10
02F600CB007F10
02F600CB007F10
02F600CB007F10
02F600CB007F10
02F600CB007F10
02F600CB007F10
02F600CB007F10
02F600CB007F10
ENDCHAR
STARTCHAR uniFEFF
ENCODING 65279
SWIDTH 0 0
DWIDTH 0 0
BBX 1 1 0 0
BITMAP
00
ENDCHAR
STARTCHAR uniFFFC
ENCODING 65532
SWIDTH 1024 0
DWIDTH 18 0
BBX 18 17 0 -4
BITMAP
3FF86FF0DF86FF1DFD
3C000000000000002D
3C000000000000002D
000000000000000000
3C000000000000002D
3C000000000000002D
0003DE82FFC1003A00
3C0B41C5A0A4003A2D
3C0C0086FFE1003A2D
000B41C5A087845900
3C03DE82FFD33DD32D
3C000000000000002D
3C000000000000002D
000000000000000000
3C000000000000002D
3C000000000000002D
3FF86FF0DF86FF1DFD
ENDCHAR
STARTCHAR uniFFFD
ENCODING 65533
SWIDTH 1025 0
DWIDTH 18 0
BBX 18 17 0 -3
BITMAP
000000004A00000000
00000004FFA0000000
0000004FFFFA000000
000004FFFFFFA00000
00004FFFFFFFFA0000
0004EFF6113CFFA000
004EFFA05A02FFFA00
04EFFFFFFE12FFFFA0
1EFFFFFFD32CFFFFF6
04EFFFFF40EFFFFFA0
004EFFFFFFFFFFFA00
0004EFFF31FFFFA000
00004FFF31FFFA0000
000004FFFFFFA00000
0000004FFFFA000000
00000004FFA0000000
000000005A00000000
ENDCHAR
STARTCHAR .notdef
ENCODING -1
SWIDTH 392 0
DWIDTH 7 0
BBX 7 13 0 0
BITMAP
1FFFFF20
19000820
16303620
15505420
15515420
151A1420
15090420
151A1420
15515420
15505420
16303620
19000820
1FFFFF20
ENDCHAR
STARTCHAR glyph369
ENCODING -1
SWIDTH 364 0
DWIDTH 7 0
BBX 5 3 1 10
BITMAP
E71F80
C96D10
4B8400
ENDCHAR
STARTCHAR uni2009.locl
ENCODING -1
SWIDTH 124 0
DWIDTH 2 0
BBX 1 1 0 0
BITMAP
00
ENDCHAR
STARTCHAR f_f.dlig
ENCODING -1
SWIDTH 546 0
DWIDTH 10 0
BBX 10 14 0 0
BITMAP
002CE71BE9
00CE73AF74
01F800EA00
02F600F800
6FFFFFFFF3
16F854FA41
02F600F800
02F600F800
02F600F800
02F600F800
02F600F800
02F600F800
02F600F800
02F600F800
ENDCHAR
STARTCHAR longs_t.dlig
ENCODING -1
SWIDTH 544 0
DWIDTH 10 0
BBX 9 14 0 0
BITMAP
003CEC8200
00DE67F900
01F700F900
02F600F900
6FF66FFFF0
16F624FA40
02F600F900
02F600F900
02F600F900
02F600F900
02F600F900
02F600E900
02F600CD60
0183004EE0
ENDCHAR
STARTCHAR s_t.dlig
ENCODING -1
SWIDTH 710 0
DWIDTH 13 0
BBX 13 14 0 0
BITMAP
000002BED60000
00000CD6AF4000
00000F701F8000
00000E800DA000
008DEEC5FFFF20
08F76EF24EB400
0CB005C20DA000
0AE600000DA000
02CFE7000DA000
0004CFB00DA000
021009F30DA000
1F8004F40DA000
0AF76CD10BE710
018DEB3003DE10
ENDCHAR
STARTCHAR two.dnom
ENCODING -1
SWIDTH 329 0
DWIDTH 6 0
BBX 6 7 0 0
BITMAP
07ED50
3F58E0
1406E0
001D80
01CA00
0BC220
3FFFF4
ENDCHAR
STARTCHAR one.dnom
ENCODING -1
SWIDTH 329 0
DWIDTH 6 0
BBX 3 7 1 0
BITMAP
28C0
DDE0
06E0
06E0
06E0
06E0
06E0
ENDCHAR
STARTCHAR zero.dnom
ENCODING -1
SWIDTH 329 0
DWIDTH 6 0
BBX 6 7 0 0
BITMAP
05ED40
1E78E0
3F12F2
4F12F3
3F12F2
1E68E0
05ED50
ENDCHAR
STARTCHAR nine.c2sc
ENCODING -1
SWIDTH 447 0
DWIDTH 8 0
BBX 8 10 0 0
BITMAP
019EE800
0AF79F60
1F800BD0
2F6008F0
1F8009F1
0BE67FF0
02BECBD0
00001E80
0048DD10
00CD9200
ENDCHAR
STARTCHAR eight.c2sc
ENCODING -1
SWIDTH 447 0
DWIDTH 8 0
BBX 8 10 0 0
BITMAP
01AEEA10
09F77FA0
0DB00AD0
0AE22DB0
01DFFD10
08E77E90
0F8008F1
1F8007F1
0BE76EB0
01AEEA20
ENDCHAR
STARTCHAR seven.c2sc
ENCODING -1
SWIDTH 447 0
DWIDTH 8 0
BBX 8 10 0 0
BITMAP
5FFFFFF5
25555AF2
00000CA0
00004F30
0000BC00
0003F600
0009E000
001F8000
008F2000
01EA0000
ENDCHAR
STARTCHAR six.c2sc
ENCODING -1
SWIDTH 447 0
DWIDTH 8 0
BBX 7 10 1 0
BITMAP
019DD000
1DE85000
8E200000
CBBEC200
EF86EC00
FA007F20
E9004F40
CD007F20
6FA7EB00
08EEA100
ENDCHAR
STARTCHAR five.c2sc
ENCODING -1
SWIDTH 447 0
DWIDTH 8 0
BBX 7 10 1 0
BITMAP
3FFFFE00
5F766600
6F100000
8FCEB200
7D77ED00
00006F30
00004F50
BA006F30
7F86EC00
07DEB200
ENDCHAR
STARTCHAR four.c2sc
ENCODING -1
SWIDTH 447 0
DWIDTH 8 0
BBX 8 10 0 0
BITMAP
00009F50
0004FF50
001DCF50
009D4F50
04F34F50
1D704F50
7FFFFFF8
25557F83
00004F50
00004F50
ENDCHAR
STARTCHAR three.c2sc
ENCODING -1
SWIDTH 447 0
DWIDTH 8 0
BBX 7 10 0 0
BITMAP
02AEE910
0DD67F90
1B500AD0
00003EA0
004FFD10
00157F90
000009F0
2C4009E0
0DD67F90
03BEE910
ENDCHAR
STARTCHAR two.c2sc
ENCODING -1
SWIDTH 447 0
DWIDTH 8 0
BBX 8 10 0 0
BITMAP
019EEA10
0BE77FA0
2F6009E0
14100AE0
00003F80
0002EC00
001DD200
01CD2000
0BF75552
1FFFFFF6
ENDCHAR
STARTCHAR one.c2sc
ENCODING -1
SWIDTH 447 0
DWIDTH 8 0
BBX 5 10 1 0
BITMAP
159D30
BFDF30
315F30
005F30
005F30
005F30
005F30
005F30
005F30
005F30
ENDCHAR
STARTCHAR zero.c2sc
ENCODING -1
SWIDTH 447 0
DWIDTH 8 0
BBX 8 10 0 0
BITMAP
009EE900
07F87F80
0DA009E0
0F7007F1
2F7006F2
2F7006F2
0F7007F1
0DA009E0
07F87F80
009EE900
ENDCHAR
STARTCHAR Z.c2sc
ENCODING -1
SWIDTH 454 0
DWIDTH 8 0
BBX 8 10 0 0
BITMAP
4FFFFFF5
15555CE2
00003F70
0000CC00
0007F300
002F8000
00CD0000
06F40000
2EC55553
5FFFFFF8
ENDCHAR
STARTCHAR Y.c2sc
ENCODING -1
SWIDTH 458 0
DWIDTH 8 0
BBX 8 10 0 0
BITMAP
8F3001EB
1EA007F4
08F20DC0
02F85F50
009ECC00
002FF500
000BE000
000AD000
000AD000
000AD000
ENDCHAR
ENDFONT
